<svg width="20" height="20" viewBox="0 0 20 20" fill="none" xmlns="http://www.w3.org/2000/svg">
<path d="M9.99969 19.167C15.0623 19.167 19.1664 15.0629 19.1664 10.0002C19.1664 4.93759 15.0623 0.833496 9.99969 0.833496C4.93707 0.833496 0.833008 4.93759 0.833008 10.0002C0.833008 15.0629 4.93707 19.167 9.99969 19.167Z" fill="white"/>
<path d="M6.33337 12.5211C6.1592 12.5211 5.98503 12.457 5.84753 12.3195L4.01419 10.4861C3.74836 10.2203 3.74836 9.78025 4.01419 9.51442L5.84753 7.68107C6.11337 7.41523 6.55336 7.41523 6.8192 7.68107C7.08503 7.9469 7.08503 8.38696 6.8192 8.6528L5.47169 10.0003L6.8192 11.3478C7.08503 11.6136 7.08503 12.0537 6.8192 12.3195C6.6817 12.457 6.50753 12.5211 6.33337 12.5211Z" fill="#2189FF"/>
<path d="M13.6667 12.5214C13.4925 12.5214 13.3183 12.4572 13.1808 12.3197C12.915 12.0539 12.915 11.6138 13.1808 11.348L14.5283 10.0005L13.1808 8.65304C12.915 8.3872 12.915 7.94715 13.1808 7.68131C13.4467 7.41547 13.8867 7.41547 14.1525 7.68131L15.9858 9.51466C16.2517 9.7805 16.2517 10.2206 15.9858 10.4864L14.1525 12.3197C14.015 12.4572 13.8408 12.5214 13.6667 12.5214Z" fill="#2189FF"/>
<path d="M9.0836 12.8239C8.99194 12.8239 8.90028 12.8056 8.81778 12.7689C8.46944 12.6222 8.30444 12.2189 8.46028 11.8614L10.2936 7.58049C10.4403 7.23215 10.8436 7.06714 11.1919 7.22297C11.5403 7.36964 11.7053 7.77302 11.5494 8.13053L9.71611 12.4114C9.60611 12.6681 9.34944 12.8239 9.0836 12.8239Z" fill="#2189FF"/>
</svg>
