<svg width="20" height="20" viewBox="0 0 20 20" fill="#fff" xmlns="http://www.w3.org/2000/svg">
<path d="M18.175 3.28333C17.0833 6.00833 14.5917 9.56666 12.2167 11.8917C11.875 9.74166 10.1583 8.05833 7.99167 7.75833C10.325 5.37499 13.9083 2.84999 16.6417 1.74999C17.125 1.56666 17.6083 1.70833 17.9083 2.00833C18.225 2.32499 18.375 2.79999 18.175 3.28333Z" fill="#181818" fill-opacity="0.4" />
<path opacity="0.1" d="M12.2167 11.8916C11.8 12.3 11.3833 12.675 10.9833 12.9916L9.34167 14.3083C9.13334 14.4583 8.92501 14.5833 8.69167 14.6833C8.69167 14.525 8.67501 14.3666 8.65834 14.2C8.56667 13.5083 8.25001 12.85 7.69167 12.2916C7.11667 11.725 6.43334 11.4 5.72501 11.3083C5.55834 11.2916 5.38334 11.2833 5.22501 11.2916C5.31667 11.0333 5.45834 10.7916 5.63334 10.5916L6.93334 8.94997C7.24167 8.5583 7.60001 8.1583 7.99167 7.7583C10.1583 8.0583 11.875 9.74163 12.2167 11.8916Z" fill="#181818"/>
<path d="M8.69167 14.6833C8.69167 15.5999 8.34167 16.4749 7.67501 17.1333C7.16667 17.6499 6.48334 17.9999 5.65001 18.0999L3.60834 18.3249C2.49167 18.4499 1.53334 17.4916 1.65834 16.3666L1.88334 14.3166C2.08334 12.4916 3.60834 11.3249 5.22501 11.2916C5.38334 11.2833 5.55834 11.2916 5.72501 11.3083C6.43334 11.3999 7.11667 11.7249 7.69167 12.2916C8.25001 12.8499 8.56667 13.5083 8.65834 14.1999C8.67501 14.3666 8.69167 14.5249 8.69167 14.6833Z" fill="#181818" fill-opacity="0.4"/>
</svg>
