<svg width="20" height="20" viewBox="0 0 20 20" fill="none" xmlns="http://www.w3.org/2000/svg">
<path opacity="0.1" d="M17.5 1.66675V11.7501C17.5 13.3334 16.6667 14.1667 15.0833 14.1667H4.91666C3.33333 14.1667 2.5 13.3334 2.5 11.7501V1.66675H17.5Z" fill="#181818"/>
<path d="M18.3334 2.29175H1.66669C1.32502 2.29175 1.04169 2.00841 1.04169 1.66675C1.04169 1.32508 1.32502 1.04175 1.66669 1.04175H18.3334C18.675 1.04175 18.9584 1.32508 18.9584 1.66675C18.9584 2.00841 18.675 2.29175 18.3334 2.29175Z" fill="#A3A3A3"/>
<path d="M13.8917 18.6167C13.7833 18.8334 13.5583 18.9584 13.3333 18.9584C13.2416 18.9584 13.1417 18.9334 13.0583 18.8918L9.99998 17.3667L6.94163 18.8918C6.8583 18.9334 6.75831 18.9584 6.66664 18.9584C6.44164 18.9584 6.21663 18.8334 6.1083 18.6167C5.94997 18.3001 6.07499 17.9251 6.39166 17.7751L9.37498 16.2834V14.1667H10.625V16.2834L13.6083 17.7751C13.925 17.9251 14.05 18.3001 13.8917 18.6167Z" fill="#181818" fill-opacity="0.4"/>
<path d="M6.24998 9.79161C6.07498 9.79161 5.89166 9.71661 5.76666 9.56661C5.54166 9.29995 5.5833 8.90828 5.84997 8.68328L8.47499 6.49161C8.71666 6.29161 9.02497 6.20828 9.31664 6.25828C9.61664 6.30828 9.87499 6.49159 10.0333 6.75826L10.9083 8.21659L13.35 6.18328C13.6166 5.95828 14.0083 5.99993 14.2333 6.2666C14.4583 6.53326 14.4167 6.92493 14.15 7.14993L11.525 9.3416C11.2833 9.5416 10.975 9.62493 10.6833 9.57493C10.3833 9.52493 10.125 9.34162 9.96664 9.07495L9.09165 7.61662L6.64999 9.64993C6.53332 9.74159 6.39165 9.79161 6.24998 9.79161Z" fill="#181818" fill-opacity="0.4"/>
</svg>
