<svg width="20" height="20" viewBox="0 0 20 20" fill="none" xmlns="http://www.w3.org/2000/svg">
<path d="M16.25 6.25007L15.0084 7.49173L12.5084 4.99173L13.75 3.75007C14.1 3.40007 14.55 3.2334 15 3.2334C15.45 3.2334 15.9 3.40007 16.25 3.75007C16.9417 4.44173 16.9417 5.5584 16.25 6.25007Z" fill="#181818" fill-opacity="0.4"/>
<path opacity="0.1" d="M15.0083 7.4917L5.41664 17.0834C4.72497 17.775 3.6083 17.775 2.91664 17.0834C2.22497 16.3917 2.22497 15.275 2.91664 14.5834L12.5083 4.9917L15.0083 7.4917Z" fill="#181818"/>
<path d="M8.29164 2.91668L8.63331 1.75835C8.66664 1.65001 8.63331 1.53335 8.55831 1.45001C8.48331 1.36668 8.34997 1.33335 8.24164 1.36668L7.08331 1.70835L5.92497 1.36668C5.81664 1.33335 5.69997 1.36668 5.61664 1.44168C5.53331 1.52501 5.50831 1.64168 5.54164 1.75001L5.87497 2.91668L5.53331 4.07501C5.49997 4.18335 5.53331 4.30001 5.60831 4.38335C5.69164 4.46668 5.80831 4.49168 5.91664 4.45835L7.08331 4.12501L8.24164 4.46668C8.27497 4.47501 8.29997 4.48335 8.33331 4.48335C8.41664 4.48335 8.49164 4.45001 8.55831 4.39168C8.64164 4.30835 8.66664 4.19168 8.63331 4.08335L8.29164 2.91668Z" fill="#181818" fill-opacity="0.4"/>
<path d="M4.95833 7.91668L5.29999 6.75835C5.33333 6.65001 5.29999 6.53335 5.22499 6.45001C5.14166 6.36668 5.02499 6.34168 4.91666 6.37501L3.74999 6.70835L2.59166 6.36668C2.48333 6.33335 2.36666 6.36668 2.28333 6.44168C2.19999 6.52501 2.17499 6.64168 2.20833 6.75001L2.54166 7.91668L2.19999 9.07501C2.16666 9.18335 2.19999 9.30001 2.27499 9.38335C2.35833 9.46668 2.47499 9.49168 2.58333 9.45835L3.74166 9.11668L4.89999 9.45835C4.92499 9.46668 4.95833 9.46668 4.99166 9.46668C5.07499 9.46668 5.14999 9.43335 5.21666 9.37501C5.29999 9.29168 5.32499 9.17501 5.29166 9.06668L4.95833 7.91668Z" fill="#181818" fill-opacity="0.4"/>
<path d="M17.4583 12.0833L17.8 10.925C17.8333 10.8166 17.8 10.7 17.725 10.6166C17.6417 10.5333 17.525 10.5083 17.4167 10.5416L16.2583 10.8833L15.1 10.5416C14.9917 10.5083 14.875 10.5416 14.7917 10.6166C14.7083 10.7 14.6833 10.8166 14.7167 10.925L15.0583 12.0833L14.7167 13.2416C14.6833 13.35 14.7167 13.4666 14.7917 13.55C14.875 13.6333 14.9917 13.6583 15.1 13.625L16.2583 13.2833L17.4167 13.625C17.4417 13.6333 17.475 13.6333 17.5083 13.6333C17.5917 13.6333 17.6667 13.6 17.7333 13.5416C17.8167 13.4583 17.8417 13.3416 17.8083 13.2333L17.4583 12.0833Z" fill="#181818" fill-opacity="0.4"/>
</svg>
