<svg width="172" height="172" viewBox="0 0 172 172" fill="none" xmlns="http://www.w3.org/2000/svg">
<path d="M88.4251 89.5088H22.4838V21.3074H88.4251V89.5088ZM23.8598 88.1328H87.0491V22.6834H23.8598V88.1328Z" fill="#EBEBEB"/>
<path d="M55.6076 23.0413H54.2316V88.8175H55.6076V23.0413Z" fill="#EBEBEB"/>
<path d="M89.6739 24.0903H21.2351V26.0064H89.6739V24.0903Z" fill="#EBEBEB"/>
<path d="M89.6739 26.2439H21.2351V28.16H89.6739V26.2439Z" fill="#EBEBEB"/>
<path d="M89.6739 28.4009H21.2351V30.317H89.6739V28.4009Z" fill="#EBEBEB"/>
<path d="M89.6739 30.5542H21.2351V32.4703H89.6739V30.5542Z" fill="#EBEBEB"/>
<path d="M89.6739 32.7112H21.2351V34.6273H89.6739V32.7112Z" fill="#EBEBEB"/>
<path d="M89.6739 34.8679H21.2351V36.784H89.6739V34.8679Z" fill="#EBEBEB"/>
<path d="M89.6739 37.0215H21.2351V38.9376H89.6739V37.0215Z" fill="#EBEBEB"/>
<path d="M89.6739 39.1782H21.2351V41.0943H89.6739V39.1782Z" fill="#EBEBEB"/>
<path d="M89.6739 41.3352H21.2351V43.2513H89.6739V41.3352Z" fill="#EBEBEB"/>
<path d="M85.5872 23.7017H85.2432V67.8678H85.5872V23.7017Z" fill="#263238"/>
<path d="M86.0275 69.4675H84.8063L85.1124 67.7131H85.7213L86.0275 69.4675Z" fill="#263238"/>
<path d="M86.829 23.7017H86.485V87.5928H86.829V23.7017Z" fill="#263238"/>
<path d="M87.2659 88.8828H86.0447L86.3508 87.1284H86.9597L87.2659 88.8828Z" fill="#263238"/>
<path d="M91.8101 21.0391H19.1023V25.0467H91.8101V21.0391Z" fill="#DBDBDB"/>
<path d="M128.463 30.3821C128.463 30.0931 128.501 29.3295 128.501 29.0061C128.501 27.606 128.006 26.9731 126.702 26.9421C126.086 26.9043 125.722 26.5396 125.722 26.0202C125.722 25.5007 126.086 25.1395 126.702 25.1017C128.006 25.0432 128.501 24.4137 128.501 23.0102C128.501 22.6662 128.463 21.9163 128.463 21.6342C128.463 19.7731 129.251 18.5829 132.223 17.9327C132.427 17.8802 132.643 17.9072 132.828 18.0082C133.013 18.1093 133.152 18.2769 133.218 18.477C133.284 18.6771 133.271 18.8946 133.182 19.0855C133.093 19.2764 132.935 19.4263 132.739 19.5048C130.882 20.0793 130.613 20.6744 130.613 21.9782C130.613 22.3635 130.651 23.0102 130.651 23.3989C130.651 24.8919 129.922 25.6211 128.656 26.0236C129.943 26.4467 130.651 27.1554 130.651 28.6518C130.651 29.0543 130.613 29.6838 130.613 30.0691C130.613 31.3728 130.882 31.9679 132.739 32.5424C132.945 32.6135 133.114 32.7625 133.211 32.9573C133.308 33.1522 133.324 33.3773 133.256 33.5841C133.189 33.7908 133.042 33.9627 132.849 34.0626C132.656 34.1624 132.431 34.1823 132.223 34.1179C129.251 33.4506 128.463 32.2603 128.463 30.3821Z" fill="#EBEBEB"/>
<path d="M139.702 21.6205C139.702 21.906 139.664 22.6732 139.664 22.9965C139.664 24.4172 140.18 25.0296 141.484 25.088C141.609 25.0804 141.735 25.0985 141.853 25.1412C141.972 25.184 142.08 25.2505 142.172 25.3367C142.263 25.4229 142.336 25.527 142.386 25.6425C142.436 25.7579 142.462 25.8824 142.462 26.0082C142.462 26.134 142.436 26.2585 142.386 26.374C142.336 26.4895 142.263 26.5935 142.172 26.6797C142.08 26.7659 141.972 26.8325 141.853 26.8752C141.735 26.918 141.609 26.9361 141.484 26.9284C140.18 26.9663 139.664 27.5992 139.664 28.9924C139.664 29.3364 139.702 30.0829 139.702 30.3684C139.702 32.2467 138.914 33.4369 135.942 34.0905C135.733 34.1567 135.506 34.1371 135.312 34.0361C135.117 33.9352 134.971 33.7611 134.905 33.5522C134.839 33.3432 134.858 33.1166 134.959 32.9221C135.06 32.7276 135.234 32.5811 135.443 32.515C137.284 31.9405 137.552 31.3454 137.552 30.0416C137.552 29.6598 137.514 29.0096 137.514 28.6244C137.514 27.128 138.243 26.3987 139.509 25.9962C138.223 25.5765 137.514 24.8644 137.514 23.3715C137.514 22.969 137.552 22.3395 137.552 21.9508C137.552 20.647 137.284 20.0519 135.443 19.4774C135.244 19.4037 135.081 19.2562 134.988 19.0656C134.895 18.8749 134.879 18.6558 134.943 18.4536C135.007 18.2514 135.147 18.0817 135.333 17.9796C135.519 17.8775 135.737 17.8509 135.942 17.9053C138.914 18.5761 139.702 19.7595 139.702 21.6205Z" fill="#EBEBEB"/>
<path d="M139.32 88.5698C139.43 88.6832 139.504 88.8261 139.534 88.981C139.563 89.1359 139.547 89.2962 139.488 89.4421C139.428 89.5881 139.327 89.7135 139.197 89.8029C139.067 89.8923 138.913 89.942 138.756 89.9458C138.535 89.9478 138.322 89.8653 138.161 89.7153L134.542 86.0414C134.504 86.0414 134.49 86.0035 134.476 85.9657C134.466 85.9544 134.453 85.945 134.439 85.9382C134.421 85.9058 134.408 85.871 134.401 85.835C134.391 85.8303 134.382 85.8231 134.375 85.8141C134.368 85.8051 134.364 85.7945 134.363 85.7834C134.363 85.7593 134.363 85.7214 134.335 85.7077C134.308 85.6939 134.311 85.6561 134.311 85.6423V85.5529C134.311 85.5288 134.311 85.515 134.311 85.4772C134.311 85.4394 134.311 85.4256 134.311 85.4118V85.3224C134.311 85.2949 134.335 85.2811 134.335 85.2708C134.335 85.2605 134.335 85.2054 134.363 85.1676C134.39 85.1298 134.363 85.1676 134.363 85.1401C134.381 85.1007 134.401 85.0628 134.425 85.0266C134.425 85.0193 134.428 85.0123 134.433 85.0071C134.438 85.0019 134.445 84.999 134.452 84.999C134.469 84.9629 134.495 84.932 134.528 84.9096L138.147 81.2391C138.303 81.09 138.511 81.0068 138.727 81.0068C138.942 81.0068 139.15 81.09 139.306 81.2391C139.383 81.3149 139.444 81.4052 139.485 81.5047C139.527 81.6042 139.548 81.7109 139.548 81.8188C139.548 81.9266 139.527 82.0333 139.485 82.1328C139.444 82.2323 139.383 82.3226 139.306 82.3984L136.255 85.4944L139.32 88.5698Z" fill="#EBEBEB"/>
<path d="M142.605 88.9791L145.763 81.4696C145.8 81.3833 145.854 81.3053 145.921 81.2399C145.988 81.1745 146.068 81.123 146.155 81.0885C146.243 81.054 146.336 81.037 146.43 81.0387C146.524 81.0403 146.616 81.0605 146.702 81.098C146.787 81.1336 146.863 81.1856 146.927 81.2512C146.991 81.3167 147.042 81.3943 147.075 81.4796C147.109 81.5648 147.125 81.6559 147.123 81.7475C147.121 81.8391 147.101 81.9294 147.063 82.0131L143.905 89.5329C143.85 89.6607 143.758 89.7694 143.641 89.8452C143.524 89.9211 143.388 89.9608 143.248 89.9595C143.161 89.9607 143.074 89.9431 142.994 89.9079C142.905 89.8752 142.824 89.8246 142.756 89.7592C142.688 89.6939 142.634 89.6152 142.597 89.5281C142.561 89.4409 142.543 89.3472 142.544 89.2528C142.545 89.1583 142.566 89.0652 142.605 88.9791Z" fill="#EBEBEB"/>
<path d="M161.632 55.1535C161.632 55.838 161.373 56.4972 160.907 56.9987C160.442 57.5002 159.803 57.807 159.121 57.8574H143.771C142.952 57.8574 142.164 57.5418 141.572 56.9762C140.979 56.4105 140.627 55.6383 140.589 54.82C140.551 54.0017 140.83 53.2001 141.367 52.5819C141.905 51.9637 142.66 51.5763 143.475 51.5002C143.516 50.2562 143.988 49.065 144.811 48.1307C145.633 47.1964 146.755 46.577 147.984 46.3787C149.213 46.1803 150.472 46.4153 151.547 47.0433C152.621 47.6714 153.444 48.6535 153.875 49.8215C154.316 49.5964 154.804 49.4786 155.299 49.4775C156.11 49.4777 156.89 49.7869 157.482 50.3423C158.073 50.8976 158.43 51.6574 158.481 52.4669C158.626 52.4431 158.774 52.4316 158.921 52.4325C159.278 52.432 159.632 52.5022 159.961 52.6389C160.291 52.7756 160.591 52.9762 160.843 53.2291C161.094 53.482 161.294 53.7822 161.429 54.1125C161.565 54.4427 161.634 54.7965 161.632 55.1535Z" fill="#DBDBDB"/>
<path d="M22.9551 144.741L38.7172 144.655L54.4792 144.628L86 144.569L117.521 144.628L133.283 144.655L149.045 144.741L133.283 144.824L117.521 144.855L86 144.913L54.4792 144.855L38.7172 144.824L22.9551 144.741Z" fill="#263238"/>
<path d="M29.6115 160.999C38.024 160.999 44.8438 159.69 44.8438 158.075C44.8438 156.46 38.024 155.151 29.6115 155.151C21.1989 155.151 14.3792 156.46 14.3792 158.075C14.3792 159.69 21.1989 160.999 29.6115 160.999Z" fill="#EBEBEB"/>
<path d="M90.8057 159.699C123.943 159.699 150.806 156.786 150.806 153.194C150.806 149.601 123.943 146.688 90.8057 146.688C57.6683 146.688 30.8052 149.601 30.8052 153.194C30.8052 156.786 57.6683 159.699 90.8057 159.699Z" fill="#EBEBEB"/>
<path d="M123.699 21.187H96.4851V38.5487H123.699V21.187Z" fill="white"/>
<path d="M123.871 38.7206H96.3199V21.0149H123.878L123.871 38.7206ZM96.6571 38.3766H123.527V21.3589H96.6639L96.6571 38.3766Z" fill="#EBEBEB"/>
<path d="M123.699 21.187H96.4851V24.4688H123.699V21.187Z" fill="#4D9282"/>
<path d="M123.871 24.6441H96.3199V21.0149H123.878L123.871 24.6441ZM96.6571 24.3001H123.527V21.3589H96.6639L96.6571 24.3001Z" fill="#EBEBEB"/>
<path d="M99.5638 22.8519C99.5618 23.0142 99.5119 23.1724 99.4204 23.3066C99.3289 23.4408 99.1999 23.545 99.0495 23.6062C98.899 23.6674 98.7339 23.6829 98.5747 23.6507C98.4155 23.6185 98.2694 23.5401 98.1545 23.4253C98.0397 23.3104 97.9613 23.1643 97.9291 23.0051C97.8969 22.8459 97.9124 22.6808 97.9736 22.5303C98.0348 22.3799 98.139 22.2509 98.2732 22.1594C98.4074 22.0679 98.5655 22.018 98.7279 22.0159C98.8381 22.0145 98.9474 22.0352 99.0495 22.0767C99.1515 22.1183 99.2442 22.1798 99.3221 22.2577C99.4 22.3356 99.4615 22.4283 99.503 22.5303C99.5446 22.6324 99.5652 22.7417 99.5638 22.8519Z" fill="#A6A6A6"/>
<path d="M102.939 22.852C102.939 23.0153 102.89 23.1749 102.799 23.3106C102.709 23.4464 102.58 23.5522 102.429 23.6147C102.278 23.6772 102.112 23.6936 101.952 23.6617C101.792 23.6298 101.645 23.5512 101.529 23.4358C101.414 23.3203 101.335 23.1732 101.303 23.013C101.271 22.8529 101.288 22.6869 101.35 22.536C101.413 22.3852 101.519 22.2562 101.654 22.1655C101.79 22.0748 101.95 22.0264 102.113 22.0264C102.332 22.0264 102.542 22.1133 102.697 22.2682C102.852 22.423 102.939 22.633 102.939 22.852Z" fill="#EBEBEB"/>
<path d="M106.313 22.852C106.313 23.0153 106.265 23.1749 106.174 23.3106C106.083 23.4464 105.954 23.5522 105.804 23.6147C105.653 23.6772 105.487 23.6936 105.327 23.6617C105.166 23.6298 105.019 23.5512 104.904 23.4358C104.788 23.3203 104.71 23.1732 104.678 23.013C104.646 22.8529 104.662 22.6869 104.725 22.536C104.787 22.3852 104.893 22.2562 105.029 22.1655C105.165 22.0748 105.324 22.0264 105.488 22.0264C105.707 22.0264 105.917 22.1133 106.071 22.2682C106.226 22.423 106.313 22.633 106.313 22.852Z" fill="white"/>
<path d="M101.181 30.9601C101.197 30.0813 101.557 29.244 102.185 28.6283C102.812 28.0127 103.656 27.6678 104.535 27.668C105.296 27.6668 106.037 27.9185 106.64 28.3835C106.744 28.4719 106.812 28.5965 106.828 28.7323C106.845 28.8682 106.809 29.0052 106.729 29.1162C106.644 29.2234 106.521 29.2935 106.385 29.3121C106.249 29.3307 106.111 29.2963 106 29.216C105.582 28.8804 105.06 28.7026 104.524 28.7137C103.913 28.716 103.325 28.9509 102.88 29.3708C102.459 29.7926 102.223 30.3642 102.223 30.9601C102.223 31.2561 102.281 31.5492 102.396 31.8221C102.511 32.0951 102.679 32.3423 102.89 32.5493C103.335 32.9705 103.923 33.2067 104.535 33.2098C105.07 33.2179 105.592 33.0391 106.01 32.7041C106.123 32.6289 106.26 32.5979 106.395 32.6169C106.529 32.636 106.652 32.7037 106.74 32.8073C106.819 32.9192 106.853 33.0573 106.835 33.1934C106.816 33.3296 106.747 33.4535 106.64 33.5401C106.035 34.0086 105.29 34.2606 104.524 34.2556C103.646 34.2548 102.803 33.9088 102.178 33.2923C101.552 32.6758 101.194 31.8382 101.181 30.9601Z" fill="#EBEBEB"/>
<path d="M108.312 32.6801C108.393 32.5843 108.508 32.5242 108.633 32.5126C108.758 32.501 108.882 32.5389 108.979 32.6181C109.473 33.0292 110.085 33.2705 110.727 33.3061C111.134 33.3115 111.532 33.1914 111.869 32.9621C111.983 32.8923 112.078 32.7956 112.147 32.6805C112.215 32.5654 112.254 32.4354 112.261 32.3017C112.264 32.1985 112.236 32.0969 112.182 32.0093C112.112 31.8989 112.018 31.806 111.907 31.7375C111.52 31.5167 111.095 31.3697 110.654 31.3041H110.634C110.228 31.239 109.831 31.1234 109.454 30.9601C109.109 30.8085 108.814 30.5615 108.604 30.248C108.465 30.0229 108.392 29.7628 108.394 29.4981C108.403 29.2336 108.473 28.9748 108.601 28.7428C108.728 28.5109 108.908 28.3123 109.127 28.1633C109.59 27.8394 110.144 27.6697 110.709 27.6783C111.432 27.7153 112.126 27.9695 112.701 28.4076C112.804 28.4774 112.875 28.5848 112.898 28.7065C112.922 28.8282 112.897 28.9544 112.829 29.0577C112.796 29.1103 112.753 29.1557 112.703 29.1913C112.652 29.2269 112.595 29.2518 112.535 29.2647C112.474 29.2775 112.412 29.278 112.351 29.2661C112.29 29.2542 112.233 29.2301 112.182 29.1953C111.762 28.8559 111.248 28.652 110.709 28.6105C110.341 28.6027 109.98 28.711 109.677 28.9201C109.578 28.982 109.495 29.0667 109.435 29.1673C109.375 29.2678 109.341 29.3813 109.333 29.4981C109.327 29.5877 109.35 29.6769 109.399 29.7526C109.463 29.8475 109.546 29.9282 109.643 29.99C109.995 30.1984 110.384 30.3352 110.789 30.3925H110.806C111.241 30.4691 111.665 30.5985 112.068 30.7777C112.439 30.9386 112.755 31.2025 112.98 31.538C113.124 31.7704 113.2 32.0385 113.2 32.312C113.189 32.5904 113.113 32.8623 112.977 33.1056C112.842 33.3489 112.65 33.5567 112.419 33.7121C111.923 34.0584 111.331 34.2402 110.727 34.2315C109.867 34.1897 109.044 33.8684 108.384 33.3165C108.297 33.2369 108.242 33.1287 108.229 33.0117C108.216 32.8948 108.245 32.777 108.312 32.6801Z" fill="#EBEBEB"/>
<path d="M114.321 32.6801C114.402 32.5843 114.518 32.5242 114.642 32.5126C114.767 32.501 114.892 32.5389 114.989 32.6181C115.481 33.0292 116.093 33.2705 116.733 33.3061C117.141 33.3115 117.541 33.1914 117.878 32.9621C117.992 32.8916 118.087 32.7948 118.155 32.6798C118.224 32.5649 118.263 32.4351 118.271 32.3017C118.272 32.1982 118.244 32.0965 118.188 32.0093C118.118 31.8989 118.024 31.806 117.913 31.7375C117.526 31.5167 117.101 31.3697 116.661 31.3041H116.643C116.237 31.239 115.841 31.1234 115.464 30.9601C115.118 30.8095 114.823 30.5623 114.614 30.248C114.473 30.0232 114.399 29.7632 114.401 29.4981C114.41 29.2337 114.481 28.9753 114.608 28.7434C114.735 28.5116 114.915 28.3129 115.133 28.1633C115.597 27.8394 116.15 27.6697 116.716 27.6783C117.438 27.7153 118.132 27.9695 118.707 28.4076C118.811 28.4769 118.882 28.584 118.907 28.7058C118.931 28.8275 118.906 28.954 118.838 29.0577C118.805 29.1104 118.762 29.1559 118.711 29.1915C118.661 29.2271 118.603 29.2521 118.542 29.2649C118.482 29.2778 118.419 29.2782 118.358 29.2663C118.297 29.2543 118.239 29.2302 118.188 29.1953C117.768 28.8559 117.254 28.652 116.716 28.6105C116.348 28.6027 115.987 28.711 115.684 28.9201C115.584 28.982 115.501 29.0667 115.441 29.1673C115.382 29.2678 115.347 29.3813 115.34 29.4981C115.335 29.5876 115.358 29.6763 115.405 29.7526C115.47 29.8483 115.554 29.9291 115.653 29.99C116.003 30.198 116.391 30.3348 116.795 30.3925H116.812C117.247 30.4681 117.671 30.5975 118.075 30.7777C118.446 30.9386 118.763 31.2024 118.99 31.538C119.134 31.7704 119.21 32.0385 119.21 32.312C119.198 32.5906 119.121 32.8626 118.985 33.1059C118.849 33.3492 118.657 33.5569 118.425 33.7121C117.93 34.0591 117.338 34.2409 116.733 34.2315C115.874 34.1904 115.052 33.869 114.394 33.3165C114.306 33.2377 114.25 33.1293 114.236 33.012C114.223 32.8947 114.253 32.7765 114.321 32.6801Z" fill="#EBEBEB"/>
<path d="M142.481 37.0901H105.312V63.4095H142.481V37.0901Z" fill="white"/>
<path d="M142.657 63.5814H105.14V36.918H142.657V63.5814ZM105.484 63.2374H142.313V37.262H105.484V63.2374Z" fill="#EBEBEB"/>
<path d="M142.481 37.0901H105.312V40.3718H142.481V37.0901Z" fill="#4D9282"/>
<path d="M142.657 40.5472H105.14V36.918H142.657V40.5472ZM105.484 40.2032H142.313V37.262H105.484V40.2032Z" fill="#EBEBEB"/>
<path d="M108.394 38.755C108.394 38.9183 108.346 39.078 108.255 39.2137C108.165 39.3495 108.036 39.4553 107.885 39.5178C107.734 39.5803 107.568 39.5966 107.408 39.5648C107.248 39.5329 107.1 39.4543 106.985 39.3388C106.87 39.2234 106.791 39.0763 106.759 38.9161C106.727 38.756 106.744 38.59 106.806 38.4391C106.868 38.2882 106.974 38.1593 107.11 38.0686C107.246 37.9779 107.405 37.9294 107.569 37.9294C107.677 37.9294 107.785 37.9508 107.885 37.9923C107.985 38.0338 108.076 38.0946 108.153 38.1713C108.229 38.2479 108.29 38.3389 108.332 38.4391C108.373 38.5393 108.394 38.6466 108.394 38.755Z" fill="#A6A6A6"/>
<path d="M111.769 38.7551C111.77 38.9193 111.722 39.0801 111.631 39.2169C111.54 39.3538 111.41 39.4606 111.259 39.5238C111.107 39.5869 110.94 39.6036 110.779 39.5718C110.618 39.5399 110.47 39.4609 110.354 39.3447C110.238 39.2286 110.159 39.0805 110.127 38.9194C110.095 38.7582 110.112 38.5913 110.175 38.4396C110.238 38.288 110.345 38.1586 110.482 38.0677C110.618 37.9769 110.779 37.9288 110.943 37.9295C111.052 37.9295 111.159 37.9508 111.259 37.9923C111.36 38.0338 111.451 38.0946 111.527 38.1713C111.604 38.2479 111.665 38.3389 111.706 38.4391C111.748 38.5393 111.769 38.6466 111.769 38.7551Z" fill="#EBEBEB"/>
<path d="M115.144 38.7551C115.144 38.9192 115.096 39.0798 115.006 39.2166C114.915 39.3534 114.786 39.4602 114.634 39.5234C114.483 39.5867 114.316 39.6036 114.155 39.572C113.994 39.5404 113.846 39.4617 113.73 39.3459C113.613 39.2301 113.534 39.0824 113.502 38.9215C113.47 38.7606 113.486 38.5937 113.548 38.442C113.611 38.2903 113.717 38.1607 113.854 38.0694C113.99 37.9782 114.151 37.9295 114.315 37.9295C114.423 37.929 114.531 37.95 114.632 37.9913C114.732 38.0326 114.824 38.0933 114.901 38.17C114.978 38.2468 115.039 38.3379 115.08 38.4383C115.122 38.5387 115.144 38.6463 115.144 38.7551Z" fill="white"/>
<path d="M110.589 46.9043H108.835V47.5441H110.589V46.9043Z" fill="#EBEBEB"/>
<path d="M123.788 46.9043H111.869V47.5441H123.788V46.9043Z" fill="#EBEBEB"/>
<path d="M128.198 46.9043H124.865V47.5441H128.198V46.9043Z" fill="#4D9282"/>
<path d="M135.825 55.4836H132.492V56.1235H135.825V55.4836Z" fill="#EBEBEB"/>
<path d="M134.686 46.9043H128.924V47.5441H134.686V46.9043Z" fill="#A6A6A6"/>
<path d="M112.344 48.6208H110.589V49.2607H112.344V48.6208Z" fill="#EBEBEB"/>
<path d="M121.318 48.6208H113.582V49.2607H121.318V48.6208Z" fill="#A6A6A6"/>
<path d="M131.7 55.4836H123.964V56.1235H131.7V55.4836Z" fill="#A6A6A6"/>
<path d="M119.014 53.7671H111.869V54.4069H119.014V53.7671Z" fill="#A6A6A6"/>
<path d="M116.96 50.3374H113.582V50.9772H116.96V50.3374Z" fill="#4D9282"/>
<path d="M130.476 52.054H127.098V52.6938H130.476V52.054Z" fill="#A6A6A6"/>
<path d="M129.341 50.3374H117.94V50.9772H129.341V50.3374Z" fill="#A6A6A6"/>
<path d="M123.269 55.4836H111.869V56.1235H123.269V55.4836Z" fill="#4D9282"/>
<path d="M137.7 48.6208H128.553V49.2607H137.7V48.6208Z" fill="#4D9282"/>
<path d="M127.83 48.6208H122.147V49.2607H127.83V48.6208Z" fill="#EBEBEB"/>
<path d="M135.687 50.3374H130.005V50.9772H135.687V50.3374Z" fill="#EBEBEB"/>
<path d="M112.344 50.3374H110.589V50.9772H112.344V50.3374Z" fill="#EBEBEB"/>
<path d="M110.589 52.054H108.835V52.6938H110.589V52.054Z" fill="#A6A6A6"/>
<path d="M116.764 52.054H111.869V52.6938H116.764V52.054Z" fill="#EBEBEB"/>
<path d="M118.477 57.2002H113.582V57.84H118.477V57.2002Z" fill="#EBEBEB"/>
<path d="M132.595 58.9167H124.707V59.5566H132.595V58.9167Z" fill="#4D9282"/>
<path d="M126.984 57.2002H119.32V57.84H126.984V57.2002Z" fill="#4D9282"/>
<path d="M123.799 58.9167H117.483V59.5566H123.799V58.9167Z" fill="#EBEBEB"/>
<path d="M137.7 57.2002H127.882V57.84H137.7V57.2002Z" fill="#A6A6A6"/>
<path d="M116.585 58.9167H113.582V59.5566H116.585V58.9167Z" fill="#A6A6A6"/>
<path d="M128.198 53.7671H119.726V54.4069H128.198V53.7671Z" fill="#EBEBEB"/>
<path d="M136.059 53.7671H128.924V54.4069H136.059V53.7671Z" fill="#4D9282"/>
<path d="M126.279 52.054H117.82V52.6938H126.279V52.054Z" fill="#4D9282"/>
<path d="M110.589 53.7671H108.835V54.4069H110.589V53.7671Z" fill="#EBEBEB"/>
<path d="M110.589 55.4836H108.835V56.1235H110.589V55.4836Z" fill="#EBEBEB"/>
<path d="M112.344 57.2002H110.589V57.84H112.344V57.2002Z" fill="#A6A6A6"/>
<path d="M112.344 58.9167H110.589V59.5566H112.344V58.9167Z" fill="#EBEBEB"/>
<path d="M110.534 45.2944L111.122 43.8875C111.137 43.8558 111.164 43.8311 111.196 43.8183C111.229 43.8056 111.265 43.8057 111.298 43.8187C111.329 43.833 111.354 43.8589 111.367 43.8909C111.379 43.9229 111.379 43.9587 111.367 43.9907L110.768 45.408C110.758 45.4312 110.741 45.451 110.719 45.4651C110.698 45.4791 110.673 45.4867 110.648 45.4871C110.632 45.4906 110.615 45.4906 110.599 45.4871C110.581 45.4809 110.564 45.4705 110.55 45.4566C110.536 45.4427 110.525 45.4258 110.519 45.4071C110.512 45.3884 110.51 45.3685 110.513 45.3489C110.516 45.3294 110.523 45.3107 110.534 45.2944Z" fill="#4D9282"/>
<path d="M112.533 44.7199L112.515 44.7371L111.827 45.4251C111.814 45.4395 111.797 45.4509 111.779 45.4586C111.761 45.4663 111.741 45.4701 111.721 45.4699C111.7 45.4702 111.68 45.4664 111.661 45.4587C111.642 45.4511 111.625 45.4396 111.611 45.4251C111.582 45.3962 111.567 45.3573 111.567 45.3168C111.567 45.2763 111.582 45.2374 111.611 45.2084L112.182 44.6339L111.611 44.056C111.582 44.0271 111.567 43.9882 111.567 43.9477C111.567 43.9071 111.582 43.8682 111.611 43.8393C111.641 43.8125 111.679 43.7976 111.719 43.7976C111.759 43.7976 111.798 43.8125 111.827 43.8393L112.515 44.5273H112.533V44.5514V44.572V44.6339C112.533 44.642 112.533 44.65 112.533 44.658C112.526 44.6671 112.523 44.6779 112.523 44.689C112.523 44.7 112.526 44.7108 112.533 44.7199Z" fill="#4D9282"/>
<path d="M159.657 61.1082H132.443V78.4698H159.657V61.1082Z" fill="white"/>
<path d="M159.829 78.6383H132.271V60.936H159.829V78.6383ZM132.615 78.2943H159.485V61.28H132.615V78.2943Z" fill="#EBEBEB"/>
<path d="M159.657 61.1082H132.443V64.3899H159.657V61.1082Z" fill="#4D9282"/>
<path d="M159.829 64.5618H132.271V60.936H159.829V64.5618ZM132.615 64.2178H159.485V61.28H132.615V64.2178Z" fill="#EBEBEB"/>
<path d="M135.536 62.7731C135.537 62.9372 135.489 63.0979 135.398 63.2346C135.307 63.3714 135.178 63.4782 135.027 63.5415C134.875 63.6048 134.708 63.6217 134.547 63.5901C134.386 63.5585 134.238 63.4798 134.122 63.364C134.006 63.2482 133.926 63.1005 133.894 62.9396C133.862 62.7787 133.878 62.6118 133.941 62.4601C134.003 62.3084 134.11 62.1787 134.246 62.0875C134.382 61.9962 134.543 61.9475 134.707 61.9475C134.816 61.9471 134.923 61.9681 135.024 62.0094C135.125 62.0507 135.216 62.1114 135.293 62.1881C135.37 62.2648 135.431 62.356 135.473 62.4564C135.515 62.5568 135.536 62.6644 135.536 62.7731Z" fill="#A6A6A6"/>
<path d="M138.897 62.7731C138.897 62.9364 138.848 63.096 138.758 63.2318C138.667 63.3676 138.538 63.4734 138.387 63.5359C138.236 63.5984 138.07 63.6147 137.91 63.5829C137.75 63.551 137.603 63.4724 137.487 63.3569C137.372 63.2414 137.293 63.0943 137.261 62.9342C137.23 62.774 137.246 62.608 137.308 62.4572C137.371 62.3063 137.477 62.1774 137.613 62.0867C137.748 61.9959 137.908 61.9475 138.071 61.9475C138.18 61.9471 138.287 61.9681 138.388 62.0094C138.488 62.0508 138.579 62.1116 138.656 62.1883C138.733 62.2651 138.794 62.3563 138.835 62.4566C138.876 62.557 138.897 62.6646 138.897 62.7731Z" fill="#EBEBEB"/>
<path d="M142.271 62.7731C142.271 62.9364 142.223 63.096 142.132 63.2318C142.042 63.3676 141.913 63.4734 141.762 63.5359C141.611 63.5984 141.445 63.6147 141.285 63.5829C141.125 63.551 140.978 63.4724 140.862 63.3569C140.747 63.2414 140.668 63.0943 140.636 62.9342C140.604 62.774 140.621 62.608 140.683 62.4572C140.746 62.3063 140.851 62.1774 140.987 62.0867C141.123 61.9959 141.283 61.9475 141.446 61.9475C141.554 61.9471 141.662 61.9681 141.762 62.0094C141.863 62.0508 141.954 62.1116 142.031 62.1883C142.107 62.2651 142.168 62.3563 142.21 62.4566C142.251 62.557 142.272 62.6646 142.271 62.7731Z" fill="white"/>
<path d="M137.524 70.881C137.541 70.0026 137.902 69.1658 138.529 68.5503C139.156 67.9348 140 67.5897 140.878 67.589C141.643 67.5834 142.387 67.8354 142.99 68.3045C143.09 68.3929 143.152 68.5157 143.165 68.6482C143.177 68.7807 143.139 68.9131 143.058 69.0186C142.977 69.1241 142.859 69.195 142.728 69.217C142.596 69.2389 142.462 69.2103 142.351 69.137C141.935 68.8004 141.413 68.6214 140.878 68.6313C140.266 68.6344 139.678 68.8706 139.234 69.2918C139.024 69.4998 138.857 69.7472 138.742 70.0199C138.628 70.2927 138.568 70.5853 138.567 70.881C138.566 71.1776 138.625 71.4713 138.739 71.7449C138.854 72.0184 139.022 72.2662 139.234 72.4738C139.679 72.8937 140.267 73.1286 140.878 73.1308C141.413 73.1408 141.934 72.9631 142.351 72.6286C142.464 72.5527 142.601 72.521 142.736 72.5394C142.871 72.5578 142.995 72.625 143.083 72.7283C143.164 72.8394 143.199 72.977 143.182 73.113C143.164 73.2491 143.096 73.3735 142.99 73.461C142.386 73.9277 141.642 74.1783 140.878 74.1731C139.999 74.1759 139.153 73.832 138.525 73.2157C137.898 72.5995 137.538 71.7607 137.524 70.881Z" fill="#EBEBEB"/>
<path d="M146.293 71.4591H144.992C144.859 71.4591 144.732 71.4062 144.637 71.312C144.543 71.2178 144.49 71.0901 144.49 70.9569C144.491 70.8236 144.544 70.696 144.638 70.6015C144.732 70.5069 144.859 70.453 144.992 70.4512H146.293V69.1818C146.292 69.1132 146.305 69.0451 146.33 68.9814C146.356 68.9178 146.394 68.86 146.443 68.8113C146.491 68.7626 146.549 68.724 146.612 68.6979C146.676 68.6717 146.744 68.6585 146.812 68.6589C146.951 68.6589 147.084 68.714 147.182 68.8121C147.28 68.9102 147.335 69.0432 147.335 69.1818V70.4512H148.632C148.765 70.453 148.892 70.5069 148.986 70.6015C149.08 70.696 149.133 70.8236 149.134 70.9569C149.134 71.0901 149.081 71.2178 148.987 71.312C148.893 71.4062 148.765 71.4591 148.632 71.4591H147.335V72.7285C147.335 72.8671 147.28 73.0001 147.182 73.0982C147.084 73.1963 146.951 73.2513 146.812 73.2513C146.744 73.2518 146.676 73.2386 146.612 73.2124C146.549 73.1863 146.491 73.1477 146.443 73.099C146.394 73.0503 146.356 72.9925 146.33 72.9288C146.305 72.8652 146.292 72.7971 146.293 72.7285V71.4591Z" fill="#EBEBEB"/>
<path d="M151.962 71.4591H150.672C150.539 71.4591 150.411 71.4062 150.317 71.312C150.223 71.2178 150.17 71.0901 150.17 70.9569C150.171 70.8236 150.224 70.696 150.318 70.6015C150.411 70.5069 150.539 70.453 150.672 70.4512H151.972V69.1818C151.971 69.1132 151.984 69.0451 152.01 68.9814C152.036 68.9178 152.074 68.86 152.122 68.8113C152.17 68.7626 152.228 68.724 152.292 68.6979C152.355 68.6717 152.423 68.6585 152.492 68.6589C152.63 68.6598 152.763 68.7152 152.86 68.8131C152.958 68.911 153.014 69.0434 153.015 69.1818V70.4512H154.311C154.445 70.453 154.572 70.5069 154.666 70.6015C154.76 70.696 154.813 70.8236 154.814 70.9569C154.814 71.0901 154.761 71.2178 154.667 71.312C154.572 71.4062 154.445 71.4591 154.311 71.4591H153.015V72.7285C153.014 72.8669 152.958 72.9993 152.86 73.0972C152.763 73.1951 152.63 73.2504 152.492 73.2513C152.423 73.2518 152.355 73.2386 152.292 73.2124C152.228 73.1863 152.17 73.1477 152.122 73.099C152.074 73.0503 152.036 72.9925 152.01 72.9288C151.984 72.8652 151.971 72.7971 151.972 72.7285L151.962 71.4591Z" fill="#EBEBEB"/>
<path d="M155.316 32.2637H136.778V39.1265H155.316V32.2637Z" fill="#455A64"/>
<path d="M139.454 37.121V34.0766C139.454 34.0389 139.461 34.0016 139.475 33.9667C139.489 33.9319 139.51 33.9002 139.537 33.8736C139.563 33.847 139.595 33.826 139.63 33.8118C139.665 33.7976 139.702 33.7906 139.74 33.791C139.777 33.7906 139.815 33.7976 139.85 33.8118C139.885 33.8259 139.917 33.8469 139.944 33.8734C139.971 33.9 139.992 33.9316 140.007 33.9665C140.021 34.0014 140.029 34.0388 140.029 34.0766V35.315H141.363V34.0766C141.363 34.0389 141.37 34.0016 141.384 33.9667C141.398 33.9319 141.419 33.9002 141.446 33.8736C141.473 33.847 141.504 33.826 141.539 33.8118C141.574 33.7976 141.611 33.7906 141.649 33.791C141.687 33.7906 141.724 33.7976 141.759 33.8118C141.794 33.8259 141.826 33.8469 141.853 33.8734C141.88 33.9 141.901 33.9316 141.916 33.9665C141.93 34.0014 141.938 34.0388 141.938 34.0766V37.121C141.937 37.1585 141.93 37.1955 141.915 37.23C141.9 37.2644 141.879 37.2957 141.852 37.3218C141.825 37.348 141.793 37.3687 141.758 37.3826C141.724 37.3966 141.686 37.4035 141.649 37.403C141.611 37.404 141.574 37.3973 141.539 37.3835C141.504 37.3697 141.473 37.349 141.446 37.3227C141.419 37.2964 141.398 37.2649 141.384 37.2303C141.37 37.1956 141.363 37.1584 141.363 37.121V35.8826H140.029V37.121C140.028 37.1585 140.02 37.1955 140.006 37.23C139.991 37.2644 139.969 37.2957 139.943 37.3218C139.916 37.348 139.884 37.3687 139.849 37.3826C139.814 37.3966 139.777 37.4035 139.74 37.403C139.702 37.404 139.665 37.3973 139.63 37.3835C139.595 37.3697 139.564 37.349 139.537 37.3227C139.51 37.2964 139.489 37.2649 139.475 37.2303C139.461 37.1956 139.454 37.1584 139.454 37.121Z" fill="white"/>
<path d="M145.323 34.3655H144.501V37.1175C144.501 37.1547 144.494 37.1916 144.48 37.226C144.466 37.2604 144.445 37.2917 144.419 37.318C144.393 37.3443 144.361 37.3651 144.327 37.3791C144.293 37.3931 144.256 37.4001 144.219 37.3996C144.143 37.3996 144.071 37.37 144.018 37.3172C143.964 37.2644 143.934 37.1926 143.933 37.1175V34.3655H143.104C143.066 34.3651 143.029 34.3572 142.995 34.3425C142.96 34.3277 142.929 34.3063 142.903 34.2795C142.877 34.2526 142.856 34.2209 142.842 34.1861C142.828 34.1513 142.821 34.1141 142.822 34.0766C142.821 34.0391 142.828 34.0018 142.841 33.967C142.855 33.9322 142.876 33.9005 142.902 33.8738C142.929 33.8472 142.96 33.8261 142.995 33.8119C143.029 33.7976 143.066 33.7906 143.104 33.791H145.309C145.346 33.791 145.383 33.7984 145.418 33.8128C145.452 33.8272 145.483 33.8483 145.51 33.8749C145.536 33.9014 145.557 33.9329 145.571 33.9676C145.585 34.0022 145.592 34.0392 145.591 34.0766C145.591 34.1497 145.564 34.2203 145.514 34.2739C145.464 34.3276 145.396 34.3603 145.323 34.3655Z" fill="white"/>
<path d="M149.564 34.0765V37.121C149.562 37.1964 149.531 37.2681 149.477 37.3208C149.423 37.3736 149.351 37.4031 149.275 37.403C149.238 37.4035 149.201 37.3965 149.166 37.3826C149.132 37.3686 149.1 37.3479 149.074 37.3216C149.047 37.2954 149.026 37.2641 149.012 37.2297C148.997 37.1952 148.99 37.1583 148.99 37.121V34.9469L148.247 35.9789C148.221 36.0164 148.187 36.047 148.147 36.068C148.106 36.089 148.062 36.0998 148.016 36.0993C147.97 36.1 147.924 36.0894 147.883 36.0684C147.841 36.0474 147.806 36.0167 147.779 35.9789L147.039 34.9469V37.121C147.039 37.1967 147.009 37.2693 146.956 37.3228C146.902 37.3764 146.83 37.4065 146.754 37.4065C146.678 37.4065 146.605 37.3764 146.552 37.3228C146.498 37.2693 146.468 37.1967 146.468 37.121V34.0765C146.468 34.0014 146.498 33.9293 146.551 33.8759C146.603 33.8224 146.675 33.7919 146.75 33.791H146.768C146.812 33.7911 146.856 33.8021 146.896 33.8231C146.936 33.8441 146.969 33.8744 146.995 33.9114L148.027 35.3356L149.059 33.9114C149.084 33.8739 149.118 33.8433 149.159 33.8223C149.199 33.8013 149.244 33.7905 149.289 33.791C149.362 33.7961 149.431 33.8281 149.482 33.8809C149.532 33.9336 149.562 34.0033 149.564 34.0765Z" fill="white"/>
<path d="M150.813 37.1209V34.0765C150.813 34.0014 150.843 33.9293 150.895 33.8758C150.948 33.8224 151.02 33.7919 151.095 33.791C151.171 33.791 151.244 33.821 151.298 33.8744C151.352 33.9279 151.383 34.0005 151.384 34.0765V36.8285H152.784C152.86 36.8285 152.932 36.8586 152.986 36.9122C153.04 36.9657 153.07 37.0383 153.07 37.1141C153.07 37.1898 153.04 37.2624 152.986 37.3159C152.932 37.3695 152.86 37.3996 152.784 37.3996H151.095C151.021 37.3996 150.95 37.3703 150.897 37.3182C150.844 37.266 150.814 37.1952 150.813 37.1209Z" fill="white"/>
<path d="M108.391 54.4998H93.1139V61.3626H108.391V54.4998Z" fill="#455A64"/>
<path d="M97.6581 58.2392H97.0252V59.3572C97.0174 59.428 96.9838 59.4934 96.9308 59.5409C96.8778 59.5884 96.8091 59.6147 96.7379 59.6147C96.6667 59.6147 96.5981 59.5884 96.5451 59.5409C96.492 59.4934 96.4584 59.428 96.4507 59.3572V56.3128C96.4516 56.2377 96.4821 56.166 96.5355 56.1132C96.589 56.0604 96.6611 56.0308 96.7362 56.0308H97.6581C97.8031 56.0308 97.9467 56.0593 98.0807 56.1148C98.2147 56.1703 98.3364 56.2516 98.4389 56.3542C98.5415 56.4567 98.6228 56.5785 98.6783 56.7124C98.7338 56.8464 98.7624 56.99 98.7624 57.135C98.7624 57.28 98.7338 57.4236 98.6783 57.5576C98.6228 57.6915 98.5415 57.8133 98.4389 57.9158C98.3364 58.0184 98.2147 58.0997 98.0807 58.1552C97.9467 58.2107 97.8031 58.2392 97.6581 58.2392ZM97.0252 57.6648H97.6581C97.7315 57.6707 97.8053 57.6613 97.8749 57.6373C97.9445 57.6133 98.0084 57.5751 98.0625 57.5251C98.1166 57.4752 98.1598 57.4146 98.1893 57.3472C98.2189 57.2797 98.2341 57.2069 98.2341 57.1333C98.2341 57.0597 98.2189 56.9868 98.1893 56.9194C98.1598 56.8519 98.1166 56.7913 98.0625 56.7414C98.0084 56.6915 97.9445 56.6533 97.8749 56.6293C97.8053 56.6052 97.7315 56.5959 97.6581 56.6018H97.0252V57.6648Z" fill="white"/>
<path d="M99.4607 59.357V56.3126C99.4607 56.2369 99.4908 56.1643 99.5443 56.1107C99.5979 56.0572 99.6705 56.0271 99.7462 56.0271C99.8219 56.0271 99.8946 56.0572 99.9481 56.1107C100.002 56.1643 100.032 56.2369 100.032 56.3126V57.551H101.37V56.3126C101.369 56.2752 101.377 56.238 101.391 56.2033C101.405 56.1687 101.426 56.1372 101.453 56.1109C101.479 56.0845 101.511 56.0639 101.546 56.0501C101.581 56.0363 101.618 56.0296 101.655 56.0305C101.693 56.0301 101.73 56.037 101.765 56.051C101.8 56.0649 101.831 56.0855 101.858 56.1117C101.885 56.1379 101.907 56.1691 101.921 56.2036C101.936 56.2381 101.944 56.2751 101.944 56.3126V59.357C101.944 59.3948 101.937 59.4322 101.922 59.4671C101.908 59.502 101.886 59.5336 101.86 59.5601C101.833 59.5867 101.801 59.6077 101.766 59.6218C101.731 59.6359 101.693 59.643 101.655 59.6425C101.618 59.643 101.58 59.6359 101.546 59.6217C101.511 59.6076 101.479 59.5865 101.452 59.5599C101.426 59.5333 101.405 59.5017 101.391 59.4668C101.377 59.432 101.369 59.3946 101.37 59.357V58.1358H100.032V59.3742C100.032 59.4499 100.002 59.5226 99.9481 59.5761C99.8946 59.6297 99.8219 59.6597 99.7462 59.6597C99.6705 59.6597 99.5979 59.6297 99.5443 59.5761C99.4908 59.5226 99.4607 59.4499 99.4607 59.3742V59.357Z" fill="white"/>
<path d="M104.328 58.2392H103.692V59.3572C103.691 59.4333 103.66 59.5059 103.606 59.5593C103.552 59.6128 103.479 59.6428 103.403 59.6428C103.328 59.6419 103.256 59.6114 103.203 59.5579C103.15 59.5045 103.121 59.4324 103.121 59.3572V56.3128C103.121 56.238 103.151 56.1663 103.203 56.1134C103.256 56.0605 103.328 56.0308 103.403 56.0308H104.328C104.473 56.0308 104.617 56.0593 104.751 56.1148C104.885 56.1703 105.007 56.2516 105.109 56.3542C105.212 56.4567 105.293 56.5785 105.348 56.7124C105.404 56.8464 105.433 56.99 105.433 57.135C105.433 57.28 105.404 57.4236 105.348 57.5576C105.293 57.6915 105.212 57.8133 105.109 57.9158C105.007 58.0184 104.885 58.0997 104.751 58.1552C104.617 58.2107 104.473 58.2392 104.328 58.2392ZM103.692 57.6648H104.328C104.402 57.6707 104.476 57.6613 104.545 57.6373C104.615 57.6133 104.679 57.5751 104.733 57.5251C104.787 57.4752 104.83 57.4146 104.86 57.3472C104.889 57.2797 104.904 57.2069 104.904 57.1333C104.904 57.0597 104.889 56.9868 104.86 56.9194C104.83 56.8519 104.787 56.7913 104.733 56.7414C104.679 56.6915 104.615 56.6533 104.545 56.6293C104.476 56.6052 104.402 56.5959 104.328 56.6018H103.692V57.6648Z" fill="white"/>
<path d="M88.58 111.604L89.4675 116.939L95.4944 149.485H96.4679L92.0853 116.939L91.4352 111.604H88.58Z" fill="#A6A6A6"/>
<path d="M91.4352 111.604H88.58L89.4675 116.939H92.0853L91.4352 111.604Z" fill="#263238"/>
<path d="M69.6531 149.485H70.6266L76.65 116.939L77.541 111.604H74.6824L74.0356 116.939L69.6531 149.485Z" fill="#A6A6A6"/>
<path d="M74.6824 111.604L74.0356 116.939H76.65L77.541 111.604H74.6824Z" fill="#263238"/>
<path d="M51.5793 149.485H52.5494L58.5763 116.939L59.4638 111.604H56.6086L55.9619 116.939L51.5793 149.485Z" fill="#A6A6A6"/>
<path d="M55.9619 116.939H58.5763L59.4638 111.604H56.6086L55.9619 116.939Z" fill="#263238"/>
<path d="M53.1171 114.112H97.2798V109.457H80.7471L75.1915 70.2517H54.8027L53.1171 114.112Z" fill="#A6A6A6"/>
<path d="M53.1171 114.112H55.5251L57.0937 70.2517H54.8027L53.1171 114.112Z" fill="#DBDBDB"/>
<path d="M82.0819 73.3441L81.2288 73.2547C81.2528 72.1573 80.7334 70.4201 80.8228 71.2767C80.8672 71.9211 80.8384 72.5686 80.7368 73.2065L67.713 71.8718C67.713 70.2137 68.7209 67.5924 68.7209 67.5924C67.7474 68.8652 67.228 70.7538 67.0009 71.7996L65.6249 71.6585C65.5871 70.6644 66.1031 69.0269 66.1031 69.0269C65.6628 69.6496 65.3119 70.8604 65.1296 71.6104L63.5781 71.4487C63.799 69.3935 64.6387 67.4537 65.9861 65.8862C67.1936 64.4242 67.7061 63.1548 67.9125 59.7596C68.1464 55.6832 70.9879 54.5514 71.4282 54.1008C75.3188 50.1069 81.7276 54.1386 81.0877 59.2023C80.6061 63.0138 80.1589 63.4266 81.5624 67.0352C82.622 69.7459 82.0819 73.3441 82.0819 73.3441Z" fill="#263238"/>
<path d="M73.5506 71.6517C75.5217 78.8344 77.1661 84.4003 79.2232 85.7557C80.8847 86.8462 83.217 87.6133 85.6147 88.1637C88.1795 88.7013 90.7764 89.0725 93.3891 89.2748C94.1941 89.3402 94.8649 89.3815 95.3396 89.4159C96.5161 89.4915 98.4356 81.724 97.61 80.778C97.4173 80.5613 96.6433 80.3927 95.546 80.2551C91.8858 79.7976 84.6756 79.6875 84.2456 79.2782C83.8156 78.8688 81.4936 75.7763 78.3288 71.7343C76.1547 68.941 74.3728 68.1188 73.6435 68.8928C73.2445 69.3159 73.1722 70.2654 73.5506 71.6517Z" fill="#EB9481"/>
<path d="M92.9798 88.6142C94.1164 89.1204 95.2851 89.5513 96.4782 89.9042C97.4311 90.1416 100.187 90.7539 100.551 89.7322C100.802 89.0442 99.2234 88.4835 98.1157 88.0707C97.5343 87.854 96.8016 87.2761 96.9598 86.9011C97.2316 86.2441 98.7349 86.8392 99.729 87.3689C101.649 88.4009 104.229 90.2654 105.343 89.2713C105.763 88.8929 105.233 88.2565 104.473 87.6373C105.697 88.3459 106.998 88.9135 107.479 88.5145C107.605 88.4119 107.686 88.2653 107.706 88.1047C107.727 87.9441 107.685 87.7817 107.589 87.651C107.743 87.7167 107.912 87.7347 108.076 87.7028C108.24 87.6709 108.39 87.5906 108.508 87.4721C108.883 87.0525 108.67 86.4573 108.222 85.8553C108.295 85.8449 108.364 85.8174 108.424 85.7749C108.484 85.7324 108.533 85.6762 108.566 85.6111C109.344 84.3245 105.085 80.8673 103.647 80.5853C99.4126 79.7425 94.9612 80.2688 94.9612 80.2688C93.3616 81.6482 92.9763 88.6108 92.9798 88.6142Z" fill="#EB9481"/>
<path d="M99.0101 84.4724C100.017 84.5842 100.986 84.9179 101.848 85.4494C102.853 86.0858 103.664 86.9767 104.6 87.7026C104.628 87.7232 104.6 87.7611 104.569 87.7404C104.129 87.362 103.647 87.0283 103.193 86.6671C102.739 86.3059 102.313 85.9482 101.845 85.6351C100.998 85.0457 100.029 84.6563 99.0101 84.4965C99.0101 84.4965 98.9964 84.4724 99.0101 84.4724Z" fill="#263238"/>
<path d="M99.7256 82.6631C100.856 82.8874 101.962 83.2251 103.025 83.671C104.167 84.2008 105.089 85.102 105.973 85.9655C106.509 86.4838 107.036 87.0147 107.552 87.5582C107.572 87.5788 107.552 87.6167 107.517 87.596C106.6 86.7016 105.664 85.8359 104.71 84.9988C103.824 84.2168 102.792 83.6182 101.673 83.2376C101.033 83.0174 100.376 82.8523 99.7221 82.6837C99.7084 82.6803 99.7118 82.6631 99.7256 82.6631Z" fill="#263238"/>
<path d="M100.847 81.0635C101.927 81.2424 102.87 81.4075 103.84 81.9372C104.93 82.607 105.933 83.4089 106.826 84.3246C107.314 84.8096 107.786 85.3119 108.25 85.8176C108.271 85.8382 108.233 85.8726 108.216 85.852C107.154 84.7407 106.021 83.6996 104.824 82.7353C104.262 82.2659 103.631 81.8874 102.952 81.6139C102.266 81.3724 101.561 81.1906 100.844 81.0704C100.844 81.0704 100.84 81.0635 100.847 81.0635Z" fill="#263238"/>
<path d="M73.5507 71.6517C75.5218 78.8344 77.1661 84.4003 79.2232 85.7557C80.8848 86.8461 83.2171 87.6133 85.6148 88.1637L73.6539 68.8997C73.2445 69.3159 73.1723 70.2653 73.5507 71.6517Z" fill="#263238"/>
<path d="M72.928 70.4408C73.1344 72.6287 74.5689 76.392 74.5689 76.392L82.161 75.7488C82.161 75.7488 79.2267 71.4488 76.172 69.0029C75.8856 68.7709 75.5698 68.5777 75.2328 68.4284C73.9016 67.8574 72.7354 68.3906 72.928 70.4408Z" fill="#4D9282"/>
<path d="M72.928 70.4409C72.928 70.5544 72.952 70.6748 72.9727 70.7849C72.9933 70.8949 73.0071 70.9741 73.0277 71.0738C73.401 72.8809 73.9163 74.6557 74.5688 76.3817L74.8715 76.3577L75.1674 76.3336L77.5548 76.1306L77.8988 76.0997L80.2758 75.8967L80.582 75.8726L81.4557 75.7969L75.2328 68.4285C73.9015 67.8574 72.7181 68.3941 72.928 70.4409Z" fill="#263238"/>
<path d="M128.047 149.468C127.228 149.74 103.193 149.54 102.306 148.966C102.199 148.904 102.171 146.73 102.182 143.754V143.696C102.156 141.595 102.018 139.497 101.769 137.411L101.728 137.067C101.095 131.518 100.008 126.124 100.008 126.124L115.051 126.069L117.115 137.077L117.153 137.421L117.576 141.521C117.576 141.521 120.816 142.897 123.637 144.249C125.378 145.082 126.888 145.842 127.235 146.121C128.154 146.847 128.866 149.203 128.047 149.468Z" fill="#EB9481"/>
<path d="M128.047 149.468C127.228 149.74 103.193 149.54 102.306 148.966C102.199 148.904 102.171 146.73 102.182 143.754V143.696C102.156 141.595 102.018 139.497 101.769 137.411L101.728 137.067H117.125L117.163 137.411L117.586 141.511C117.586 141.511 120.827 142.887 123.647 144.239C125.388 145.072 126.898 145.832 127.246 146.11C128.154 146.847 128.866 149.203 128.047 149.468Z" fill="#EBEBEB"/>
<path d="M128.147 149.561C127.304 149.833 103.238 149.561 102.326 148.983C101.982 148.763 101.659 145.048 102.03 140.947L117.545 141.133C117.545 141.133 126.417 145.354 127.349 146.107C128.281 146.86 129 149.296 128.147 149.561Z" fill="#4D9282"/>
<path d="M127.813 148.608C123.778 148.463 107.5 148.264 103.503 148.436C103.468 148.436 103.468 148.46 103.503 148.46C107.497 148.69 123.778 148.752 127.81 148.673C127.896 148.656 127.896 148.608 127.813 148.608Z" fill="#263238"/>
<path d="M125.808 145.223C125.362 145.208 124.918 145.286 124.503 145.451C124.089 145.616 123.713 145.865 123.4 146.183C122.826 146.752 122.494 147.521 122.474 148.329C122.474 148.353 122.519 148.353 122.523 148.329C122.668 147.532 123.068 146.803 123.663 146.252C124.258 145.701 125.015 145.358 125.821 145.275C125.827 145.272 125.831 145.267 125.833 145.261C125.836 145.256 125.836 145.249 125.835 145.243C125.833 145.237 125.83 145.232 125.825 145.228C125.82 145.225 125.814 145.223 125.808 145.223Z" fill="#263238"/>
<path d="M118.807 141.549C117.194 141.511 115.316 142.062 114.297 143.369C114.26 143.42 114.332 143.475 114.38 143.451C115.8 142.726 117.293 142.155 118.835 141.749C118.857 141.74 118.875 141.725 118.887 141.705C118.899 141.685 118.904 141.661 118.901 141.638C118.898 141.615 118.887 141.593 118.87 141.577C118.853 141.561 118.831 141.551 118.807 141.549Z" fill="#263238"/>
<path d="M120.056 142.051C118.443 142.01 116.564 142.56 115.546 143.871C115.505 143.919 115.581 143.974 115.629 143.95C117.048 143.226 118.54 142.656 120.08 142.247C120.103 142.241 120.123 142.227 120.137 142.207C120.15 142.187 120.156 142.163 120.153 142.139C120.15 142.115 120.139 142.093 120.121 142.077C120.103 142.061 120.08 142.052 120.056 142.051Z" fill="#263238"/>
<path d="M121.291 142.55C119.674 142.509 117.796 143.059 116.781 144.37C116.74 144.418 116.812 144.476 116.86 144.452C118.285 143.725 119.785 143.154 121.332 142.75C121.355 142.741 121.374 142.724 121.386 142.703C121.398 142.681 121.402 142.656 121.397 142.632C121.392 142.608 121.378 142.587 121.359 142.572C121.34 142.557 121.316 142.549 121.291 142.55Z" fill="#263238"/>
<path d="M122.533 143.049C120.916 143.008 119.038 143.558 118.023 144.869C117.982 144.92 118.054 144.975 118.102 144.951C119.521 144.225 121.015 143.654 122.557 143.248C122.579 143.24 122.597 143.225 122.609 143.205C122.622 143.185 122.627 143.162 122.624 143.139C122.621 143.116 122.611 143.094 122.594 143.078C122.578 143.062 122.556 143.051 122.533 143.049Z" fill="#263238"/>
<path d="M104.576 144.6C102.767 144.6 102.739 147.404 104.555 147.418C106.372 147.431 106.385 144.618 104.576 144.6Z" fill="#263238"/>
<path d="M120.6 137.256C119.788 136.568 118.752 137.221 118.24 137.92C117.381 139.138 116.86 140.563 116.73 142.048C116.729 142.054 116.73 142.06 116.732 142.066C116.734 142.072 116.738 142.078 116.743 142.082C116.747 142.086 116.753 142.09 116.759 142.091C116.765 142.093 116.771 142.094 116.778 142.092C116.784 142.123 116.797 142.152 116.816 142.176C116.835 142.201 116.86 142.221 116.888 142.234C116.916 142.247 116.947 142.253 116.978 142.252C117.009 142.251 117.04 142.242 117.067 142.227C118.226 141.446 119.561 140.751 120.445 139.636C120.961 138.976 121.367 137.909 120.6 137.256ZM118.58 140.668C118.02 141.067 117.445 141.435 116.898 141.855C117.197 141.054 117.455 140.242 117.834 139.471C118.01 139.097 118.211 138.735 118.436 138.388C118.78 137.858 120.393 136.527 120.534 138.284C120.613 139.258 119.248 140.197 118.58 140.672V140.668Z" fill="#263238"/>
<path d="M112.712 142.591C114.115 142.822 115.57 142.44 116.953 142.247C116.983 142.24 117.011 142.225 117.035 142.205C117.059 142.185 117.078 142.159 117.09 142.131C117.102 142.102 117.107 142.071 117.105 142.04C117.102 142.008 117.093 141.978 117.077 141.951C117.082 141.948 117.086 141.943 117.089 141.937C117.092 141.931 117.093 141.925 117.093 141.919C117.093 141.912 117.092 141.906 117.089 141.901C117.086 141.895 117.082 141.89 117.077 141.886C115.981 140.881 114.641 140.181 113.19 139.857C112.343 139.685 111.126 139.898 110.998 140.954C110.875 141.941 111.893 142.457 112.712 142.591ZM111.745 141.663C110.668 140.266 112.749 140.176 113.369 140.328C113.768 140.435 114.16 140.568 114.542 140.727C115.34 141.043 116.076 141.466 116.836 141.859C116.148 141.917 115.477 142.031 114.793 142.113C113.977 142.209 112.34 142.433 111.745 141.663Z" fill="#263238"/>
<path d="M118.374 135.88L100.93 135.804C100.93 135.804 94.8855 112.543 93.4683 110.916C90.8435 107.902 69.9799 109.361 64.3143 103.11C58.8103 97.056 64.3143 86.0962 64.3143 86.0962H79.7633C79.948 88.0717 80.242 90.0356 80.6439 91.9786C80.6439 91.9786 100.083 95.0746 105.856 101.057C110.262 105.608 118.374 135.88 118.374 135.88Z" fill="#37474F"/>
<path d="M117.173 133.128C116.097 133.042 115.027 132.932 113.95 132.887C112.873 132.842 111.79 132.822 110.709 132.804C108.563 132.77 106.418 132.77 104.273 132.804C103.062 132.829 101.865 132.88 100.637 132.887C100.606 132.887 100.613 132.942 100.637 132.942C102.815 132.942 104.999 133.028 107.173 133.083C109.347 133.138 111.435 133.207 113.568 133.241C114.769 133.259 115.976 133.224 117.163 133.214C117.225 133.228 117.225 133.128 117.173 133.128Z" fill="#263238"/>
<path d="M98.5078 118.401C97.8198 116.163 97.071 113.943 96.2615 111.741C95.9175 110.802 95.6354 109.729 94.9612 108.962C94.2869 108.195 93.3065 107.964 92.3743 107.761C87.9023 106.774 83.334 106.385 78.831 105.604C76.5999 105.238 74.3974 104.715 72.24 104.039C71.1819 103.718 70.1586 103.291 69.1852 102.766C68.3061 102.268 67.5204 101.621 66.8632 100.854C65.6329 99.3568 64.8379 97.5503 64.5653 95.6318C64.272 93.3617 64.4775 91.0549 65.1673 88.8722C65.3256 88.339 65.5113 87.8093 65.7074 87.2898C65.7074 87.2589 65.6696 87.2451 65.6558 87.2898C64.1491 91.208 63.5299 95.7316 65.6558 99.55C66.1116 100.375 66.6918 101.124 67.3758 101.772C68.1292 102.469 68.9914 103.039 69.9283 103.458C71.9407 104.397 74.156 104.954 76.3198 105.422C80.7918 106.385 85.3842 106.767 89.8975 107.569C90.9977 107.743 92.0885 107.972 93.1655 108.257C93.6757 108.378 94.152 108.613 94.5587 108.945C94.9379 109.31 95.2305 109.755 95.4152 110.248C95.8556 111.298 96.2064 112.392 96.5814 113.468C96.9564 114.545 97.352 115.697 97.7166 116.815C99.1752 121.299 100.459 125.833 101.569 130.417L101.972 132.092C101.972 132.147 102.065 132.123 102.054 132.068C101.106 127.455 99.9221 122.894 98.5078 118.401Z" fill="#263238"/>
<path d="M101.79 153.527C100.943 153.702 77.1042 150.655 76.2889 149.98C76.1926 149.905 76.4471 147.748 76.7843 144.789C76.9803 143.069 77.3725 140.913 77.8163 138.718C79.0443 132.887 80.785 126.678 80.785 126.678L96.4129 129.285L93.2515 140.39L92.1679 144.174C92.1679 144.174 95.3809 146.117 98.0159 147.799C99.6431 148.831 101.057 149.767 101.367 150.084C102.209 150.937 102.636 153.358 101.79 153.527Z" fill="#EB9481"/>
<path d="M101.79 153.527C100.943 153.703 77.1042 150.655 76.2889 149.98C76.1926 149.905 76.4471 147.748 76.7843 144.789C76.9803 143.069 77.3725 140.913 77.8163 138.718L93.2515 140.386L92.1679 144.17C92.1679 144.17 95.3809 146.114 98.0159 147.796C99.6431 148.828 101.057 149.764 101.367 150.08C102.209 150.937 102.636 153.359 101.79 153.527Z" fill="#EBEBEB"/>
<path d="M101.889 153.61C101.019 153.785 77.142 150.768 76.3027 150.077C75.9862 149.815 76.3405 146.117 77.1799 142.089L92.2299 144.026C92.2299 144.026 100.651 149.234 101.48 150.087C102.309 150.94 102.756 153.424 101.889 153.61Z" fill="#4D9282"/>
<path d="M101.666 152.612C97.6754 152.007 81.5246 149.95 77.5342 149.654C77.5032 149.654 77.4998 149.674 77.5342 149.681C81.473 150.369 97.641 152.292 101.659 152.677C101.741 152.684 101.752 152.626 101.666 152.612Z" fill="#263238"/>
<path d="M100.063 149.034C99.6183 148.968 99.1647 148.994 98.7311 149.113C98.2975 149.231 97.8934 149.439 97.5447 149.722C96.9116 150.223 96.4942 150.947 96.3785 151.745C96.3785 151.769 96.4233 151.776 96.4301 151.745C96.6655 150.97 97.1462 150.291 97.8 149.813C98.4539 149.334 99.2455 149.08 100.056 149.089C100.063 149.09 100.071 149.088 100.076 149.084C100.082 149.079 100.086 149.073 100.087 149.065C100.088 149.058 100.086 149.051 100.081 149.045C100.077 149.039 100.07 149.035 100.063 149.034Z" fill="#263238"/>
<path d="M93.5302 144.583C91.9306 144.36 90.0007 144.69 88.8414 145.873C88.7933 145.921 88.8621 145.983 88.9102 145.966C90.4039 145.409 91.9526 145.012 93.5302 144.783C93.5566 144.783 93.582 144.772 93.6007 144.753C93.6194 144.735 93.6299 144.709 93.6299 144.683C93.6299 144.656 93.6194 144.631 93.6007 144.612C93.582 144.594 93.5566 144.583 93.5302 144.583Z" fill="#263238"/>
<path d="M94.7032 145.223C93.1071 144.996 91.1773 145.33 90.0145 146.513C89.9698 146.558 90.0352 146.623 90.0868 146.602C91.5801 146.045 93.1289 145.649 94.7067 145.422C94.7331 145.422 94.7583 145.411 94.7767 145.392C94.7951 145.373 94.8052 145.347 94.8047 145.321C94.8043 145.295 94.7933 145.269 94.7743 145.251C94.7553 145.233 94.7297 145.223 94.7032 145.223Z" fill="#263238"/>
<path d="M95.8796 145.856C94.28 145.632 92.3536 145.963 91.1909 147.146C91.1462 147.194 91.2116 147.256 91.2632 147.239C92.7564 146.681 94.3052 146.285 95.8831 146.059C95.9067 146.054 95.928 146.041 95.9431 146.022C95.9582 146.004 95.9663 145.98 95.9659 145.956C95.9655 145.932 95.9566 145.909 95.9409 145.89C95.9251 145.872 95.9034 145.86 95.8796 145.856Z" fill="#263238"/>
<path d="M97.0562 146.499C95.4566 146.272 93.5302 146.606 92.3674 147.789C92.3227 147.834 92.3881 147.899 92.4397 147.879C93.9329 147.321 95.4818 146.925 97.0596 146.699C97.086 146.698 97.1112 146.687 97.1296 146.668C97.148 146.649 97.1581 146.624 97.1576 146.597C97.1572 146.571 97.1462 146.546 97.1272 146.527C97.1082 146.509 97.0826 146.499 97.0562 146.499Z" fill="#263238"/>
<path d="M79.034 145.983C77.2383 145.76 76.8909 148.553 78.69 148.776C80.4891 149 80.84 146.2 79.034 145.983Z" fill="#263238"/>
<path d="M95.8005 140.527C95.0747 139.753 93.9704 140.28 93.3925 140.916C92.3998 142.022 91.7154 143.37 91.4076 144.824C91.4059 144.83 91.4058 144.837 91.4073 144.844C91.4088 144.85 91.4119 144.856 91.4163 144.861C91.4207 144.867 91.4263 144.871 91.4326 144.873C91.4389 144.875 91.4457 144.876 91.4524 144.875C91.455 144.906 91.4649 144.936 91.4811 144.963C91.4974 144.989 91.5196 145.012 91.546 145.028C91.5724 145.044 91.6022 145.054 91.6331 145.057C91.6641 145.06 91.6952 145.055 91.7241 145.044C92.966 144.397 94.3695 143.861 95.3774 142.856C95.976 142.271 96.4885 141.26 95.8005 140.527ZM93.3925 143.685C92.7871 144.029 92.1748 144.315 91.5831 144.669C91.9718 143.909 92.3227 143.135 92.7871 142.409C93.0035 142.057 93.245 141.722 93.5095 141.404C93.9223 140.919 95.6629 139.777 95.6044 141.542C95.5838 142.512 94.1218 143.286 93.4063 143.685H93.3925Z" fill="#263238"/>
<path d="M87.3519 144.92C88.7279 145.309 90.2106 145.096 91.6072 145.054C91.638 145.051 91.6676 145.041 91.6936 145.024C91.7195 145.007 91.7411 144.984 91.7565 144.957C91.772 144.93 91.7808 144.9 91.7824 144.869C91.7839 144.838 91.7781 144.807 91.7655 144.779C91.7705 144.775 91.7746 144.77 91.7774 144.764C91.7802 144.758 91.7816 144.751 91.7816 144.745C91.7816 144.738 91.7802 144.732 91.7774 144.726C91.7746 144.72 91.7705 144.715 91.7655 144.71C90.7934 143.587 89.543 142.739 88.1397 142.251C87.3175 141.982 86.0963 142.058 85.8383 143.087C85.5803 144.115 86.5539 144.69 87.3519 144.92ZM86.5023 143.888C85.5907 142.378 87.6684 142.512 88.267 142.75C88.6511 142.901 89.0246 143.078 89.385 143.279C90.1244 143.701 90.842 144.161 91.535 144.655C90.847 144.631 90.159 144.655 89.471 144.655C88.6557 144.686 87.0045 144.717 86.5023 143.885V143.888Z" fill="#263238"/>
<path d="M97.1456 139.726L78.1224 137.411C78.1224 137.411 84.7513 111.225 84.452 110.833C83.4028 109.478 67.3518 110.025 61.8787 104.583C56.0823 98.8208 61.6448 86.0825 61.6448 86.0825L76.0928 86.1376C76.0928 86.1376 76.1891 91.848 76.8393 92.3846C77.2693 92.7286 97.2282 96.1101 100.476 100.348C105.426 106.822 97.1456 139.726 97.1456 139.726Z" fill="#37474F"/>
<path d="M101.824 102.684C101.553 101.96 101.165 101.286 100.675 100.689C100.125 100.049 99.4783 99.499 98.759 99.0581C97.2396 98.1386 95.6362 97.3657 93.9705 96.7498C92.2715 96.0761 90.5375 95.4939 88.7761 95.0057C86.9908 94.5035 85.1813 94.0804 83.3684 93.6917C81.5556 93.3029 79.7427 93.0037 77.9264 92.6597L77.0698 92.5014C78.0055 92.1299 78.9343 91.7377 79.87 91.3525C79.8792 91.3469 79.8864 91.3385 79.8902 91.3284C79.8941 91.3183 79.8945 91.3073 79.8913 91.2969C79.8882 91.2866 79.8816 91.2777 79.8727 91.2715C79.8639 91.2654 79.8532 91.2624 79.8424 91.263C77.9517 91.6232 76.1475 92.3425 74.5276 93.3821C74.5036 93.3821 74.5276 93.4406 74.5483 93.4302C75.3601 93.1654 76.1582 92.8626 76.9563 92.5496C78.604 92.8936 80.2415 93.2617 81.8824 93.6263C83.6574 94.0219 85.4256 94.4416 87.1731 94.937C90.6406 95.9208 94.0875 97.0766 97.2936 98.7416C98.7452 99.495 100.118 100.438 100.933 101.896C101.69 103.248 101.917 104.83 101.965 106.368C101.966 108.092 101.869 109.815 101.673 111.528C101.498 113.468 101.294 115.405 101.06 117.338C100.823 119.272 99.4642 129.406 99.3094 129.839C99.2888 129.898 99.3885 129.939 99.416 129.88C99.6156 129.468 101.965 114.827 102.141 112.859C102.302 111.046 102.485 109.223 102.505 107.404C102.581 105.801 102.35 104.199 101.824 102.684Z" fill="#263238"/>
<path d="M86.578 108.728C86.0729 108.593 85.5574 108.501 85.0368 108.453L83.3168 108.181L79.894 107.637C77.7028 107.293 75.5046 106.97 73.3202 106.585C69.5947 105.924 65.5458 104.724 63.4027 101.335C62.9073 100.555 62.5674 99.6856 62.4016 98.776C62.2336 97.6604 62.1565 96.5329 62.1712 95.4048C62.1359 93.1321 62.282 90.8603 62.608 88.6108C62.6872 88.057 62.7869 87.51 62.8936 86.9631C62.8936 86.9287 62.8488 86.9149 62.842 86.9631C62.4111 89.1569 62.1409 91.3794 62.0336 93.6126C61.9854 94.7271 61.9854 95.8417 62.0336 96.9563C62.0331 97.9817 62.1886 99.0013 62.4945 99.98C63.7192 103.513 67.3105 105.422 70.7196 106.296C72.8214 106.836 74.9852 107.111 77.1283 107.445L83.881 108.504L85.5666 108.769C86.0207 108.841 86.8428 108.824 86.9426 109.409C86.9645 109.647 86.9411 109.888 86.8738 110.118C86.8084 110.414 86.7465 110.706 86.6812 111.002L86.3096 112.722C85.8234 114.958 85.3453 117.195 84.8752 119.433C83.9154 123.94 83.0141 128.46 82.0819 132.973L81.7379 134.652C81.7379 134.679 81.7757 134.693 81.7826 134.652C82.7699 130.156 83.7778 125.66 84.7548 121.16C85.2501 118.894 85.734 116.626 86.2064 114.356C86.4438 113.234 86.6777 112.116 86.8944 110.995C87.037 110.514 87.1258 110.019 87.1593 109.519C87.161 109.342 87.1052 109.169 87.0004 109.027C86.8956 108.884 86.7474 108.779 86.578 108.728Z" fill="#263238"/>
<path d="M96.7397 137.387C95.6286 137.153 94.5209 136.895 93.3995 136.699C92.278 136.502 91.1497 136.33 90.0214 136.165C87.7831 135.833 85.5368 135.538 83.2824 135.281C82.0131 135.133 80.7368 135.016 79.4675 134.858C79.4331 134.858 79.4331 134.906 79.4675 134.91C81.7482 135.199 84.0186 135.598 86.289 135.959C88.5594 136.32 90.7334 136.674 92.9626 136.991C94.2147 137.177 95.4703 137.307 96.7259 137.466C96.781 137.49 96.7913 137.4 96.7397 137.387Z" fill="#263238"/>
<path d="M80.699 89.2576C79.6973 89.4559 78.6856 89.5994 77.6683 89.6876C76.0687 89.8458 73.8362 89.9903 70.9535 89.9868H70.7195H69.6015C66.9355 89.9421 63.7811 89.7804 60.1312 89.4124C60.1312 89.4124 64.3555 73.8464 68.6693 68.7724C68.7656 68.6554 68.8654 68.5453 68.9651 68.4284L69.0236 68.3664C69.3581 68.0102 69.7471 67.7095 70.176 67.4755C70.2517 67.4342 70.3274 67.3964 70.4065 67.362C72.068 66.5983 73.8224 67.2312 75.0883 68.3148C75.4908 68.6588 80.0385 74.5756 80.441 76.8323C80.785 78.824 79.4434 80.9603 79.4434 80.9603L80.699 89.2576Z" fill="#4D9282"/>
<path d="M70.9535 89.9869H70.7195H69.6015C66.9355 89.9422 63.7811 89.7805 60.1312 89.4125C60.1312 89.4125 64.3555 73.8465 68.6693 68.7725C68.7656 68.6555 68.8654 68.5454 68.9651 68.4285L69.0236 68.3665C69.3581 68.0103 69.7471 67.7096 70.176 67.4756C70.2517 67.4343 70.3274 67.3965 70.4065 67.3621L70.9535 89.9869Z" fill="#263238"/>
<path d="M67.4516 70.2067C63.64 76.0238 59.1474 85.9998 61.92 87.7198C66.4574 90.5371 78.6694 90.8949 81.4558 90.8639C82.6598 90.8639 84.0117 82.7971 83.0863 81.8993C82.161 81.0014 69.4296 81.9646 69.2369 81.2113C69.1303 80.7778 70.1382 76.7771 70.7539 71.9233C71.4523 66.292 68.5317 68.5624 67.4516 70.2067Z" fill="#EB9481"/>
<path d="M80.9225 81.5279C80.9225 81.5279 84.5448 81.0222 86.9322 80.802C88.2635 80.6816 90.5648 80.6748 91.5831 81.0291C93.107 81.5657 99.1511 84.7718 98.3943 86.2544C97.7063 87.5926 92.8903 84.1904 92.8903 84.1904C92.8903 84.1904 98.0709 87.2073 96.9598 88.6624C95.8487 90.1176 90.902 85.5424 90.902 85.5424C90.902 85.5424 96.1583 88.7588 94.7754 90.0866C93.7434 91.0876 89.0134 87.1901 89.0134 87.1901C89.0134 87.1901 93.5095 89.9868 92.4809 91.0636C91.3423 92.2572 86.7636 88.9308 86.7636 88.9308C83.6676 91.2287 81.2596 91.0636 79.574 90.7436C79.1578 90.6542 80.9225 81.5279 80.9225 81.5279Z" fill="#EB9481"/>
<path d="M91.16 83.0173C91.7826 83.3613 92.4121 83.6812 93.0038 84.0493C93.5955 84.4174 94.17 84.8439 94.7238 85.2808C95.4559 85.841 96.1208 86.4839 96.7052 87.1969C95.5735 86.0101 93.4854 84.5928 92.8937 84.2075C92.302 83.8222 91.7379 83.406 91.1462 83.0207C91.129 83.0276 91.16 83.0104 91.16 83.0173Z" fill="#263238"/>
<path d="M89.7256 85.1227C90.503 85.5802 91.2873 86.0068 92.0441 86.4987C92.8009 86.9906 93.8261 87.713 94.5416 88.2531C94.5966 88.2944 94.5588 88.3907 94.5037 88.3528C93.7676 87.8403 92.6806 87.1523 91.9375 86.65C91.1945 86.1478 90.4721 85.618 89.7153 85.1399C89.7015 85.133 89.7153 85.1158 89.7256 85.1227Z" fill="#263238"/>
<path d="M88.1706 86.7085C89.3771 87.3833 90.5113 88.1798 91.5556 89.0856C91.6072 89.1269 91.5556 89.1441 91.4971 89.0856C90.386 88.2737 89.5225 87.627 88.15 86.7326C88.1293 86.7361 88.1465 86.6879 88.1706 86.7085Z" fill="#263238"/>
<path d="M80.8984 81.4796C82.5496 81.2491 86.9116 80.5955 88.5765 80.5026C89.9702 80.375 91.3726 80.6257 92.6357 81.2285C94.6097 82.1747 96.41 83.447 97.9608 84.9918C98.2636 85.3358 98.7142 85.8622 98.4287 86.3162C98.0847 86.8701 96.4885 86.5846 94.6894 85.3427C94.624 85.298 94.655 85.2602 94.7204 85.298C97.2212 86.8322 98.095 86.502 98.2876 86.158C98.4149 85.9344 98.2223 85.6042 98.0503 85.353C97.7782 84.9944 97.4614 84.6719 97.1077 84.3933C95.9251 83.4183 94.647 82.5655 93.2928 81.8477C91.8305 81.0307 90.1665 80.6454 88.494 80.7366C86.774 80.8191 82.6081 81.483 80.8984 81.5415C80.864 81.545 80.8606 81.483 80.8984 81.4796Z" fill="#263238"/>
<path d="M97.1318 87.8883C96.9285 87.4559 96.6435 87.0669 96.2924 86.7428C95.9174 86.3144 95.5002 85.9249 95.0472 85.5801C95.0265 85.5801 94.999 85.5801 95.0196 85.611C95.4133 85.9646 95.7855 86.3414 96.1342 86.7394C96.3198 86.9582 96.4921 87.1879 96.6502 87.4274C96.8355 87.6495 96.9431 87.9261 96.9564 88.2151C96.9082 88.769 96.2236 88.8446 95.8005 88.7552C95.5259 88.6897 95.2577 88.5999 94.999 88.4869C94.6409 88.3219 94.2959 88.1298 93.967 87.9124C93.9395 87.8918 93.8776 87.9124 93.9051 87.9296C94.5931 88.425 95.8831 89.4673 96.7568 88.9066C96.9283 88.8072 97.0596 88.651 97.128 88.4651C97.1965 88.2792 97.1978 88.0751 97.1318 87.8883Z" fill="#263238"/>
<path d="M62.2296 76.557L70.2689 76.471L71.0842 70.4957C71.4557 67.7437 71.2459 66.0065 68.0157 69.0372C65.7763 71.139 62.2296 76.557 62.2296 76.557Z" fill="#4D9282"/>
<path d="M71.7206 67.0316C70.145 67.4823 70.3033 69.2539 70.8915 70.4991C71.4798 71.7444 72.6356 73.1858 73.4784 73.1445C74.3212 73.1032 74.4794 70.9842 74.4794 70.9842C74.4794 70.9842 75.68 72.2983 76.3095 71.8407C76.939 71.3832 75.6766 68.9649 74.7787 68.215C73.4784 67.1245 72.553 66.7908 71.7206 67.0316Z" fill="white"/>
<path d="M70.864 68.0327C70.9328 68.4111 72.615 70.9223 74.3281 70.9189C74.8888 70.9189 75.0161 67.8641 75.0161 67.8641L75.0746 67.6405L75.9208 64.517L72.3226 61.9749L71.7997 61.6309C71.7997 61.6309 71.6243 62.5012 71.4179 63.5882L71.3869 63.743C71.3869 63.8049 71.3628 63.86 71.3525 63.9185C71.3181 64.0801 71.2871 64.2625 71.2562 64.4104C71.2252 64.5583 71.2115 64.6581 71.1908 64.7922C71.1702 64.9264 71.1495 65.0537 71.1255 65.1878C70.9731 66.129 70.8858 67.0795 70.864 68.0327Z" fill="#EB9481"/>
<path d="M71.4075 63.5917C71.6862 64.4917 72.1578 65.3201 72.7893 66.0194C73.4208 66.7186 74.1971 67.2718 75.0642 67.6405L75.9104 64.517L72.3122 61.9749L71.7893 61.6309C71.7893 61.6309 71.6139 62.5046 71.4075 63.5917Z" fill="#263238"/>
<path d="M80.4341 59.6667C80.6956 65.3393 77.3381 66.1408 76.1032 66.2027C74.9921 66.2509 71.2046 66.2818 70.3549 60.6643C69.5053 55.0468 72.0749 53.1307 74.5965 52.883C77.118 52.6353 80.1693 54.0079 80.4341 59.6667Z" fill="#EB9481"/>
<path d="M79.5878 58.7241C79.4582 58.707 79.3296 58.6829 79.2025 58.6519C79.0625 58.6455 78.9285 58.5936 78.8207 58.504C78.7939 58.4682 78.7794 58.4248 78.7794 58.3801C78.7794 58.3355 78.7939 58.292 78.8207 58.2563C78.8836 58.1939 78.962 58.1492 79.0478 58.1268C79.1336 58.1045 79.2238 58.1052 79.3092 58.129C79.4912 58.1515 79.6587 58.2395 79.7805 58.3767C79.8061 58.4102 79.8214 58.4504 79.8245 58.4925C79.8276 58.5345 79.8183 58.5766 79.7979 58.6135C79.7774 58.6504 79.7467 58.6805 79.7094 58.7001C79.672 58.7198 79.6298 58.7281 79.5878 58.7241Z" fill="#263238"/>
<path d="M75.9517 58.8238C76.0805 58.8009 76.208 58.7711 76.3336 58.7344C76.4725 58.7202 76.603 58.661 76.7051 58.5658C76.7327 58.5311 76.7478 58.488 76.7478 58.4437C76.7478 58.3993 76.7327 58.3563 76.7051 58.3216C76.6394 58.2615 76.5589 58.2199 76.4719 58.2012C76.3848 58.1825 76.2944 58.1872 76.2097 58.2149C76.0295 58.2474 75.867 58.3439 75.7522 58.4867C75.7293 58.5207 75.7164 58.5605 75.7152 58.6015C75.714 58.6425 75.7244 58.6831 75.7453 58.7184C75.7662 58.7537 75.7967 58.7823 75.8332 58.801C75.8698 58.8197 75.9109 58.8276 75.9517 58.8238Z" fill="#263238"/>
<path d="M76.6639 60.1792C76.6639 60.162 76.6329 60.1964 76.6364 60.2136C76.6673 60.5989 76.6364 61.0461 76.2924 61.1906C76.2924 61.1906 76.2924 61.2147 76.2924 61.2112C76.712 61.1321 76.7533 60.5439 76.6639 60.1792Z" fill="#263238"/>
<path d="M76.2992 59.7905C75.6766 59.7733 75.6869 61.022 76.2648 61.0392C76.8428 61.0564 76.8221 59.8042 76.2992 59.7905Z" fill="#263238"/>
<path d="M76.055 59.8559C75.9449 59.9281 75.8417 60.052 75.711 60.0657C75.5803 60.0795 75.4427 59.9522 75.3429 59.8284H75.3223C75.3223 60.0692 75.4151 60.3134 75.6663 60.3478C75.9174 60.3822 76.0653 60.1655 76.1238 59.9247C76.1375 59.8972 76.0963 59.8318 76.055 59.8559Z" fill="#263238"/>
<path d="M78.776 60.0795C78.776 60.0623 78.807 60.0795 78.807 60.1139C78.807 60.4992 78.8448 60.9429 79.1957 61.0737V61.0943C78.776 61.0358 78.7038 60.4441 78.776 60.0795Z" fill="#263238"/>
<path d="M79.12 59.6735C79.7427 59.6253 79.7908 60.874 79.2163 60.9188C78.6419 60.9635 78.6006 59.7148 79.12 59.6735Z" fill="#263238"/>
<path d="M79.3849 59.7459C79.4846 59.8078 79.5878 59.9248 79.7048 59.9282C79.8218 59.9317 79.9387 59.7906 80.0213 59.6599C80.0385 59.9007 79.9697 60.1518 79.7426 60.2069C79.5156 60.2619 79.3746 60.059 79.3092 59.8216C79.3126 59.7906 79.3436 59.7218 79.3849 59.7459Z" fill="#263238"/>
<path d="M78.198 61.92C78.198 61.92 78.2875 62.4944 78.2944 62.7662C78.2944 62.7937 77.3071 63.0173 76.8599 62.3568C76.8567 62.3516 76.8553 62.3454 76.856 62.3392C76.8568 62.3331 76.8595 62.3274 76.8639 62.323C76.8683 62.3186 76.874 62.3159 76.8801 62.3151C76.8863 62.3144 76.8924 62.3158 76.8977 62.319C77.2504 62.5488 77.6679 62.6586 78.088 62.632C78.1052 62.5564 77.8988 61.6516 77.94 61.6482C78.1525 61.6614 78.3621 61.7042 78.5627 61.7755C78.4079 60.5715 78.0604 59.3984 77.9228 58.1979C77.9231 58.1899 77.9258 58.1823 77.9306 58.1759C77.9355 58.1696 77.9422 58.165 77.9498 58.1627C77.9574 58.1604 77.9655 58.1606 77.9731 58.1632C77.9806 58.1658 77.9871 58.1707 77.9916 58.1772C78.4053 59.4202 78.6923 60.7018 78.8482 62.0025C78.8723 62.1608 78.3081 61.9681 78.198 61.92Z" fill="#263238"/>
<path d="M78.4974 60.3167C78.4733 59.4258 78.9308 58.6896 79.5294 58.6724C80.1279 58.6552 80.6198 59.3604 80.6439 60.2548C80.668 61.1492 80.2105 61.8819 79.6119 61.8991C79.0134 61.9163 78.5249 61.2043 78.4974 60.3167ZM78.7141 60.3167C78.7382 61.0873 79.1372 61.6927 79.605 61.6927C80.0729 61.6927 80.441 61.0426 80.4169 60.272C80.3928 59.5015 79.9972 58.896 79.5259 58.896C79.0546 58.896 78.6935 59.5393 78.7141 60.3099V60.3167Z" fill="#37474F"/>
<path d="M74.4417 60.4304C74.4539 60.1366 74.5516 59.8528 74.7228 59.6137C74.894 59.3747 75.1313 59.1908 75.4055 59.0847C75.6798 58.9786 75.979 58.9548 76.2666 59.0164C76.5541 59.0779 76.8175 59.2221 77.0242 59.4311C77.231 59.6402 77.3723 59.9051 77.4306 60.1933C77.489 60.4815 77.462 60.7805 77.3528 61.0535C77.2437 61.3266 77.0572 61.5618 76.8163 61.7304C76.5754 61.899 76.2905 61.9936 75.9965 62.0025C75.582 61.9998 75.1855 61.8327 74.894 61.538C74.6025 61.2433 74.4398 60.845 74.4417 60.4304ZM74.6584 60.4304C74.6859 60.6802 74.7855 60.9165 74.945 61.1105C75.1046 61.3045 75.3172 61.4479 75.5569 61.5231C75.7966 61.5983 76.053 61.6021 76.2948 61.534C76.5366 61.4659 76.7533 61.3288 76.9185 61.1396C77.0837 60.9503 77.1902 60.717 77.225 60.4683C77.2598 60.2195 77.2215 59.9659 77.1146 59.7386C77.0077 59.5113 76.8369 59.32 76.6231 59.1881C76.4093 59.0562 76.1617 58.9895 75.9105 58.996C75.7336 59.0069 75.5606 59.0526 75.4014 59.1305C75.2422 59.2084 75.0999 59.3169 74.9826 59.4498C74.8654 59.5827 74.7755 59.7374 74.7181 59.9051C74.6607 60.0728 74.6369 60.2501 74.6481 60.427L74.6584 60.4304Z" fill="#37474F"/>
<path d="M77.3794 60.1999C78.1809 59.8937 78.5524 60.1449 78.5559 60.1483L78.6831 59.9763C78.6831 59.9763 78.2256 59.6323 77.3071 59.9969L77.3794 60.1999Z" fill="#37474F"/>
<path d="M74.5483 60.2892L74.5792 60.0725C74.4382 60.0518 71.1392 59.5393 70.7712 59.529C70.4031 59.5186 69.5259 60.0346 69.4296 60.0966L69.5396 60.2789C69.9113 60.0382 70.3188 59.8582 70.7471 59.7457H70.7643C71.0395 59.7526 73.358 60.1034 74.5483 60.2892Z" fill="#37474F"/>
<path d="M70.7849 60.8466C72.1609 60.8466 72.7285 56.5776 72.7904 56.0512C72.7664 56.3952 72.6597 58.1462 72.7904 58.2219C72.94 58.223 73.0887 58.1998 73.2308 58.1531C73.2386 57.9417 73.2627 57.7312 73.303 57.5236C73.303 57.4272 73.334 57.7368 73.3752 58.1187L73.6332 58.0568C73.6335 57.6059 73.6936 57.1571 73.8121 56.722C73.8568 56.5569 73.8775 57.3068 74.0151 57.9673C75.2154 57.6581 76.4465 57.4839 77.6856 57.4479C77.9898 57.444 78.2941 57.4555 78.5972 57.4823C78.6178 56.9594 78.5765 56.4056 78.5972 56.526C78.6905 56.8437 78.7527 57.1697 78.7829 57.4995L79.1751 57.5408C79.237 56.808 78.9274 55.6247 79.0375 55.8208C79.368 56.3854 79.5886 57.0076 79.6876 57.6543C80.1864 57.7678 80.3206 57.871 80.3378 57.7403C80.2365 56.288 79.6206 54.9194 78.6006 53.8806C76.915 52.1812 73.4578 51.6549 71.4144 54.1145C71.4144 54.1145 69.7667 55.1121 69.4571 56.7977C69.1475 58.4833 69.98 60.85 70.7849 60.8466Z" fill="#263238"/>
<path d="M71.2768 60.6264C71.2768 60.6264 70.1106 58.8066 69.2884 59.216C68.4663 59.6254 69.2884 62.2294 70.2241 62.6182C70.3399 62.6764 70.4663 62.7107 70.5957 62.7188C70.7251 62.7269 70.8548 62.7087 70.977 62.6653C71.0991 62.6219 71.2112 62.5542 71.3065 62.4663C71.4018 62.3783 71.4783 62.272 71.5313 62.1538L71.2768 60.6264Z" fill="#EB9481"/>
<path d="M69.5465 59.9556C69.5465 59.9556 69.5259 59.9762 69.5465 59.9796C70.1967 60.2755 70.52 60.905 70.7402 61.5483C70.7039 61.4808 70.6536 61.422 70.5925 61.3757C70.5315 61.3295 70.4612 61.297 70.3865 61.2803C70.3117 61.2637 70.2343 61.2633 70.1594 61.2793C70.0845 61.2952 70.0139 61.3272 69.9524 61.3729C69.9352 61.3729 69.9524 61.4107 69.9524 61.4072C70.0702 61.3761 70.1947 61.3818 70.3092 61.4236C70.4236 61.4654 70.5224 61.5414 70.5923 61.6412C70.7073 61.8093 70.8042 61.9892 70.8812 62.1778C70.9122 62.2397 71.0188 62.2122 70.9982 62.1434V62.1262C71.0567 61.2834 70.4478 60.076 69.5465 59.9556Z" fill="#263238"/>
<path d="M82.4981 88.6694H62.4635V89.5673H82.4981V88.6694Z" fill="#455A64"/>
<path d="M82.498 88.6694H72.4154V89.5673H82.498V88.6694Z" fill="#263238"/>
<path d="M72.6493 89.5673H53.1239L50.365 76.3096H69.8904L72.6493 89.5673Z" fill="#37474F"/>
<path d="M63.0208 83.2482C63.0427 83.4127 63.0287 83.58 62.9797 83.7386C62.9308 83.8972 62.848 84.0434 62.7372 84.1669C62.6264 84.2905 62.4901 84.3886 62.3377 84.4545C62.1854 84.5203 62.0205 84.5524 61.8546 84.5485C61.4987 84.5404 61.1577 84.4046 60.8937 84.1659C60.6297 83.9272 60.4604 83.6014 60.4167 83.2482C60.3948 83.0836 60.4088 82.9163 60.4577 82.7577C60.5067 82.5991 60.5894 82.4529 60.7002 82.3294C60.811 82.2058 60.9473 82.1077 61.0997 82.0418C61.2521 81.976 61.4169 81.9439 61.5828 81.9478C61.9389 81.9552 62.2804 82.0907 62.5445 82.3296C62.8087 82.5685 62.9778 82.8946 63.0208 83.2482Z" fill="white"/>
<path d="M110.713 89.5708H94.4417V88.3049L110.713 87.7786V89.5708Z" fill="#37474F"/>
<path d="M127.393 84.029H98.8965L103.427 62.811H131.927L127.393 84.029Z" fill="#455A64"/>
<path d="M128.449 84.029H99.9491L104.483 62.811H132.983L128.449 84.029Z" fill="#37474F"/>
<path d="M113.076 76.4197H112.409L113.424 71.6587H114.094L113.076 76.4197Z" fill="#263238"/>
<path d="M114.397 76.4197H113.73L114.745 71.6587H115.412L114.397 76.4197Z" fill="#263238"/>
<path d="M115.715 76.4197H115.047L116.062 71.6587H116.73L115.715 76.4197Z" fill="#263238"/>
<path d="M117.036 76.4197H116.365L117.38 71.6587H118.05L117.036 76.4197Z" fill="#263238"/>
<path d="M118.353 76.4197H117.686L118.701 71.6587H119.368L118.353 76.4197Z" fill="#263238"/>
<path d="M119.671 76.4197H119.003L120.018 71.6587H120.685L119.671 76.4197Z" fill="#263238"/>
<path d="M120.992 76.4197H120.321L121.339 71.6587H122.006L120.992 76.4197Z" fill="#263238"/>
<path d="M120.39 89.5707H106.372V88.4802L120.39 88.0261V89.5707Z" fill="#455A64"/>
<path d="M124.201 89.5674H116.674L112.141 77.6787H119.667L124.201 89.5674Z" fill="#455A64"/>
<path d="M125.44 89.5674H117.913L113.379 77.6787H120.906L125.44 89.5674Z" fill="#263238"/>
<path d="M42.2672 84.029H51.0633L46.5294 62.811H37.7333L42.2672 84.029Z" fill="#455A64"/>
<path d="M41.2111 84.029H50.0072L45.4767 62.811H36.6807L41.2111 84.029Z" fill="#37474F"/>
<path d="M42.4117 76.4197H42.5355L41.5207 71.6587H41.3969L42.4117 76.4197Z" fill="#263238"/>
<path d="M42.6765 76.4197H42.8004L41.7856 71.6587H41.6617L42.6765 76.4197Z" fill="#263238"/>
<path d="M42.9414 76.4197H43.0687L42.0539 71.6587H41.9301L42.9414 76.4197Z" fill="#263238"/>
<path d="M43.2097 76.4197H43.3336L42.3188 71.6587H42.1949L43.2097 76.4197Z" fill="#263238"/>
<path d="M43.4746 76.4197H43.6019L42.5871 71.6587H42.4598L43.4746 76.4197Z" fill="#263238"/>
<path d="M43.743 76.4197H43.8668L42.852 71.6587H42.7281L43.743 76.4197Z" fill="#263238"/>
<path d="M44.0078 76.4197H44.1317L43.1169 71.6587H42.993L44.0078 76.4197Z" fill="#263238"/>
<path d="M44.2727 76.4197H44.4L43.3852 71.6587H43.2579L44.2727 76.4197Z" fill="#263238"/>
<path d="M41.0426 89.5707H51.5656V88.4802L41.0426 88.0261V89.5707Z" fill="#455A64"/>
<path d="M37.2311 89.5674H41.2628L45.7967 77.6787H41.765L37.2311 89.5674Z" fill="#455A64"/>
<path d="M37.2311 89.5674H40.0244L44.5548 77.6787H41.765L37.2311 89.5674Z" fill="#263238"/>
<path d="M92.88 89.5811H82.1472C81.2287 89.5811 82.5565 86.9701 85.9002 85.9725C89.2439 84.9749 93.912 88.6007 92.88 89.5811Z" fill="#37474F"/>
<path d="M88.6556 89.5812C88.6274 89.2787 88.6531 88.9735 88.7313 88.6799C88.8055 88.3852 88.9213 88.1026 89.0753 87.8406C89.2345 87.5791 89.4369 87.3465 89.6739 87.1526C89.9086 86.9568 90.1833 86.8147 90.4788 86.7363C90.2599 86.9261 90.0531 87.1295 89.8596 87.3452C89.6766 87.5595 89.5132 87.7898 89.3711 88.0332C89.0865 88.5266 88.847 89.0447 88.6556 89.5812Z" fill="#263238"/>
<path d="M89.9249 87.0974C90.2567 87.1652 90.5798 87.2702 90.8881 87.4105C91.1963 87.5508 91.491 87.7189 91.7688 87.9127C92.053 88.1086 92.3049 88.3477 92.5152 88.6213C92.7427 88.8888 92.865 89.23 92.8592 89.5811C92.7365 89.2819 92.5484 89.014 92.3088 88.7968C92.0763 88.5767 91.8267 88.3755 91.5624 88.1948C91.0429 87.8164 90.4719 87.4827 89.9249 87.0974Z" fill="#263238"/>
<path d="M42.3877 131.993H33.2751V133.596H42.3877V131.993Z" fill="#455A64"/>
<path d="M47.3276 155.436H46.3437L38.3182 117.971L37.8607 115.835L36.4193 109.11L35.8827 106.602L33.8634 97.1903L33.1582 93.8948H36.6636L37.2346 97.1903L37.6096 99.3541L37.8607 100.795L39.2986 109.11L39.763 111.786L47.3276 155.436Z" fill="#455A64"/>
<path d="M36.6636 93.8948L37.2346 97.1903H33.8634L33.1582 93.8948H36.6636Z" fill="#263238"/>
<path d="M39.763 111.786L38.3182 117.971L37.8607 115.835L36.4193 109.11L35.8827 106.602L37.6096 99.3541L37.8607 100.795L39.2986 109.11L39.763 111.786Z" fill="#263238"/>
<path d="M42.5597 93.8948L41.8545 97.1903L39.2986 109.11L37.8607 115.835L29.3742 155.436H28.3938L36.4193 109.11L37.8607 100.795L38.4833 97.1903L39.0544 93.8948H42.5597Z" fill="#455A64"/>
<path d="M42.5597 93.8948L41.8545 97.1903H38.4833L39.0543 93.8948H42.5597Z" fill="#263238"/>
<path d="M138.842 93.8948L125.656 155.436H124.676L135.336 93.8948H138.842Z" fill="#455A64"/>
<path d="M129.44 93.8948L142.626 155.436H143.606L132.946 93.8948H129.44Z" fill="#455A64"/>
<path d="M138.67 131.993H129.557V133.596H138.67V131.993Z" fill="#455A64"/>
<path d="M144.229 89.5708H27.7711V93.8949H144.229V89.5708Z" fill="#455A64"/>
<path d="M26.9214 127.848C24.4033 122.688 20.0001 120.015 15.0327 121.484C10.0654 122.952 9.28794 129.877 13.0066 131.625C16.7252 133.372 20.4198 128.267 22.3771 127.218C24.3345 126.169 26.9214 127.848 26.9214 127.848Z" fill="#4D9282"/>
<path d="M29.3604 141.625C29.3604 140.999 29.3225 140.376 29.2985 139.753C29.2572 138.508 29.2136 137.263 29.1677 136.018C29.0817 133.737 28.8237 131.501 27.8949 129.402C27.0612 127.499 25.6683 125.893 23.9011 124.8C23.2448 124.403 22.5377 124.098 21.7993 123.892C21.1301 123.216 20.2793 122.748 19.35 122.547C18.2 122.314 17.0181 122.287 15.8584 122.464C15.8171 122.464 15.8171 122.533 15.8584 122.529C16.965 122.388 18.0885 122.468 19.1642 122.763C19.6248 122.89 20.071 123.064 20.4955 123.283C20.7645 123.426 21.0221 123.589 21.2661 123.771C20.2643 123.564 19.2298 123.573 18.232 123.799C17.8725 123.885 17.5206 124 17.1793 124.143C16.9073 124.083 16.6285 124.059 16.3503 124.074C15.9881 124.085 15.6281 124.135 15.277 124.225C14.5578 124.427 13.8701 124.728 13.2337 125.12C13.1958 125.14 13.2337 125.195 13.2681 125.175C13.8938 124.833 14.5642 124.581 15.2598 124.425C15.5992 124.347 15.9443 124.296 16.2918 124.273C16.482 124.263 16.6726 124.263 16.8629 124.273C15.4489 124.927 14.3119 126.061 13.6533 127.473C13.6361 127.51 13.6912 127.545 13.7084 127.504C14.1002 126.684 14.6718 125.964 15.3806 125.397C16.0894 124.829 16.917 124.429 17.802 124.225C17.9086 124.198 18.0221 124.184 18.146 124.16C18.1081 124.322 18.115 124.504 18.0944 124.662C18.06 124.913 18.0187 125.164 17.9671 125.412C17.8576 125.928 17.7163 126.437 17.544 126.936C17.3757 127.438 17.1746 127.929 16.942 128.405C16.7169 128.908 16.4353 129.383 16.1026 129.822C16.0717 129.857 16.1301 129.901 16.1542 129.86C16.4535 129.392 16.8009 128.962 17.0727 128.484C17.3323 128.02 17.5565 127.537 17.7435 127.039C17.9341 126.535 18.0825 126.016 18.1873 125.488C18.2423 125.209 18.287 124.927 18.318 124.645C18.3523 124.476 18.3628 124.304 18.3489 124.132C18.933 124.042 19.5263 124.03 20.1137 124.095C19.8935 125.329 19.6561 126.616 18.9647 127.689C18.9406 127.724 19.0025 127.758 19.0232 127.72C19.3454 127.151 19.6303 126.562 19.8763 125.956C20.1026 125.361 20.2439 124.738 20.296 124.105C21.3213 124.243 22.3111 124.575 23.2131 125.082C24.9125 126.073 26.2679 127.56 27.0969 129.344C27.9775 131.252 28.4721 133.316 28.552 135.416C28.7171 138.061 28.7515 140.72 29.0164 143.359C29.0164 143.531 29.3053 143.589 29.3397 143.393C29.4017 142.805 29.4086 142.213 29.3604 141.625Z" fill="#263238"/>
<path d="M23.5399 124.384C23.3752 124.182 23.183 124.005 22.9689 123.857C22.7625 123.685 22.5526 123.513 22.329 123.369C21.8923 123.069 21.4086 122.845 20.898 122.705C20.8567 122.705 20.843 122.76 20.898 122.77C21.411 122.898 21.8915 123.133 22.3084 123.458C22.5182 123.613 22.7212 123.778 22.9173 123.95C23.0928 124.132 23.2864 124.296 23.4952 124.439C23.5193 124.466 23.5674 124.421 23.5399 124.384Z" fill="#263238"/>
<path d="M15.504 126.248C15.0878 126.733 14.7029 127.245 14.3516 127.779C14.0066 128.315 13.7184 128.886 13.4916 129.482C13.4916 129.499 13.5122 129.509 13.5225 129.482C14.0981 128.356 14.7776 127.286 15.5521 126.286C15.5797 126.272 15.5315 126.227 15.504 126.248Z" fill="#263238"/>
<path d="M20.922 125.749C20.8677 126.072 20.7718 126.387 20.6365 126.685C20.4994 126.973 20.3395 127.251 20.1583 127.514C20.1556 127.518 20.1544 127.522 20.1551 127.527C20.1557 127.531 20.1581 127.535 20.1618 127.538C20.1654 127.541 20.17 127.542 20.1745 127.541C20.1791 127.541 20.1831 127.538 20.1859 127.535C20.6207 127.036 20.8984 126.419 20.9839 125.763C20.9839 125.722 20.9289 125.704 20.922 125.749Z" fill="#263238"/>
<path d="M29.0095 127.968C29.0095 127.968 32.5734 123.496 39.4534 125.075C45.9894 126.585 49.0097 138.577 42.4014 140.011C35.7932 141.446 36.9594 130.348 34.5514 128.467C32.7832 127.091 30.2445 127.39 29.0095 127.968Z" fill="#4D9282"/>
<path d="M44.7681 131.632C44.3201 131.239 43.8467 130.875 43.3509 130.545C42.883 130.226 42.3737 129.972 41.8373 129.791C41.5677 129.389 41.2663 129.01 40.936 128.656C40.3346 128.003 39.6389 127.445 38.872 126.998H39.0784C39.4428 126.979 39.8079 126.979 40.1723 126.998C40.9059 127.043 41.6252 127.221 42.2948 127.524C42.3025 127.528 42.3114 127.528 42.3195 127.525C42.3276 127.523 42.3341 127.517 42.3378 127.509C42.3414 127.501 42.3419 127.492 42.339 127.484C42.3361 127.476 42.3301 127.469 42.3223 127.466C41.6426 127.173 40.9317 126.958 40.2033 126.826C39.8479 126.762 39.4875 126.731 39.1265 126.733C38.9339 126.733 38.7413 126.75 38.5486 126.768H38.4385C37.8089 126.448 37.1439 126.203 36.4571 126.038L36.6463 125.987C36.9869 125.911 37.3314 125.855 37.6783 125.818C38.3647 125.738 39.0586 125.749 39.7423 125.849C39.7836 125.849 39.7973 125.791 39.7423 125.784C39.0575 125.702 38.3674 125.674 37.6783 125.701C37.099 125.718 36.5228 125.793 35.9583 125.925C35.5434 125.849 35.124 125.801 34.7027 125.78C32.2947 125.68 29.6872 126.578 28.2114 128.549C26.7357 130.521 26.4054 133.149 26.144 135.536C25.7413 138.854 25.6526 142.202 25.8791 145.536C25.8791 145.736 26.1715 145.698 26.1784 145.512C26.2678 142.684 26.3676 139.857 26.6393 137.039C26.7632 135.732 26.9008 134.425 27.1175 133.132C27.2752 132.018 27.5951 130.933 28.0669 129.912C28.5781 128.87 29.386 128.002 30.3889 127.418C31.3974 126.839 32.522 126.493 33.681 126.403C34.722 126.318 35.7698 126.415 36.777 126.692C36.746 126.894 36.746 127.099 36.777 127.301C36.7979 127.557 36.8487 127.81 36.9284 128.054C37.0028 128.285 37.0984 128.508 37.2139 128.721C37.3412 128.959 37.5029 129.169 37.6439 129.409C37.668 129.444 37.723 129.409 37.6989 129.372C37.4147 128.968 37.2319 128.502 37.1657 128.013C37.1216 127.786 37.094 127.556 37.0832 127.325C37.0832 127.146 37.0832 126.981 37.0832 126.792C38.1748 127.127 39.1936 127.665 40.0863 128.377C40.2549 128.512 40.4303 128.653 40.5748 128.797C40.3469 129.008 40.15 129.25 39.99 129.516C39.7547 129.86 39.5498 130.224 39.3777 130.603C39.06 131.374 38.846 132.184 38.7413 133.011C38.7413 133.052 38.8032 133.066 38.8066 133.011C38.9235 132.21 39.1784 131.434 39.56 130.72C39.7423 130.372 39.9456 130.035 40.1689 129.712C40.2858 129.547 40.4062 129.368 40.5129 129.224C40.5817 129.141 40.6539 129.052 40.7193 128.962C41.5292 129.755 42.1899 130.687 42.6697 131.714C42.3434 132.057 42.0719 132.448 41.8648 132.874C41.6179 133.316 41.403 133.776 41.2215 134.25C40.8877 135.167 40.613 136.104 40.3993 137.057C40.3993 137.098 40.4544 137.112 40.4647 137.057C40.6741 136.102 41.0011 135.178 41.4382 134.305C41.6446 133.875 41.8613 133.451 42.0918 133.032C42.3296 132.643 42.5455 132.241 42.7385 131.828C43.1966 132.831 43.4626 133.912 43.5229 135.013C43.5229 135.058 43.5917 135.051 43.5882 135.013C43.4616 133.285 42.9327 131.609 42.0437 130.122C42.4633 130.3 42.8865 130.466 43.2924 130.693C43.807 130.963 44.2865 131.296 44.72 131.683C44.7578 131.711 44.7991 131.659 44.7681 131.632Z" fill="#263238"/>
<path d="M39.7216 131.886C39.5152 132.574 39.2537 133.224 39.068 133.912C38.8783 134.57 38.7765 135.25 38.7653 135.935C38.7653 135.935 38.7962 135.956 38.7962 135.935C38.9834 134.561 39.3143 133.211 39.7835 131.907C39.7868 131.902 39.789 131.897 39.7899 131.892C39.7908 131.887 39.7904 131.881 39.7888 131.876C39.7872 131.871 39.7844 131.866 39.7805 131.862C39.7767 131.858 39.772 131.855 39.7669 131.854C39.7617 131.852 39.7562 131.851 39.7508 131.852C39.7454 131.853 39.7403 131.855 39.7359 131.858C39.7314 131.861 39.7278 131.866 39.7254 131.871C39.7229 131.875 39.7216 131.881 39.7216 131.886Z" fill="#263238"/>
<path d="M44.0802 130.201C43.8095 129.941 43.5024 129.722 43.1686 129.55C42.8282 129.395 42.4748 129.271 42.1125 129.179C42.0746 129.179 42.0609 129.234 42.1125 129.241C42.4735 129.334 42.8206 129.475 43.1445 129.66C43.4697 129.829 43.7824 130.021 44.0802 130.235C44.0733 130.252 44.1008 130.221 44.0802 130.201Z" fill="#263238"/>
<path d="M32.3944 121.993C32.3944 121.993 33.0549 113.943 39.0371 111.329C44.0354 109.148 46.894 114.769 43.3646 118.209C40.5059 120.988 35.9238 119.733 32.3944 121.993Z" fill="#4D9282"/>
<path d="M42.2569 112.894C41.3455 113.261 40.4565 113.681 39.5944 114.153C38.8779 114.567 38.1885 115.027 37.5304 115.529C37.6267 115.326 37.7161 115.113 37.8159 114.913C37.9707 114.6 38.1392 114.297 38.3216 114.002C38.6911 113.393 39.1348 112.832 39.6425 112.333C39.6735 112.306 39.6219 112.258 39.5944 112.288C39.0932 112.79 38.633 113.33 38.2184 113.905C38.0135 114.198 37.8241 114.501 37.6508 114.813C37.4747 115.103 37.3393 115.416 37.2483 115.742L37.1829 115.79C36.1372 116.623 35.1793 117.56 34.3243 118.587C34.3415 118.508 34.3587 118.429 34.3793 118.357C34.4894 117.961 34.6132 117.572 34.7233 117.187C34.981 116.36 35.3453 115.57 35.8069 114.837C35.8276 114.803 35.7691 114.769 35.7484 114.807C35.2769 115.539 34.8584 116.305 34.4963 117.098C34.3296 117.482 34.1916 117.879 34.0835 118.284C33.9965 118.548 33.9309 118.818 33.8874 119.093C33.626 119.437 33.3714 119.757 33.1272 120.101C30.5609 123.757 29.2709 128.181 28.9613 132.609C28.8727 133.926 28.8509 135.248 28.896 136.568C28.9037 137.901 29.0188 139.23 29.24 140.545C29.24 140.627 29.3879 140.603 29.3844 140.524C29.3569 139.361 29.2365 138.202 29.2124 137.039C29.1884 135.877 29.2331 134.703 29.326 133.544C29.5131 131.221 29.9502 128.925 30.6297 126.695C31.326 124.412 32.3516 122.243 33.6741 120.255C33.9252 120.204 34.1764 120.139 34.424 120.073C34.6717 120.008 35.0226 119.918 35.3184 119.836C35.8939 119.689 36.453 119.484 36.9868 119.223C37.0247 119.223 36.9868 119.148 36.9524 119.168C36.4251 119.457 35.853 119.655 35.26 119.753C34.7921 119.846 34.3071 119.908 33.8358 120.015C34.2687 119.381 34.7337 118.77 35.229 118.185C36.3693 118.29 37.5192 118.204 38.6312 117.93C39.2236 117.788 39.8062 117.608 40.3752 117.39C40.9738 117.159 41.5414 116.86 42.1331 116.613C42.1408 116.609 42.1468 116.602 42.1497 116.594C42.1526 116.586 42.1522 116.577 42.1486 116.57C42.1449 116.562 42.1383 116.556 42.1303 116.553C42.1222 116.55 42.1133 116.55 42.1056 116.554C41.0368 117.136 39.8713 117.52 38.6656 117.686C37.5981 117.855 36.5195 117.943 35.4388 117.951C35.862 117.462 36.3023 116.987 36.7701 116.54C38.3422 115.044 40.2101 113.668 42.2741 112.952C42.312 112.942 42.312 112.877 42.2569 112.894Z" fill="#263238"/>
<path d="M37.3859 112.918C37.1175 113.259 36.8727 113.617 36.6532 113.991C36.4257 114.384 36.2466 114.804 36.12 115.24C36.12 115.24 36.12 115.261 36.1441 115.24C36.3436 114.848 36.5122 114.438 36.7117 114.043C36.9113 113.656 37.1512 113.292 37.4272 112.956C37.4616 112.932 37.4134 112.884 37.3859 112.918Z" fill="#263238"/>
<path d="M42.9518 115.584C42.5617 115.798 42.15 115.97 41.7237 116.097C41.3145 116.235 40.8976 116.35 40.475 116.441C40.4544 116.441 40.475 116.478 40.475 116.475C40.9153 116.429 41.3491 116.335 41.7684 116.193C42.19 116.039 42.6013 115.859 43 115.653C43.024 115.636 43 115.584 42.9518 115.584Z" fill="#263238"/>
<path d="M27.7436 120.544C27.7057 120.888 26.8389 117.62 21.7786 114.717C17.2 112.082 11.696 105.226 16.2058 100.892C19.8419 97.3967 29.4223 105.02 27.7436 120.544Z" fill="#4D9282"/>
<path d="M31.2283 139.292C31.153 135.888 30.8842 132.491 30.4233 129.117C30.0242 126.017 29.3084 122.966 28.2871 120.011C27.9087 118.948 27.4787 117.899 27.0143 116.871C27.0402 116.469 27.0333 116.067 26.9937 115.667C26.9661 115.151 26.9214 114.635 26.8733 114.122C26.8251 113.609 26.7735 113.09 26.7116 112.584C26.6497 112.079 26.543 111.552 26.5224 111.05C26.5241 111.045 26.5245 111.039 26.5237 111.034C26.5229 111.029 26.5208 111.024 26.5176 111.019C26.5144 111.015 26.5102 111.011 26.5053 111.009C26.5005 111.006 26.4951 111.005 26.4897 111.005C26.4843 111.005 26.4789 111.006 26.4741 111.009C26.4692 111.011 26.465 111.015 26.4618 111.019C26.4586 111.024 26.4566 111.029 26.4557 111.034C26.4549 111.039 26.4553 111.045 26.457 111.05C26.5592 111.587 26.6202 112.131 26.6393 112.677C26.6772 113.173 26.7047 113.671 26.7219 114.167C26.7391 114.662 26.7219 115.164 26.7219 115.663C26.7219 115.842 26.7219 116.031 26.7219 116.224C26.2472 115.219 25.7346 114.229 25.1842 113.265C25.5282 111.167 25.081 108.976 24.6545 106.922C24.6545 106.881 24.5822 106.901 24.5891 106.943C24.8035 108.013 24.9187 109.102 24.9331 110.194C24.9537 111.054 24.9125 111.914 24.909 112.777C24.7886 112.571 24.6682 112.364 24.5444 112.161C23.8793 111.095 23.1741 110.057 22.4288 109.048C22.4873 108.551 22.4699 108.047 22.3772 107.555C22.2976 106.997 22.1769 106.445 22.016 105.904C21.8555 105.367 21.6685 104.84 21.4553 104.321C21.2351 103.792 20.9427 103.289 20.7329 102.753C20.7311 102.749 20.7285 102.746 20.7254 102.743C20.7222 102.74 20.7186 102.738 20.7146 102.736C20.7106 102.735 20.7063 102.734 20.7021 102.734C20.6979 102.734 20.6937 102.736 20.6899 102.737C20.686 102.739 20.6826 102.742 20.6797 102.745C20.6769 102.748 20.6747 102.752 20.6732 102.756C20.6718 102.76 20.6711 102.764 20.6713 102.768C20.6715 102.772 20.6726 102.776 20.6744 102.78C20.9426 103.284 21.1548 103.816 21.3073 104.366C21.4739 104.883 21.6117 105.409 21.7201 105.942C21.8268 106.475 21.9162 107.008 21.9885 107.545C22.0401 107.889 22.071 108.271 22.1329 108.632C21.0494 107.175 19.8655 105.796 18.5897 104.504C18.5588 104.473 18.5175 104.521 18.545 104.552C20.4726 106.72 22.1943 109.062 23.6878 111.549L23.8495 111.831C23.5709 111.656 23.2509 111.518 22.9895 111.373C22.501 111.103 22.0091 110.832 21.5137 110.562C21.0184 110.291 20.5414 110.03 20.0827 109.777C19.835 109.643 19.5942 109.499 19.3431 109.371C19.0447 109.238 18.7581 109.079 18.4865 108.897C18.4487 108.869 18.4074 108.928 18.4487 108.948C18.9337 109.217 19.3672 109.616 19.8247 109.915C20.2822 110.214 20.7776 110.507 21.2695 110.782C22.1708 111.284 23.1477 111.645 24.0215 112.158C24.6373 113.231 25.2014 114.335 25.7415 115.457C25.2049 115.113 24.6545 114.769 24.0972 114.473C23.7532 114.273 23.3817 114.077 23.017 113.885C22.6514 113.718 22.3053 113.511 21.985 113.269C21.9784 113.264 21.9702 113.262 21.9619 113.262C21.9537 113.263 21.9459 113.266 21.9401 113.272C21.9342 113.278 21.9307 113.286 21.9301 113.294C21.9295 113.302 21.9319 113.31 21.9369 113.317C22.5273 113.845 23.18 114.299 23.8805 114.669C24.5306 115.047 25.1877 115.415 25.8653 115.746C26.4043 116.931 26.8916 118.139 27.3273 119.368C29.4601 125.398 30.241 131.8 30.616 138.157C30.7261 140.053 30.7845 141.941 30.8086 143.844C30.8327 145.746 30.7295 147.628 30.7364 149.53C30.7364 149.585 30.8258 149.599 30.8361 149.53C31.0632 147.848 31.101 146.138 31.1801 144.446C31.2593 142.753 31.2661 141.012 31.2283 139.292Z" fill="#263238"/>
<path d="M22.0332 111.993C21.1095 111.585 20.2122 111.119 19.3465 110.599C18.4664 110.107 17.6143 109.566 16.794 108.979C16.794 108.979 16.7631 108.979 16.794 109.003C17.5697 109.633 18.3881 110.207 19.2433 110.723C20.1395 111.221 21.0655 111.663 22.016 112.048C22.04 112.065 22.0744 112.006 22.0332 111.993Z" fill="#263238"/>
<path d="M23.502 105.175C23.4263 104.882 23.3334 104.593 23.2337 104.304C23.2371 104.299 23.2389 104.293 23.2389 104.287C23.2389 104.281 23.2371 104.275 23.2337 104.27L23.0479 103.785C23.0426 103.764 23.0345 103.745 23.0238 103.726C23.0238 103.695 22.9997 103.664 22.986 103.633C22.9722 103.602 22.986 103.633 22.986 103.633C22.986 103.633 23.0169 103.747 23.0341 103.802C23.0361 103.831 23.0407 103.86 23.0479 103.888C23.3804 105.015 23.6311 106.165 23.7978 107.328C23.7978 107.362 23.8597 107.366 23.8563 107.328C23.8052 106.601 23.6866 105.88 23.502 105.175Z" fill="#263238"/>
<path d="M36.574 140.514L36.2128 144.793L35.1085 157.844H23.2681L22.1638 144.793L21.8026 140.514H36.574Z" fill="#37474F"/>
<path d="M36.574 140.514L36.2128 144.793H22.1638L21.8026 140.514H36.574Z" fill="#263238"/>
<path d="M37.7333 138.797H20.6399V142.901H37.7333V138.797Z" fill="#37474F"/>
</svg>
