<svg width="172" height="172" viewBox="0 0 172 172" fill="none" xmlns="http://www.w3.org/2000/svg">
<path d="M88.4252 89.5088H22.4838V21.3074H88.4252V89.5088ZM23.8598 88.1328H87.0492V22.6834H23.8598V88.1328Z" fill="#EBEBEB"/>
<path d="M55.6076 23.0411H54.2316V88.8174H55.6076V23.0411Z" fill="#EBEBEB"/>
<path d="M89.6739 24.0903H21.2351V26.0064H89.6739V24.0903Z" fill="#EBEBEB"/>
<path d="M89.6739 26.2438H21.2351V28.1599H89.6739V26.2438Z" fill="#EBEBEB"/>
<path d="M89.6739 28.4006H21.2351V30.3167H89.6739V28.4006Z" fill="#EBEBEB"/>
<path d="M89.6739 30.5541H21.2351V32.4702H89.6739V30.5541Z" fill="#EBEBEB"/>
<path d="M89.6739 32.7109H21.2351V34.627H89.6739V32.7109Z" fill="#EBEBEB"/>
<path d="M89.6739 34.8678H21.2351V36.7839H89.6739V34.8678Z" fill="#EBEBEB"/>
<path d="M89.6739 37.0212H21.2351V38.9373H89.6739V37.0212Z" fill="#EBEBEB"/>
<path d="M89.6739 39.1781H21.2351V41.0942H89.6739V39.1781Z" fill="#EBEBEB"/>
<path d="M89.6739 41.3351H21.2351V43.2512H89.6739V41.3351Z" fill="#EBEBEB"/>
<path d="M85.5872 23.7015H85.2432V67.8677H85.5872V23.7015Z" fill="#263238"/>
<path d="M86.0275 69.4674H84.8063L85.1124 67.713H85.7213L86.0275 69.4674Z" fill="#263238"/>
<path d="M86.829 23.7015H86.485V87.5927H86.829V23.7015Z" fill="#263238"/>
<path d="M87.2659 88.8827H86.0447L86.3508 87.1283H86.9597L87.2659 88.8827Z" fill="#263238"/>
<path d="M91.8101 21.0391H19.1023V25.0467H91.8101V21.0391Z" fill="#DBDBDB"/>
<path d="M128.463 30.3821C128.463 30.0931 128.501 29.3295 128.501 29.0061C128.501 27.606 128.006 26.9731 126.702 26.9421C126.086 26.9043 125.722 26.5396 125.722 26.0202C125.722 25.5007 126.086 25.1395 126.702 25.1017C128.006 25.0432 128.501 24.4137 128.501 23.0102C128.501 22.6662 128.463 21.9163 128.463 21.6342C128.463 19.7731 129.251 18.5829 132.223 17.9327C132.427 17.8802 132.643 17.9072 132.828 18.0082C133.013 18.1093 133.152 18.2769 133.218 18.477C133.284 18.6771 133.271 18.8946 133.182 19.0855C133.093 19.2764 132.935 19.4263 132.739 19.5048C130.882 20.0793 130.613 20.6744 130.613 21.9782C130.613 22.3635 130.651 23.0102 130.651 23.3989C130.651 24.8919 129.922 25.6211 128.656 26.0236C129.943 26.4467 130.651 27.1554 130.651 28.6518C130.651 29.0543 130.613 29.6838 130.613 30.0691C130.613 31.3728 130.882 31.9679 132.739 32.5424C132.945 32.6135 133.114 32.7625 133.211 32.9573C133.308 33.1522 133.324 33.3773 133.256 33.5841C133.189 33.7908 133.042 33.9627 132.849 34.0626C132.656 34.1624 132.431 34.1823 132.223 34.1179C129.251 33.4506 128.463 32.2603 128.463 30.3821Z" fill="#EBEBEB"/>
<path d="M139.702 21.6204C139.702 21.9059 139.664 22.673 139.664 22.9964C139.664 24.4171 140.18 25.0294 141.484 25.0879C141.609 25.0802 141.735 25.0983 141.853 25.1411C141.972 25.1839 142.08 25.2504 142.172 25.3366C142.263 25.4228 142.336 25.5269 142.386 25.6423C142.436 25.7578 142.462 25.8823 142.462 26.0081C142.462 26.1339 142.436 26.2584 142.386 26.3739C142.336 26.4894 142.263 26.5934 142.172 26.6796C142.08 26.7658 141.972 26.8324 141.853 26.8751C141.735 26.9179 141.609 26.936 141.484 26.9283C140.18 26.9662 139.664 27.5991 139.664 28.9923C139.664 29.3363 139.702 30.0828 139.702 30.3683C139.702 32.2466 138.914 33.4368 135.942 34.0904C135.733 34.1565 135.506 34.137 135.312 34.036C135.117 33.9351 134.971 33.761 134.905 33.552C134.839 33.3431 134.858 33.1165 134.959 32.922C135.06 32.7275 135.234 32.581 135.443 32.5149C137.284 31.9404 137.552 31.3453 137.552 30.0415C137.552 29.6597 137.514 29.0095 137.514 28.6242C137.514 27.1278 138.243 26.3986 139.509 25.9961C138.223 25.5764 137.514 24.8643 137.514 23.3714C137.514 22.9689 137.552 22.3394 137.552 21.9506C137.552 20.6469 137.284 20.0518 135.443 19.4773C135.244 19.4035 135.081 19.2561 134.988 19.0654C134.895 18.8748 134.879 18.6557 134.943 18.4535C135.007 18.2513 135.147 18.0815 135.333 17.9794C135.519 17.8774 135.737 17.8508 135.942 17.9052C138.914 18.576 139.702 19.7594 139.702 21.6204Z" fill="#EBEBEB"/>
<path d="M139.32 88.5696C139.43 88.683 139.504 88.8259 139.534 88.9809C139.563 89.1358 139.547 89.296 139.488 89.442C139.428 89.588 139.327 89.7133 139.197 89.8028C139.067 89.8922 138.914 89.9419 138.756 89.9456C138.535 89.9476 138.322 89.8652 138.161 89.7152L134.542 86.0412C134.504 86.0412 134.49 86.0034 134.476 85.9656C134.466 85.9542 134.453 85.9449 134.439 85.938C134.421 85.9057 134.408 85.8709 134.401 85.8348C134.391 85.8302 134.382 85.823 134.375 85.814C134.369 85.8049 134.364 85.7944 134.363 85.7832C134.363 85.7592 134.363 85.7213 134.335 85.7076C134.308 85.6938 134.311 85.656 134.311 85.6422V85.5528C134.311 85.5287 134.311 85.5149 134.311 85.4771C134.311 85.4392 134.311 85.4255 134.311 85.4117V85.3223C134.311 85.2948 134.335 85.281 134.335 85.2707C134.335 85.2604 134.335 85.2053 134.363 85.1675C134.39 85.1296 134.363 85.1675 134.363 85.14C134.381 85.1006 134.401 85.0626 134.425 85.0264C134.425 85.0191 134.428 85.0121 134.433 85.007C134.438 85.0018 134.445 84.9989 134.452 84.9989C134.469 84.9628 134.495 84.9319 134.528 84.9095L138.147 81.239C138.303 81.0899 138.511 81.0067 138.727 81.0067C138.942 81.0067 139.15 81.0899 139.306 81.239C139.383 81.3148 139.444 81.4051 139.485 81.5046C139.527 81.6041 139.548 81.7108 139.548 81.8186C139.548 81.9265 139.527 82.0332 139.485 82.1327C139.444 82.2322 139.383 82.3225 139.306 82.3983L136.255 85.4943L139.32 88.5696Z" fill="#EBEBEB"/>
<path d="M142.605 88.9791L145.763 81.4696C145.8 81.3833 145.854 81.3053 145.921 81.2399C145.989 81.1745 146.068 81.123 146.155 81.0885C146.243 81.054 146.336 81.037 146.43 81.0387C146.524 81.0403 146.616 81.0605 146.702 81.098C146.787 81.1336 146.863 81.1856 146.927 81.2512C146.991 81.3167 147.042 81.3943 147.075 81.4796C147.109 81.5648 147.125 81.6559 147.123 81.7475C147.121 81.8391 147.101 81.9294 147.063 82.0131L143.906 89.5329C143.85 89.6607 143.758 89.7694 143.641 89.8452C143.524 89.9211 143.388 89.9608 143.248 89.9595C143.161 89.9607 143.074 89.9431 142.994 89.9079C142.905 89.8752 142.824 89.8246 142.756 89.7592C142.688 89.6939 142.634 89.6152 142.597 89.5281C142.561 89.4409 142.543 89.3472 142.544 89.2528C142.546 89.1583 142.566 89.0652 142.605 88.9791Z" fill="#EBEBEB"/>
<path d="M161.632 55.1535C161.632 55.838 161.373 56.4972 160.907 56.9987C160.442 57.5002 159.803 57.807 159.121 57.8574H143.771C142.952 57.8574 142.164 57.5418 141.572 56.9762C140.979 56.4105 140.627 55.6383 140.589 54.82C140.551 54.0017 140.83 53.2001 141.367 52.5819C141.905 51.9637 142.66 51.5763 143.475 51.5002C143.516 50.2562 143.988 49.065 144.811 48.1307C145.633 47.1964 146.755 46.577 147.984 46.3787C149.213 46.1803 150.472 46.4153 151.547 47.0433C152.621 47.6714 153.444 48.6535 153.875 49.8215C154.316 49.5964 154.804 49.4786 155.299 49.4775C156.11 49.4777 156.89 49.7869 157.482 50.3423C158.073 50.8976 158.43 51.6574 158.481 52.4669C158.626 52.4431 158.774 52.4316 158.921 52.4325C159.278 52.432 159.632 52.5022 159.961 52.6389C160.291 52.7756 160.591 52.9762 160.843 53.2291C161.094 53.482 161.294 53.7822 161.429 54.1125C161.565 54.4427 161.634 54.7965 161.632 55.1535Z" fill="#DBDBDB"/>
<path d="M22.9551 144.741L38.7172 144.655L54.4793 144.628L86 144.569L117.521 144.628L133.283 144.655L149.045 144.741L133.283 144.824L117.521 144.855L86 144.913L54.4793 144.855L38.7172 144.824L22.9551 144.741Z" fill="#263238"/>
<path d="M29.6115 160.999C38.0241 160.999 44.8439 159.69 44.8439 158.075C44.8439 156.46 38.0241 155.151 29.6115 155.151C21.199 155.151 14.3792 156.46 14.3792 158.075C14.3792 159.69 21.199 160.999 29.6115 160.999Z" fill="#EBEBEB"/>
<path d="M90.8057 159.699C123.943 159.699 150.806 156.786 150.806 153.194C150.806 149.601 123.943 146.688 90.8057 146.688C57.6684 146.688 30.8052 149.601 30.8052 153.194C30.8052 156.786 57.6684 159.699 90.8057 159.699Z" fill="#EBEBEB"/>
<path d="M123.699 21.187H96.4851V38.5487H123.699V21.187Z" fill="white"/>
<path d="M123.871 38.7207H96.32V21.015H123.878L123.871 38.7207ZM96.6571 38.3767H123.527V21.359H96.664L96.6571 38.3767Z" fill="#EBEBEB"/>
<path d="M123.699 21.187H96.4851V24.4688H123.699V21.187Z" fill="#7F80A4"/>
<path d="M123.871 24.6442H96.32V21.015H123.878L123.871 24.6442ZM96.6571 24.3002H123.527V21.359H96.664L96.6571 24.3002Z" fill="#EBEBEB"/>
<path d="M99.5639 22.852C99.5619 23.0144 99.512 23.1725 99.4205 23.3067C99.329 23.4409 99.1999 23.5451 99.0495 23.6063C98.8991 23.6675 98.7339 23.683 98.5748 23.6508C98.4156 23.6186 98.2694 23.5402 98.1546 23.4254C98.0398 23.3105 97.9613 23.1644 97.9292 23.0052C97.897 22.846 97.9125 22.6809 97.9737 22.5305C98.0349 22.38 98.1391 22.251 98.2732 22.1595C98.4074 22.068 98.5656 22.0181 98.728 22.0161C98.8382 22.0147 98.9475 22.0353 99.0495 22.0769C99.1516 22.1184 99.2443 22.1799 99.3222 22.2578C99.4001 22.3357 99.4616 22.4284 99.5031 22.5305C99.5446 22.6325 99.5653 22.7418 99.5639 22.852Z" fill="#A6A6A6"/>
<path d="M102.939 22.852C102.939 23.0153 102.89 23.1749 102.799 23.3106C102.709 23.4464 102.58 23.5522 102.429 23.6147C102.278 23.6772 102.112 23.6936 101.952 23.6617C101.792 23.6298 101.645 23.5512 101.529 23.4358C101.414 23.3203 101.335 23.1732 101.303 23.013C101.271 22.8529 101.288 22.6869 101.35 22.536C101.413 22.3852 101.519 22.2562 101.654 22.1655C101.79 22.0748 101.95 22.0264 102.113 22.0264C102.332 22.0264 102.542 22.1133 102.697 22.2682C102.852 22.423 102.939 22.633 102.939 22.852Z" fill="#EBEBEB"/>
<path d="M106.313 22.852C106.313 23.0153 106.265 23.1749 106.174 23.3106C106.083 23.4464 105.954 23.5522 105.804 23.6147C105.653 23.6772 105.487 23.6936 105.327 23.6617C105.166 23.6298 105.019 23.5512 104.904 23.4358C104.788 23.3203 104.71 23.1732 104.678 23.013C104.646 22.8529 104.662 22.6869 104.725 22.536C104.787 22.3852 104.893 22.2562 105.029 22.1655C105.165 22.0748 105.324 22.0264 105.488 22.0264C105.707 22.0264 105.917 22.1133 106.071 22.2682C106.226 22.423 106.313 22.633 106.313 22.852Z" fill="white"/>
<path d="M101.181 30.9601C101.197 30.0813 101.557 29.244 102.185 28.6283C102.812 28.0127 103.656 27.6678 104.535 27.668C105.296 27.6668 106.037 27.9185 106.64 28.3835C106.744 28.4719 106.812 28.5965 106.828 28.7323C106.845 28.8682 106.81 29.0052 106.729 29.1162C106.644 29.2234 106.521 29.2935 106.385 29.3121C106.249 29.3307 106.111 29.2963 106 29.216C105.583 28.8804 105.06 28.7026 104.524 28.7137C103.913 28.716 103.325 28.9509 102.88 29.3708C102.459 29.7926 102.223 30.3642 102.223 30.9601C102.223 31.2561 102.281 31.5492 102.396 31.8221C102.511 32.0951 102.679 32.3423 102.89 32.5493C103.335 32.9705 103.923 33.2067 104.535 33.2098C105.07 33.2179 105.592 33.0391 106.01 32.7041C106.124 32.6289 106.26 32.5979 106.395 32.6169C106.529 32.636 106.652 32.7037 106.74 32.8073C106.819 32.9192 106.853 33.0573 106.835 33.1934C106.816 33.3296 106.747 33.4535 106.64 33.5401C106.035 34.0086 105.29 34.2606 104.524 34.2556C103.646 34.2548 102.803 33.9088 102.178 33.2923C101.552 32.6758 101.194 31.8382 101.181 30.9601Z" fill="#EBEBEB"/>
<path d="M108.312 32.6801C108.393 32.5843 108.508 32.5242 108.633 32.5126C108.758 32.501 108.882 32.5389 108.979 32.6181C109.473 33.0292 110.085 33.2705 110.727 33.3061C111.134 33.3115 111.532 33.1914 111.869 32.9621C111.983 32.8923 112.078 32.7956 112.147 32.6805C112.215 32.5654 112.254 32.4354 112.261 32.3017C112.264 32.1985 112.236 32.0969 112.182 32.0093C112.112 31.8989 112.018 31.806 111.907 31.7375C111.52 31.5167 111.095 31.3697 110.654 31.3041H110.634C110.228 31.239 109.831 31.1234 109.454 30.9601C109.109 30.8085 108.814 30.5615 108.604 30.248C108.465 30.0229 108.392 29.7628 108.394 29.4981C108.403 29.2336 108.473 28.9748 108.601 28.7428C108.728 28.5109 108.908 28.3123 109.127 28.1633C109.59 27.8394 110.144 27.6697 110.709 27.6783C111.432 27.7153 112.126 27.9695 112.701 28.4076C112.804 28.4774 112.875 28.5848 112.898 28.7065C112.922 28.8282 112.897 28.9544 112.829 29.0577C112.796 29.1103 112.753 29.1557 112.703 29.1913C112.652 29.2269 112.595 29.2518 112.535 29.2647C112.474 29.2775 112.412 29.278 112.351 29.2661C112.29 29.2542 112.233 29.2301 112.182 29.1953C111.762 28.8559 111.248 28.652 110.709 28.6105C110.341 28.6027 109.98 28.711 109.677 28.9201C109.578 28.982 109.495 29.0667 109.435 29.1673C109.375 29.2678 109.341 29.3813 109.333 29.4981C109.327 29.5877 109.35 29.6769 109.399 29.7526C109.463 29.8475 109.546 29.9282 109.643 29.99C109.995 30.1984 110.384 30.3352 110.789 30.3925H110.806C111.241 30.4691 111.665 30.5985 112.068 30.7777C112.439 30.9386 112.755 31.2025 112.98 31.538C113.124 31.7704 113.2 32.0385 113.2 32.312C113.189 32.5904 113.113 32.8623 112.977 33.1056C112.842 33.3489 112.65 33.5567 112.419 33.7121C111.923 34.0584 111.331 34.2402 110.727 34.2315C109.867 34.1897 109.044 33.8684 108.384 33.3165C108.297 33.2369 108.242 33.1287 108.229 33.0117C108.216 32.8948 108.245 32.777 108.312 32.6801Z" fill="#EBEBEB"/>
<path d="M114.321 32.6801C114.402 32.5843 114.518 32.5242 114.642 32.5126C114.767 32.501 114.892 32.5389 114.989 32.6181C115.481 33.0292 116.093 33.2705 116.733 33.3061C117.141 33.3115 117.541 33.1914 117.878 32.9621C117.992 32.8916 118.087 32.7948 118.155 32.6798C118.224 32.5649 118.263 32.4351 118.271 32.3017C118.272 32.1982 118.244 32.0965 118.188 32.0093C118.118 31.8989 118.024 31.806 117.913 31.7375C117.526 31.5167 117.101 31.3697 116.661 31.3041H116.643C116.237 31.239 115.841 31.1234 115.464 30.9601C115.118 30.8095 114.823 30.5623 114.614 30.248C114.473 30.0232 114.399 29.7632 114.401 29.4981C114.41 29.2337 114.481 28.9753 114.608 28.7434C114.735 28.5116 114.915 28.3129 115.133 28.1633C115.597 27.8394 116.15 27.6697 116.716 27.6783C117.438 27.7153 118.132 27.9695 118.707 28.4076C118.811 28.4769 118.882 28.584 118.907 28.7058C118.931 28.8275 118.906 28.954 118.838 29.0577C118.805 29.1104 118.762 29.1559 118.711 29.1915C118.661 29.2271 118.603 29.2521 118.542 29.2649C118.482 29.2778 118.419 29.2782 118.358 29.2663C118.297 29.2543 118.239 29.2302 118.188 29.1953C117.768 28.8559 117.254 28.652 116.716 28.6105C116.348 28.6027 115.987 28.711 115.684 28.9201C115.584 28.982 115.501 29.0667 115.441 29.1673C115.382 29.2678 115.347 29.3813 115.34 29.4981C115.335 29.5876 115.358 29.6763 115.405 29.7526C115.47 29.8483 115.554 29.9291 115.653 29.99C116.003 30.198 116.391 30.3348 116.795 30.3925H116.812C117.247 30.4681 117.671 30.5975 118.075 30.7777C118.446 30.9386 118.763 31.2024 118.99 31.538C119.134 31.7704 119.21 32.0385 119.21 32.312C119.198 32.5906 119.121 32.8626 118.985 33.1059C118.849 33.3492 118.657 33.5569 118.425 33.7121C117.93 34.0591 117.338 34.2409 116.733 34.2315C115.874 34.1904 115.052 33.869 114.394 33.3165C114.306 33.2377 114.25 33.1293 114.236 33.012C114.223 32.8947 114.253 32.7765 114.321 32.6801Z" fill="#EBEBEB"/>
<path d="M142.481 37.0901H105.312V63.4095H142.481V37.0901Z" fill="white"/>
<path d="M142.657 63.5815H105.14V36.9181H142.657V63.5815ZM105.484 63.2375H142.313V37.2621H105.484V63.2375Z" fill="#EBEBEB"/>
<path d="M142.481 37.0901H105.312V40.3718H142.481V37.0901Z" fill="#7F80A4"/>
<path d="M142.657 40.5473H105.14V36.9181H142.657V40.5473ZM105.484 40.2033H142.313V37.2621H105.484V40.2033Z" fill="#EBEBEB"/>
<path d="M108.394 38.755C108.394 38.9183 108.346 39.078 108.255 39.2137C108.165 39.3495 108.036 39.4553 107.885 39.5178C107.734 39.5803 107.568 39.5966 107.408 39.5648C107.248 39.5329 107.1 39.4543 106.985 39.3388C106.87 39.2234 106.791 39.0763 106.759 38.9161C106.727 38.756 106.744 38.59 106.806 38.4391C106.868 38.2882 106.974 38.1593 107.11 38.0686C107.246 37.9779 107.405 37.9294 107.569 37.9294C107.677 37.9294 107.785 37.9508 107.885 37.9923C107.985 38.0338 108.076 38.0946 108.153 38.1713C108.229 38.2479 108.29 38.3389 108.332 38.4391C108.373 38.5393 108.394 38.6466 108.394 38.755Z" fill="#A6A6A6"/>
<path d="M111.769 38.7551C111.77 38.9193 111.722 39.0801 111.631 39.2169C111.54 39.3538 111.41 39.4606 111.259 39.5238C111.107 39.5869 110.94 39.6036 110.779 39.5718C110.618 39.5399 110.47 39.4609 110.354 39.3447C110.238 39.2286 110.159 39.0805 110.127 38.9194C110.095 38.7582 110.112 38.5913 110.175 38.4396C110.238 38.288 110.345 38.1586 110.482 38.0677C110.618 37.9769 110.779 37.9288 110.943 37.9295C111.052 37.9295 111.159 37.9508 111.259 37.9923C111.36 38.0338 111.451 38.0946 111.527 38.1713C111.604 38.2479 111.665 38.3389 111.706 38.4391C111.748 38.5393 111.769 38.6466 111.769 38.7551Z" fill="#EBEBEB"/>
<path d="M115.144 38.7551C115.144 38.9192 115.096 39.0798 115.006 39.2166C114.915 39.3534 114.786 39.4602 114.634 39.5234C114.483 39.5867 114.316 39.6036 114.155 39.572C113.994 39.5404 113.846 39.4617 113.73 39.3459C113.613 39.2301 113.534 39.0824 113.502 38.9215C113.47 38.7606 113.486 38.5937 113.548 38.442C113.611 38.2903 113.717 38.1607 113.854 38.0694C113.99 37.9782 114.151 37.9295 114.315 37.9295C114.423 37.929 114.531 37.95 114.632 37.9913C114.732 38.0326 114.824 38.0933 114.901 38.17C114.978 38.2468 115.039 38.3379 115.08 38.4383C115.122 38.5387 115.144 38.6463 115.144 38.7551Z" fill="white"/>
<path d="M110.589 46.9044H108.835V47.5443H110.589V46.9044Z" fill="#EBEBEB"/>
<path d="M123.788 46.9044H111.869V47.5443H123.788V46.9044Z" fill="#EBEBEB"/>
<path d="M128.198 46.9044H124.865V47.5443H128.198V46.9044Z" fill="#7F80A4"/>
<path d="M135.825 55.4838H132.492V56.1236H135.825V55.4838Z" fill="#EBEBEB"/>
<path d="M134.686 46.9044H128.924V47.5443H134.686V46.9044Z" fill="#A6A6A6"/>
<path d="M112.344 48.621H110.589V49.2608H112.344V48.621Z" fill="#EBEBEB"/>
<path d="M121.318 48.621H113.582V49.2608H121.318V48.621Z" fill="#A6A6A6"/>
<path d="M131.7 55.4838H123.964V56.1236H131.7V55.4838Z" fill="#A6A6A6"/>
<path d="M119.014 53.7672H111.869V54.4071H119.014V53.7672Z" fill="#A6A6A6"/>
<path d="M116.96 50.3375H113.582V50.9774H116.96V50.3375Z" fill="#7F80A4"/>
<path d="M130.476 52.0542H127.098V52.694H130.476V52.0542Z" fill="#A6A6A6"/>
<path d="M129.341 50.3375H117.94V50.9774H129.341V50.3375Z" fill="#A6A6A6"/>
<path d="M123.269 55.4838H111.869V56.1236H123.269V55.4838Z" fill="#7F80A4"/>
<path d="M137.7 48.621H128.553V49.2608H137.7V48.621Z" fill="#7F80A4"/>
<path d="M127.83 48.621H122.148V49.2608H127.83V48.621Z" fill="#EBEBEB"/>
<path d="M135.687 50.3375H130.004V50.9774H135.687V50.3375Z" fill="#EBEBEB"/>
<path d="M112.344 50.3375H110.589V50.9774H112.344V50.3375Z" fill="#EBEBEB"/>
<path d="M110.589 52.0542H108.835V52.694H110.589V52.0542Z" fill="#A6A6A6"/>
<path d="M116.764 52.0542H111.869V52.694H116.764V52.0542Z" fill="#EBEBEB"/>
<path d="M118.477 57.2003H113.582V57.8402H118.477V57.2003Z" fill="#EBEBEB"/>
<path d="M132.595 58.917H124.707V59.5568H132.595V58.917Z" fill="#7F80A4"/>
<path d="M126.984 57.2003H119.32V57.8402H126.984V57.2003Z" fill="#7F80A4"/>
<path d="M123.799 58.917H117.483V59.5568H123.799V58.917Z" fill="#EBEBEB"/>
<path d="M137.7 57.2003H127.882V57.8402H137.7V57.2003Z" fill="#A6A6A6"/>
<path d="M116.585 58.917H113.582V59.5568H116.585V58.917Z" fill="#A6A6A6"/>
<path d="M128.198 53.7672H119.726V54.4071H128.198V53.7672Z" fill="#EBEBEB"/>
<path d="M136.059 53.7672H128.924V54.4071H136.059V53.7672Z" fill="#7F80A4"/>
<path d="M126.279 52.0542H117.82V52.694H126.279V52.0542Z" fill="#7F80A4"/>
<path d="M110.589 53.7672H108.835V54.4071H110.589V53.7672Z" fill="#EBEBEB"/>
<path d="M110.589 55.4838H108.835V56.1236H110.589V55.4838Z" fill="#EBEBEB"/>
<path d="M112.344 57.2003H110.589V57.8402H112.344V57.2003Z" fill="#A6A6A6"/>
<path d="M112.344 58.917H110.589V59.5568H112.344V58.917Z" fill="#EBEBEB"/>
<path d="M110.534 45.2946L111.122 43.8876C111.137 43.856 111.164 43.8312 111.196 43.8185C111.229 43.8057 111.265 43.8058 111.298 43.8188C111.329 43.8331 111.354 43.859 111.367 43.891C111.379 43.9231 111.379 43.9588 111.367 43.9908L110.768 45.4081C110.757 45.4314 110.741 45.4512 110.719 45.4652C110.698 45.4792 110.673 45.4868 110.648 45.4872C110.632 45.4908 110.615 45.4908 110.599 45.4872C110.581 45.481 110.564 45.4706 110.55 45.4567C110.536 45.4428 110.525 45.4259 110.519 45.4072C110.512 45.3885 110.51 45.3686 110.513 45.3491C110.516 45.3295 110.523 45.3109 110.534 45.2946Z" fill="#7F80A4"/>
<path d="M112.533 44.7201L112.515 44.7373L111.827 45.4253C111.814 45.4397 111.797 45.4511 111.779 45.4588C111.761 45.4664 111.741 45.4703 111.721 45.47C111.7 45.4703 111.68 45.4666 111.661 45.4589C111.642 45.4512 111.625 45.4398 111.611 45.4253C111.582 45.3963 111.567 45.3574 111.567 45.3169C111.567 45.2764 111.582 45.2375 111.611 45.2085L112.182 44.6341L111.611 44.0561C111.582 44.0272 111.567 43.9883 111.567 43.9478C111.567 43.9073 111.582 43.8684 111.611 43.8394C111.641 43.8126 111.679 43.7977 111.719 43.7977C111.759 43.7977 111.798 43.8126 111.827 43.8394L112.515 44.5274H112.533V44.5515V44.5721V44.6341C112.533 44.6421 112.533 44.6501 112.533 44.6581C112.526 44.6673 112.523 44.6781 112.523 44.6891C112.523 44.7001 112.526 44.7109 112.533 44.7201Z" fill="#7F80A4"/>
<path d="M159.657 61.1082H132.443V78.4698H159.657V61.1082Z" fill="white"/>
<path d="M159.829 78.6385H132.271V60.9363H159.829V78.6385ZM132.615 78.2945H159.485V61.2803H132.615V78.2945Z" fill="#EBEBEB"/>
<path d="M159.657 61.1082H132.443V64.3899H159.657V61.1082Z" fill="#7F80A4"/>
<path d="M159.829 64.562H132.271V60.9363H159.829V64.562ZM132.615 64.218H159.485V61.2803H132.615V64.218Z" fill="#EBEBEB"/>
<path d="M135.536 62.7731C135.537 62.9372 135.489 63.0979 135.398 63.2346C135.307 63.3714 135.178 63.4782 135.027 63.5415C134.875 63.6048 134.708 63.6217 134.547 63.5901C134.386 63.5585 134.238 63.4798 134.122 63.364C134.006 63.2482 133.926 63.1005 133.894 62.9396C133.862 62.7787 133.878 62.6118 133.941 62.4601C134.003 62.3084 134.11 62.1787 134.246 62.0875C134.382 61.9962 134.543 61.9475 134.707 61.9475C134.816 61.9471 134.923 61.9681 135.024 62.0094C135.125 62.0507 135.216 62.1114 135.293 62.1881C135.37 62.2648 135.431 62.356 135.473 62.4564C135.515 62.5568 135.536 62.6644 135.536 62.7731Z" fill="#A6A6A6"/>
<path d="M138.897 62.7731C138.897 62.9364 138.848 63.096 138.758 63.2318C138.667 63.3676 138.538 63.4734 138.387 63.5359C138.236 63.5984 138.07 63.6147 137.91 63.5829C137.75 63.551 137.603 63.4724 137.487 63.3569C137.372 63.2414 137.293 63.0943 137.262 62.9342C137.23 62.774 137.246 62.608 137.309 62.4572C137.371 62.3063 137.477 62.1774 137.613 62.0867C137.748 61.9959 137.908 61.9475 138.071 61.9475C138.18 61.9471 138.287 61.9681 138.388 62.0094C138.488 62.0508 138.579 62.1116 138.656 62.1883C138.733 62.2651 138.794 62.3563 138.835 62.4566C138.876 62.557 138.897 62.6646 138.897 62.7731Z" fill="#EBEBEB"/>
<path d="M142.271 62.7731C142.271 62.9364 142.223 63.096 142.132 63.2318C142.042 63.3676 141.913 63.4734 141.762 63.5359C141.611 63.5984 141.445 63.6147 141.285 63.5829C141.125 63.551 140.978 63.4724 140.862 63.3569C140.747 63.2414 140.668 63.0943 140.636 62.9342C140.604 62.774 140.621 62.608 140.683 62.4572C140.746 62.3063 140.851 62.1774 140.987 62.0867C141.123 61.9959 141.283 61.9475 141.446 61.9475C141.554 61.9471 141.662 61.9681 141.762 62.0094C141.863 62.0508 141.954 62.1116 142.031 62.1883C142.107 62.2651 142.168 62.3563 142.21 62.4566C142.251 62.557 142.272 62.6646 142.271 62.7731Z" fill="white"/>
<path d="M137.524 70.8813C137.541 70.0028 137.902 69.166 138.529 68.5506C139.156 67.9351 140 67.5899 140.878 67.5892C141.643 67.5836 142.387 67.8357 142.99 68.3047C143.09 68.3931 143.152 68.516 143.165 68.6485C143.177 68.781 143.139 68.9133 143.058 69.0188C142.977 69.1244 142.859 69.1952 142.728 69.2172C142.596 69.2392 142.462 69.2106 142.351 69.1372C141.935 68.8007 141.413 68.6216 140.878 68.6315C140.266 68.6347 139.678 68.8708 139.234 69.292C139.024 69.5 138.857 69.7475 138.742 70.0202C138.628 70.2929 138.568 70.5855 138.567 70.8813C138.566 71.1779 138.625 71.4716 138.739 71.7451C138.854 72.0187 139.022 72.2665 139.234 72.474C139.679 72.8939 140.267 73.1288 140.878 73.131C141.413 73.1411 141.934 72.9633 142.351 72.6288C142.464 72.553 142.601 72.5213 142.736 72.5396C142.871 72.558 142.995 72.6252 143.083 72.7286C143.164 72.8397 143.199 72.9772 143.182 73.1133C143.164 73.2494 143.096 73.3738 142.99 73.4613C142.386 73.9279 141.642 74.1786 140.878 74.1734C139.999 74.1762 139.153 73.8322 138.525 73.216C137.898 72.5997 137.538 71.7609 137.524 70.8813Z" fill="#EBEBEB"/>
<path d="M146.293 71.4592H144.993C144.859 71.4592 144.732 71.4063 144.637 71.3121C144.543 71.2179 144.49 71.0902 144.49 70.957C144.491 70.8237 144.544 70.6962 144.638 70.6016C144.732 70.5071 144.859 70.4531 144.993 70.4513H146.293V69.182C146.292 69.1133 146.305 69.0452 146.33 68.9816C146.356 68.9179 146.394 68.8601 146.443 68.8114C146.491 68.7627 146.549 68.7242 146.612 68.698C146.676 68.6718 146.744 68.6586 146.812 68.6591C146.951 68.6591 147.084 68.7142 147.182 68.8122C147.28 68.9103 147.335 69.0433 147.335 69.182V70.4513H148.632C148.765 70.4531 148.893 70.5071 148.986 70.6016C149.08 70.6962 149.133 70.8237 149.134 70.957C149.134 71.0902 149.081 71.2179 148.987 71.3121C148.893 71.4063 148.765 71.4592 148.632 71.4592H147.335V72.7286C147.335 72.8673 147.28 73.0003 147.182 73.0983C147.084 73.1964 146.951 73.2515 146.812 73.2515C146.744 73.2519 146.676 73.2387 146.612 73.2125C146.549 73.1864 146.491 73.1478 146.443 73.0991C146.394 73.0505 146.356 72.9926 146.33 72.929C146.305 72.8653 146.292 72.7972 146.293 72.7286V71.4592Z" fill="#EBEBEB"/>
<path d="M151.962 71.4592H150.672C150.539 71.4592 150.411 71.4063 150.317 71.3121C150.223 71.2179 150.17 71.0902 150.17 70.957C150.171 70.8237 150.224 70.6962 150.318 70.6016C150.412 70.5071 150.539 70.4531 150.672 70.4513H151.972V69.182C151.971 69.1133 151.984 69.0452 152.01 68.9816C152.036 68.9179 152.074 68.8601 152.122 68.8114C152.171 68.7627 152.228 68.7242 152.292 68.698C152.355 68.6718 152.423 68.6586 152.492 68.6591C152.63 68.66 152.763 68.7154 152.86 68.8132C152.958 68.9111 153.014 69.0436 153.015 69.182V70.4513H154.311C154.445 70.4531 154.572 70.5071 154.666 70.6016C154.76 70.6962 154.813 70.8237 154.814 70.957C154.814 71.0902 154.761 71.2179 154.667 71.3121C154.572 71.4063 154.445 71.4592 154.311 71.4592H153.015V72.7286C153.014 72.867 152.958 72.9995 152.86 73.0973C152.763 73.1952 152.63 73.2506 152.492 73.2515C152.423 73.2519 152.355 73.2387 152.292 73.2125C152.228 73.1864 152.171 73.1478 152.122 73.0991C152.074 73.0505 152.036 72.9926 152.01 72.929C151.984 72.8653 151.971 72.7972 151.972 72.7286L151.962 71.4592Z" fill="#EBEBEB"/>
<path d="M155.316 32.2638H136.778V39.1266H155.316V32.2638Z" fill="#455A64"/>
<path d="M139.454 37.1211V34.0767C139.454 34.0391 139.461 34.0017 139.475 33.9669C139.489 33.932 139.51 33.9004 139.537 33.8738C139.563 33.8471 139.595 33.8261 139.63 33.812C139.665 33.7978 139.702 33.7907 139.74 33.7912C139.777 33.7907 139.815 33.7978 139.85 33.8119C139.885 33.826 139.917 33.847 139.944 33.8736C139.971 33.9001 139.992 33.9317 140.007 33.9666C140.021 34.0015 140.029 34.0389 140.029 34.0767V35.3151H141.363V34.0767C141.363 34.0391 141.37 34.0017 141.384 33.9669C141.398 33.932 141.419 33.9004 141.446 33.8738C141.473 33.8471 141.504 33.8261 141.539 33.812C141.574 33.7978 141.611 33.7907 141.649 33.7912C141.687 33.7907 141.724 33.7978 141.759 33.8119C141.794 33.826 141.826 33.847 141.853 33.8736C141.88 33.9001 141.901 33.9317 141.916 33.9666C141.93 34.0015 141.938 34.0389 141.938 34.0767V37.1211C141.937 37.1586 141.93 37.1956 141.915 37.2301C141.9 37.2646 141.879 37.2958 141.852 37.322C141.825 37.3482 141.793 37.3688 141.758 37.3827C141.724 37.3967 141.686 37.4036 141.649 37.4032C141.611 37.4041 141.574 37.3974 141.539 37.3836C141.504 37.3698 141.473 37.3492 141.446 37.3228C141.419 37.2965 141.398 37.265 141.384 37.2304C141.37 37.1957 141.363 37.1585 141.363 37.1211V35.8827H140.029V37.1211C140.028 37.1586 140.02 37.1956 140.006 37.2301C139.991 37.2646 139.969 37.2958 139.943 37.322C139.916 37.3482 139.884 37.3688 139.849 37.3827C139.814 37.3967 139.777 37.4036 139.74 37.4032C139.702 37.4041 139.665 37.3974 139.63 37.3836C139.595 37.3698 139.564 37.3492 139.537 37.3228C139.51 37.2965 139.489 37.265 139.475 37.2304C139.461 37.1957 139.454 37.1585 139.454 37.1211Z" fill="white"/>
<path d="M145.323 34.3656H144.501V37.1176C144.501 37.1548 144.494 37.1917 144.48 37.2261C144.466 37.2606 144.445 37.2918 144.419 37.3181C144.393 37.3444 144.361 37.3652 144.327 37.3792C144.293 37.3932 144.256 37.4002 144.219 37.3997C144.143 37.3997 144.071 37.3701 144.018 37.3173C143.964 37.2645 143.934 37.1928 143.933 37.1176V34.3656H143.104C143.067 34.3652 143.029 34.3574 142.995 34.3426C142.961 34.3278 142.929 34.3064 142.903 34.2796C142.877 34.2528 142.856 34.221 142.842 34.1862C142.828 34.1514 142.821 34.1142 142.822 34.0767C142.821 34.0392 142.828 34.002 142.841 33.9671C142.855 33.9323 142.876 33.9006 142.902 33.8739C142.929 33.8473 142.96 33.8262 142.995 33.812C143.029 33.7978 143.067 33.7907 143.104 33.7912H145.309C145.346 33.7912 145.383 33.7986 145.418 33.813C145.452 33.8273 145.483 33.8484 145.51 33.875C145.536 33.9015 145.557 33.9331 145.571 33.9677C145.585 34.0023 145.592 34.0393 145.591 34.0767C145.591 34.1499 145.564 34.2204 145.514 34.274C145.464 34.3277 145.396 34.3604 145.323 34.3656Z" fill="white"/>
<path d="M149.564 34.0767V37.1211C149.563 37.1965 149.531 37.2683 149.477 37.321C149.423 37.3737 149.351 37.4032 149.275 37.4032C149.238 37.4036 149.201 37.3966 149.166 37.3827C149.132 37.3687 149.1 37.348 149.074 37.3218C149.047 37.2955 149.026 37.2643 149.012 37.2298C148.997 37.1954 148.99 37.1584 148.99 37.1211V34.947L148.247 35.979C148.221 36.0165 148.187 36.0471 148.147 36.0681C148.106 36.0891 148.062 36.0999 148.016 36.0994C147.97 36.1001 147.924 36.0895 147.883 36.0685C147.841 36.0476 147.806 36.0168 147.779 35.979L147.039 34.947V37.1211C147.039 37.1968 147.009 37.2694 146.956 37.323C146.902 37.3765 146.83 37.4066 146.754 37.4066C146.678 37.4066 146.605 37.3765 146.552 37.323C146.498 37.2694 146.468 37.1968 146.468 37.1211V34.0767C146.468 34.0015 146.498 33.9294 146.551 33.876C146.604 33.8225 146.675 33.7921 146.75 33.7912H146.768C146.812 33.7912 146.856 33.8022 146.896 33.8232C146.936 33.8442 146.969 33.8745 146.995 33.9116L148.027 35.3357L149.059 33.9116C149.084 33.874 149.119 33.8434 149.159 33.8224C149.199 33.8014 149.244 33.7907 149.289 33.7912C149.362 33.7962 149.431 33.8282 149.482 33.881C149.532 33.9337 149.562 34.0035 149.564 34.0767Z" fill="white"/>
<path d="M150.813 37.1211V34.0767C150.813 34.0015 150.843 33.9294 150.895 33.876C150.948 33.8225 151.02 33.792 151.095 33.7911C151.171 33.7911 151.244 33.8211 151.298 33.8745C151.352 33.928 151.383 34.0006 151.384 34.0767V36.8287H152.784C152.86 36.8287 152.932 36.8587 152.986 36.9123C153.04 36.9658 153.07 37.0385 153.07 37.1142C153.07 37.1899 153.04 37.2625 152.986 37.3161C152.932 37.3696 152.86 37.3997 152.784 37.3997H151.095C151.021 37.3997 150.95 37.3705 150.897 37.3183C150.844 37.2661 150.814 37.1953 150.813 37.1211Z" fill="white"/>
<path d="M108.391 54.5H93.1139V61.3628H108.391V54.5Z" fill="#455A64"/>
<path d="M97.6581 58.2392H97.0252V59.3572C97.0174 59.428 96.9838 59.4934 96.9308 59.5409C96.8778 59.5884 96.8091 59.6147 96.7379 59.6147C96.6667 59.6147 96.5981 59.5884 96.5451 59.5409C96.492 59.4934 96.4584 59.428 96.4507 59.3572V56.3128C96.4516 56.2377 96.4821 56.166 96.5355 56.1132C96.589 56.0604 96.6611 56.0308 96.7362 56.0308H97.6581C97.8031 56.0308 97.9467 56.0593 98.0807 56.1148C98.2147 56.1703 98.3364 56.2516 98.4389 56.3542C98.5415 56.4567 98.6228 56.5785 98.6783 56.7124C98.7338 56.8464 98.7624 56.99 98.7624 57.135C98.7624 57.28 98.7338 57.4236 98.6783 57.5576C98.6228 57.6915 98.5415 57.8133 98.4389 57.9158C98.3364 58.0184 98.2147 58.0997 98.0807 58.1552C97.9467 58.2107 97.8031 58.2392 97.6581 58.2392ZM97.0252 57.6648H97.6581C97.7315 57.6707 97.8053 57.6613 97.8749 57.6373C97.9445 57.6133 98.0084 57.5751 98.0625 57.5251C98.1166 57.4752 98.1598 57.4146 98.1893 57.3472C98.2189 57.2797 98.2341 57.2069 98.2341 57.1333C98.2341 57.0597 98.2189 56.9868 98.1893 56.9194C98.1598 56.8519 98.1166 56.7913 98.0625 56.7414C98.0084 56.6915 97.9445 56.6533 97.8749 56.6293C97.8053 56.6052 97.7315 56.5959 97.6581 56.6018H97.0252V57.6648Z" fill="white"/>
<path d="M99.4607 59.3573V56.3129C99.4607 56.2371 99.4908 56.1645 99.5443 56.111C99.5979 56.0574 99.6705 56.0273 99.7462 56.0273C99.8219 56.0273 99.8946 56.0574 99.9481 56.111C100.002 56.1645 100.032 56.2371 100.032 56.3129V57.5513H101.37V56.3129C101.369 56.2754 101.377 56.2382 101.391 56.2036C101.405 56.1689 101.426 56.1375 101.453 56.1111C101.479 56.0848 101.511 56.0641 101.546 56.0503C101.581 56.0365 101.618 56.0299 101.655 56.0308C101.693 56.0303 101.73 56.0373 101.765 56.0512C101.8 56.0651 101.831 56.0858 101.858 56.112C101.885 56.1382 101.907 56.1694 101.921 56.2039C101.936 56.2383 101.944 56.2754 101.944 56.3129V59.3573C101.944 59.3951 101.937 59.4325 101.922 59.4673C101.908 59.5022 101.886 59.5338 101.86 59.5604C101.833 59.5869 101.801 59.6079 101.766 59.622C101.731 59.6362 101.693 59.6432 101.655 59.6428C101.618 59.6432 101.58 59.6362 101.546 59.622C101.511 59.6078 101.479 59.5868 101.452 59.5602C101.426 59.5336 101.405 59.5019 101.391 59.4671C101.377 59.4322 101.369 59.3949 101.37 59.3573V58.1361H100.032V59.3745C100.032 59.4502 100.002 59.5228 99.9481 59.5764C99.8946 59.6299 99.8219 59.66 99.7462 59.66C99.6705 59.66 99.5979 59.6299 99.5443 59.5764C99.4908 59.5228 99.4607 59.4502 99.4607 59.3745V59.3573Z" fill="white"/>
<path d="M104.328 58.2392H103.692V59.3572C103.691 59.4333 103.66 59.5059 103.606 59.5593C103.552 59.6128 103.479 59.6428 103.403 59.6428C103.328 59.6419 103.256 59.6114 103.203 59.5579C103.15 59.5045 103.121 59.4324 103.121 59.3572V56.3128C103.121 56.238 103.151 56.1663 103.203 56.1134C103.256 56.0605 103.328 56.0308 103.403 56.0308H104.328C104.473 56.0308 104.617 56.0593 104.751 56.1148C104.885 56.1703 105.007 56.2516 105.109 56.3542C105.212 56.4567 105.293 56.5785 105.348 56.7124C105.404 56.8464 105.433 56.99 105.433 57.135C105.433 57.28 105.404 57.4236 105.348 57.5576C105.293 57.6915 105.212 57.8133 105.109 57.9158C105.007 58.0184 104.885 58.0997 104.751 58.1552C104.617 58.2107 104.473 58.2392 104.328 58.2392ZM103.692 57.6648H104.328C104.402 57.6707 104.476 57.6613 104.545 57.6373C104.615 57.6133 104.679 57.5751 104.733 57.5251C104.787 57.4752 104.83 57.4146 104.86 57.3472C104.889 57.2797 104.904 57.2069 104.904 57.1333C104.904 57.0597 104.889 56.9868 104.86 56.9194C104.83 56.8519 104.787 56.7913 104.733 56.7414C104.679 56.6915 104.615 56.6533 104.545 56.6293C104.476 56.6052 104.402 56.5959 104.328 56.6018H103.692V57.6648Z" fill="white"/>
<path d="M88.58 111.604L89.4675 116.939L95.4944 149.485H96.4679L92.0853 116.939L91.4352 111.604H88.58Z" fill="#A6A6A6"/>
<path d="M91.4352 111.604H88.58L89.4675 116.939H92.0853L91.4352 111.604Z" fill="#263238"/>
<path d="M69.6531 149.485H70.6266L76.65 116.939L77.541 111.604H74.6824L74.0356 116.939L69.6531 149.485Z" fill="#A6A6A6"/>
<path d="M74.6824 111.604L74.0356 116.939H76.65L77.541 111.604H74.6824Z" fill="#263238"/>
<path d="M51.5793 149.485H52.5494L58.5763 116.939L59.4638 111.604H56.6086L55.9619 116.939L51.5793 149.485Z" fill="#A6A6A6"/>
<path d="M55.9619 116.939H58.5763L59.4638 111.604H56.6086L55.9619 116.939Z" fill="#263238"/>
<path d="M53.117 114.112H97.2797V109.457H80.7471L75.1915 70.2517H54.8026L53.117 114.112Z" fill="#A6A6A6"/>
<path d="M53.117 114.112H55.525L57.0936 70.2517H54.8026L53.117 114.112Z" fill="#DBDBDB"/>
<path d="M82.0818 73.3442L81.2287 73.2548C81.2528 72.1574 80.7333 70.4202 80.8228 71.2768C80.8672 71.9213 80.8383 72.5687 80.7368 73.2066L67.7129 71.8719C67.7129 70.2138 68.7209 67.5926 68.7209 67.5926C67.7473 68.8654 67.2279 70.7539 67.0009 71.7997L65.6249 71.6586C65.587 70.6645 66.103 69.027 66.103 69.027C65.6627 69.6497 65.3118 70.8606 65.1295 71.6105L63.5781 71.4488C63.7989 69.3936 64.6386 67.4539 65.9861 65.8863C67.1935 64.4243 67.7061 63.155 67.9125 59.7597C68.1464 55.6833 70.9878 54.5515 71.4281 54.1009C75.3188 50.107 81.7275 54.1387 81.0877 59.2024C80.6061 63.0139 80.1589 63.4267 81.5624 67.0353C82.6219 69.746 82.0818 73.3442 82.0818 73.3442Z" fill="#263238"/>
<path d="M73.5507 71.6518C75.5218 78.8345 77.1661 84.4005 79.2232 85.7558C80.8848 86.8463 83.2171 87.6134 85.6148 88.1638C88.1796 88.7015 90.7764 89.0726 93.3892 89.2749C94.1941 89.3403 94.8649 89.3816 95.3396 89.416C96.5161 89.4917 98.4356 81.7241 97.61 80.7781C97.4174 80.5614 96.6434 80.3929 95.546 80.2553C91.8859 79.7977 84.6756 79.6877 84.2456 79.2783C83.8156 78.8689 81.4936 75.7764 78.3288 71.7344C76.1548 68.9411 74.3728 68.1189 73.6436 68.8929C73.2445 69.3161 73.1723 70.2655 73.5507 71.6518Z" fill="#EB9481"/>
<path d="M92.9798 88.6145C94.1164 89.1207 95.2851 89.5516 96.4782 89.9045C97.4311 90.1418 100.187 90.7541 100.551 89.7325C100.802 89.0445 99.2234 88.4837 98.1157 88.0709C97.5343 87.8542 96.8016 87.2763 96.9598 86.9013C97.2316 86.2443 98.7349 86.8394 99.729 87.3692C101.649 88.4012 104.229 90.2657 105.343 89.2715C105.763 88.8931 105.233 88.2567 104.473 87.6375C105.697 88.3461 106.998 88.9137 107.479 88.5147C107.605 88.4122 107.686 88.2655 107.706 88.1049C107.727 87.9443 107.685 87.782 107.589 87.6513C107.743 87.7169 107.912 87.735 108.076 87.7031C108.24 87.6712 108.39 87.5908 108.508 87.4724C108.883 87.0527 108.67 86.4576 108.222 85.8556C108.295 85.8452 108.364 85.8176 108.424 85.7751C108.484 85.7326 108.533 85.6765 108.566 85.6113C109.344 84.3248 105.085 80.8676 103.647 80.5855C99.4126 79.7427 94.9612 80.269 94.9612 80.269C93.3616 81.6485 92.9763 88.611 92.9798 88.6145Z" fill="#EB9481"/>
<path d="M99.0101 84.4727C100.017 84.5845 100.986 84.9181 101.848 85.4496C102.853 86.086 103.664 86.977 104.6 87.7028C104.628 87.7235 104.6 87.7613 104.569 87.7407C104.129 87.3623 103.647 87.0286 103.193 86.6674C102.739 86.3062 102.312 85.9484 101.845 85.6354C100.998 85.0459 100.029 84.6565 99.0101 84.4967C99.0101 84.4967 98.9963 84.4727 99.0101 84.4727Z" fill="#263238"/>
<path d="M99.7256 82.6632C100.856 82.8876 101.962 83.2252 103.025 83.6711C104.167 84.2009 105.089 85.1022 105.973 85.9656C106.509 86.4839 107.036 87.0148 107.552 87.5583C107.572 87.579 107.552 87.6168 107.517 87.5962C106.6 86.7018 105.664 85.836 104.71 84.999C103.824 84.2169 102.792 83.6183 101.673 83.2377C101.033 83.0175 100.376 82.8524 99.7221 82.6838C99.7084 82.6804 99.7118 82.6632 99.7256 82.6632Z" fill="#263238"/>
<path d="M100.847 81.0636C101.927 81.2425 102.87 81.4076 103.84 81.9374C104.93 82.6072 105.933 83.409 106.826 84.3247C107.314 84.8098 107.786 85.312 108.25 85.8177C108.271 85.8383 108.233 85.8727 108.216 85.8521C107.154 84.7408 106.021 83.6997 104.824 82.7354C104.262 82.266 103.631 81.8876 102.952 81.614C102.266 81.3726 101.561 81.1907 100.844 81.0705C100.844 81.0705 100.84 81.0636 100.847 81.0636Z" fill="#263238"/>
<path d="M73.5507 71.6518C75.5218 78.8345 77.1661 84.4004 79.2232 85.7558C80.8848 86.8463 83.2171 87.6134 85.6148 88.1638L73.6539 68.8998C73.2445 69.316 73.1723 70.2655 73.5507 71.6518Z" fill="#263238"/>
<path d="M72.928 70.4408C73.1344 72.6287 74.5689 76.392 74.5689 76.392L82.161 75.7488C82.161 75.7488 79.2267 71.4488 76.172 69.0029C75.8856 68.7709 75.5698 68.5777 75.2328 68.4284C73.9016 67.8574 72.7354 68.3906 72.928 70.4408Z" fill="#7F80A4"/>
<path d="M72.928 70.4409C72.928 70.5544 72.9521 70.6748 72.9727 70.7849C72.9934 70.8949 73.0071 70.9741 73.0278 71.0738C73.401 72.8809 73.9163 74.6557 74.5689 76.3817L74.8716 76.3577L75.1675 76.3336L77.5548 76.1306L77.8988 76.0997L80.2759 75.8967L80.582 75.8726L81.4558 75.7969L75.2328 68.4285C73.9015 67.8574 72.7182 68.3941 72.928 70.4409Z" fill="#263238"/>
<path d="M128.047 149.468C127.228 149.74 103.193 149.54 102.306 148.966C102.199 148.904 102.171 146.73 102.182 143.754V143.696C102.156 141.595 102.018 139.497 101.769 137.411L101.728 137.067C101.095 131.518 100.008 126.124 100.008 126.124L115.051 126.069L117.115 137.077L117.153 137.421L117.576 141.522C117.576 141.522 120.816 142.898 123.637 144.249C125.378 145.082 126.888 145.842 127.235 146.121C128.154 146.847 128.866 149.203 128.047 149.468Z" fill="#EB9481"/>
<path d="M128.047 149.468C127.228 149.74 103.193 149.54 102.306 148.966C102.199 148.904 102.171 146.73 102.182 143.754V143.696C102.156 141.595 102.018 139.497 101.769 137.411L101.728 137.067H117.125L117.163 137.411L117.586 141.511C117.586 141.511 120.827 142.887 123.647 144.239C125.388 145.072 126.898 145.832 127.246 146.111C128.154 146.847 128.866 149.203 128.047 149.468Z" fill="#EBEBEB"/>
<path d="M128.147 149.561C127.304 149.833 103.238 149.561 102.326 148.983C101.982 148.763 101.659 145.048 102.03 140.947L117.545 141.133C117.545 141.133 126.417 145.354 127.349 146.107C128.281 146.861 129 149.296 128.147 149.561Z" fill="#7F80A4"/>
<path d="M127.813 148.608C123.778 148.464 107.5 148.264 103.503 148.436C103.468 148.436 103.468 148.46 103.503 148.46C107.497 148.691 123.778 148.752 127.81 148.673C127.896 148.656 127.896 148.608 127.813 148.608Z" fill="#263238"/>
<path d="M125.808 145.223C125.362 145.208 124.918 145.286 124.503 145.451C124.089 145.617 123.713 145.866 123.4 146.183C122.826 146.752 122.494 147.521 122.474 148.329C122.474 148.353 122.519 148.353 122.522 148.329C122.668 147.532 123.068 146.803 123.663 146.252C124.258 145.701 125.015 145.358 125.821 145.275C125.827 145.272 125.831 145.267 125.833 145.261C125.836 145.256 125.836 145.249 125.835 145.243C125.833 145.238 125.83 145.232 125.825 145.229C125.82 145.225 125.814 145.223 125.808 145.223Z" fill="#263238"/>
<path d="M118.807 141.549C117.194 141.511 115.316 142.062 114.297 143.369C114.26 143.421 114.332 143.476 114.38 143.452C115.8 142.726 117.293 142.155 118.835 141.749C118.857 141.74 118.875 141.725 118.887 141.705C118.899 141.685 118.904 141.661 118.901 141.638C118.898 141.615 118.887 141.593 118.87 141.577C118.853 141.561 118.831 141.551 118.807 141.549Z" fill="#263238"/>
<path d="M120.056 142.051C118.443 142.01 116.564 142.56 115.546 143.871C115.505 143.919 115.581 143.974 115.629 143.95C117.048 143.226 118.54 142.656 120.08 142.247C120.103 142.241 120.123 142.227 120.137 142.207C120.15 142.187 120.156 142.163 120.153 142.139C120.15 142.115 120.139 142.093 120.121 142.077C120.103 142.061 120.08 142.052 120.056 142.051Z" fill="#263238"/>
<path d="M121.291 142.55C119.674 142.509 117.796 143.059 116.781 144.37C116.74 144.418 116.812 144.477 116.86 144.452C118.285 143.725 119.784 143.154 121.332 142.75C121.355 142.741 121.374 142.724 121.386 142.703C121.398 142.681 121.401 142.656 121.397 142.632C121.392 142.608 121.378 142.587 121.359 142.572C121.34 142.557 121.315 142.549 121.291 142.55Z" fill="#263238"/>
<path d="M122.533 143.049C120.916 143.008 119.038 143.558 118.023 144.869C117.982 144.92 118.054 144.975 118.102 144.951C119.521 144.225 121.015 143.654 122.557 143.249C122.579 143.241 122.597 143.225 122.609 143.206C122.622 143.186 122.627 143.162 122.624 143.139C122.621 143.116 122.611 143.095 122.594 143.078C122.578 143.062 122.556 143.052 122.533 143.049Z" fill="#263238"/>
<path d="M104.576 144.6C102.767 144.6 102.739 147.404 104.555 147.418C106.372 147.431 106.385 144.618 104.576 144.6Z" fill="#263238"/>
<path d="M120.6 137.256C119.788 136.568 118.752 137.222 118.24 137.92C117.381 139.138 116.86 140.563 116.73 142.048C116.729 142.054 116.73 142.061 116.732 142.067C116.734 142.073 116.738 142.078 116.743 142.082C116.747 142.087 116.753 142.09 116.759 142.092C116.765 142.093 116.771 142.094 116.778 142.093C116.783 142.123 116.797 142.152 116.816 142.177C116.835 142.201 116.859 142.221 116.888 142.234C116.916 142.247 116.947 142.253 116.978 142.252C117.009 142.251 117.04 142.242 117.067 142.227C118.226 141.446 119.561 140.751 120.445 139.636C120.961 138.976 121.367 137.91 120.6 137.256ZM118.58 140.668C118.02 141.067 117.445 141.436 116.898 141.855C117.197 141.054 117.455 140.242 117.834 139.471C118.01 139.097 118.211 138.735 118.436 138.388C118.78 137.858 120.393 136.527 120.534 138.285C120.613 139.258 119.248 140.197 118.58 140.672V140.668Z" fill="#263238"/>
<path d="M112.712 142.591C114.115 142.822 115.57 142.44 116.953 142.247C116.983 142.24 117.012 142.226 117.035 142.205C117.059 142.185 117.078 142.16 117.09 142.131C117.102 142.102 117.107 142.071 117.105 142.04C117.102 142.009 117.093 141.978 117.077 141.952C117.082 141.948 117.086 141.943 117.089 141.937C117.092 141.931 117.093 141.925 117.093 141.919C117.093 141.913 117.092 141.906 117.089 141.901C117.086 141.895 117.082 141.89 117.077 141.886C115.981 140.881 114.641 140.181 113.19 139.857C112.344 139.685 111.126 139.898 110.999 140.954C110.875 141.941 111.893 142.457 112.712 142.591ZM111.745 141.663C110.668 140.266 112.749 140.177 113.369 140.328C113.768 140.435 114.16 140.568 114.542 140.727C115.34 141.043 116.076 141.467 116.836 141.859C116.148 141.917 115.477 142.031 114.793 142.113C113.978 142.21 112.34 142.433 111.745 141.663Z" fill="#263238"/>
<path d="M118.374 135.88L100.93 135.804C100.93 135.804 94.8855 112.543 93.4683 110.916C90.8435 107.902 69.9799 109.361 64.3143 103.111C58.8103 97.0562 64.3143 86.0963 64.3143 86.0963H79.7633C79.948 88.0719 80.242 90.0357 80.6439 91.9787C80.6439 91.9787 100.083 95.0747 105.856 101.057C110.262 105.608 118.374 135.88 118.374 135.88Z" fill="#37474F"/>
<path d="M117.173 133.128C116.097 133.042 115.027 132.932 113.95 132.887C112.873 132.842 111.79 132.822 110.709 132.805C108.563 132.77 106.418 132.77 104.273 132.805C103.062 132.829 101.865 132.88 100.637 132.887C100.606 132.887 100.613 132.942 100.637 132.942C102.815 132.942 104.999 133.028 107.173 133.083C109.347 133.138 111.435 133.207 113.568 133.241C114.769 133.259 115.976 133.224 117.163 133.214C117.225 133.228 117.225 133.128 117.173 133.128Z" fill="#263238"/>
<path d="M98.5079 118.401C97.8199 116.163 97.0711 113.943 96.2615 111.741C95.9175 110.802 95.6355 109.729 94.9612 108.962C94.287 108.195 93.3066 107.964 92.3743 107.761C87.9023 106.774 83.334 106.385 78.8311 105.605C76.6 105.239 74.3975 104.716 72.24 104.039C71.1819 103.718 70.1586 103.291 69.1853 102.767C68.3062 102.269 67.5204 101.621 66.8633 100.854C65.6329 99.3569 64.838 97.5504 64.5654 95.632C64.2721 93.3618 64.4775 91.055 65.1674 88.8724C65.3256 88.3392 65.5114 87.8094 65.7075 87.29C65.7075 87.259 65.6696 87.2452 65.6559 87.29C64.1492 91.2081 63.53 95.7317 65.6559 99.5501C66.1117 100.375 66.6918 101.124 67.3759 101.772C68.1293 102.469 68.9915 103.039 69.9283 103.458C71.9407 104.397 74.1561 104.954 76.3199 105.422C80.7919 106.385 85.3843 106.767 89.8975 107.569C90.9978 107.743 92.0885 107.972 93.1655 108.257C93.6758 108.378 94.1521 108.614 94.5588 108.945C94.9379 109.31 95.2306 109.755 95.4153 110.249C95.8556 111.298 96.2065 112.392 96.5815 113.468C96.9564 114.545 97.352 115.697 97.7167 116.815C99.1752 121.299 100.459 125.833 101.569 130.417L101.972 132.093C101.972 132.148 102.065 132.123 102.055 132.068C101.106 127.455 99.9222 122.894 98.5079 118.401Z" fill="#263238"/>
<path d="M101.79 153.527C100.943 153.703 77.1042 150.655 76.2889 149.981C76.1926 149.905 76.4471 147.748 76.7843 144.79C76.9803 143.07 77.3725 140.913 77.8163 138.718C79.0443 132.887 80.785 126.678 80.785 126.678L96.4129 129.285L93.2515 140.39L92.1679 144.174C92.1679 144.174 95.3809 146.117 98.0159 147.8C99.6431 148.832 101.057 149.767 101.367 150.084C102.209 150.937 102.636 153.359 101.79 153.527Z" fill="#EB9481"/>
<path d="M101.79 153.527C100.943 153.703 77.1042 150.655 76.2889 149.981C76.1926 149.905 76.4471 147.748 76.7843 144.79C76.9803 143.07 77.3725 140.913 77.8163 138.718L93.2515 140.386L92.1679 144.17C92.1679 144.17 95.3809 146.114 98.0159 147.796C99.6431 148.828 101.057 149.764 101.367 150.08C102.209 150.937 102.636 153.359 101.79 153.527Z" fill="#EBEBEB"/>
<path d="M101.889 153.61C101.019 153.785 77.142 150.768 76.3027 150.077C75.9862 149.815 76.3405 146.117 77.1799 142.089L92.2299 144.026C92.2299 144.026 100.651 149.234 101.48 150.087C102.309 150.94 102.756 153.424 101.889 153.61Z" fill="#7F80A4"/>
<path d="M101.666 152.612C97.6754 152.007 81.5246 149.95 77.5342 149.654C77.5032 149.654 77.4998 149.674 77.5342 149.681C81.473 150.369 97.641 152.292 101.659 152.678C101.741 152.684 101.752 152.626 101.666 152.612Z" fill="#263238"/>
<path d="M100.063 149.035C99.6182 148.968 99.1647 148.994 98.7311 149.113C98.2975 149.231 97.8934 149.439 97.5446 149.723C96.9115 150.223 96.4942 150.947 96.3785 151.745C96.3785 151.769 96.4232 151.776 96.4301 151.745C96.6654 150.97 97.1461 150.292 97.8 149.813C98.4538 149.334 99.2454 149.08 100.056 149.09C100.063 149.091 100.07 149.088 100.076 149.084C100.082 149.079 100.086 149.073 100.087 149.066C100.088 149.058 100.086 149.051 100.081 149.045C100.077 149.039 100.07 149.035 100.063 149.035Z" fill="#263238"/>
<path d="M93.5302 144.583C91.9306 144.36 90.0007 144.69 88.8414 145.873C88.7933 145.921 88.8621 145.983 88.9102 145.966C90.4039 145.409 91.9526 145.012 93.5302 144.783C93.5566 144.783 93.582 144.772 93.6007 144.754C93.6194 144.735 93.6299 144.709 93.6299 144.683C93.6299 144.657 93.6194 144.631 93.6007 144.612C93.582 144.594 93.5566 144.583 93.5302 144.583Z" fill="#263238"/>
<path d="M94.7032 145.223C93.107 144.996 91.1772 145.33 90.0145 146.513C89.9698 146.558 90.0351 146.623 90.0867 146.603C91.58 146.045 93.1289 145.649 94.7066 145.423C94.7331 145.422 94.7583 145.411 94.7767 145.392C94.7951 145.373 94.8051 145.348 94.8047 145.321C94.8042 145.295 94.7933 145.269 94.7742 145.251C94.7552 145.233 94.7296 145.223 94.7032 145.223Z" fill="#263238"/>
<path d="M95.8797 145.856C94.2801 145.632 92.3537 145.963 91.191 147.146C91.1463 147.194 91.2116 147.256 91.2632 147.239C92.7564 146.681 94.3053 146.285 95.8831 146.059C95.9068 146.054 95.928 146.041 95.9432 146.022C95.9583 146.004 95.9663 145.98 95.9659 145.956C95.9655 145.932 95.9567 145.909 95.9409 145.89C95.9252 145.872 95.9035 145.86 95.8797 145.856Z" fill="#263238"/>
<path d="M97.0562 146.499C95.4566 146.272 93.5302 146.606 92.3674 147.789C92.3227 147.834 92.3881 147.899 92.4397 147.879C93.9329 147.321 95.4818 146.925 97.0596 146.699C97.086 146.698 97.1112 146.687 97.1296 146.668C97.148 146.649 97.1581 146.624 97.1576 146.597C97.1572 146.571 97.1462 146.546 97.1272 146.527C97.1082 146.509 97.0826 146.499 97.0562 146.499Z" fill="#263238"/>
<path d="M79.034 145.983C77.2383 145.76 76.8909 148.553 78.69 148.777C80.4891 149 80.84 146.2 79.034 145.983Z" fill="#263238"/>
<path d="M95.8006 140.527C95.0747 139.753 93.9705 140.28 93.3926 140.916C92.3999 142.022 91.7154 143.37 91.4077 144.824C91.406 144.83 91.4059 144.837 91.4074 144.844C91.4089 144.85 91.412 144.857 91.4164 144.862C91.4208 144.867 91.4264 144.871 91.4327 144.873C91.4389 144.876 91.4457 144.876 91.4524 144.876C91.4551 144.907 91.4649 144.936 91.4812 144.963C91.4974 144.989 91.5196 145.012 91.546 145.028C91.5724 145.044 91.6023 145.054 91.6332 145.057C91.6641 145.06 91.6953 145.056 91.7242 145.044C92.966 144.397 94.3695 143.861 95.3775 142.856C95.976 142.271 96.4886 141.26 95.8006 140.527ZM93.3926 143.685C92.7871 144.029 92.1748 144.315 91.5831 144.669C91.9719 143.909 92.3227 143.135 92.7871 142.409C93.0036 142.057 93.245 141.722 93.5095 141.405C93.9223 140.92 95.663 139.777 95.6045 141.542C95.5839 142.512 94.1219 143.286 93.4063 143.685H93.3926Z" fill="#263238"/>
<path d="M87.3519 144.92C88.7279 145.309 90.2106 145.096 91.6072 145.054C91.638 145.051 91.6676 145.041 91.6936 145.024C91.7195 145.007 91.7411 144.984 91.7565 144.957C91.772 144.93 91.7808 144.9 91.7824 144.869C91.7839 144.838 91.7781 144.808 91.7655 144.779C91.7705 144.775 91.7746 144.77 91.7774 144.764C91.7802 144.758 91.7816 144.751 91.7816 144.745C91.7816 144.738 91.7802 144.732 91.7774 144.726C91.7746 144.72 91.7705 144.715 91.7655 144.71C90.7934 143.587 89.543 142.739 88.1397 142.251C87.3175 141.983 86.0963 142.058 85.8383 143.087C85.5803 144.115 86.5539 144.69 87.3519 144.92ZM86.5023 143.888C85.5907 142.378 87.6684 142.512 88.267 142.75C88.6511 142.901 89.0246 143.078 89.385 143.279C90.1244 143.701 90.842 144.161 91.535 144.655C90.847 144.631 90.159 144.655 89.471 144.655C88.6557 144.686 87.0045 144.717 86.5023 143.885V143.888Z" fill="#263238"/>
<path d="M97.1456 139.726L78.1224 137.411C78.1224 137.411 84.7513 111.225 84.452 110.833C83.4028 109.478 67.3518 110.025 61.8787 104.583C56.0823 98.8208 61.6448 86.0825 61.6448 86.0825L76.0928 86.1376C76.0928 86.1376 76.1891 91.848 76.8393 92.3846C77.2693 92.7286 97.2282 96.1101 100.476 100.348C105.426 106.822 97.1456 139.726 97.1456 139.726Z" fill="#37474F"/>
<path d="M101.824 102.684C101.553 101.96 101.165 101.286 100.675 100.689C100.125 100.049 99.4783 99.4991 98.7589 99.0582C97.2395 98.1388 95.6362 97.3659 93.9705 96.75C92.2714 96.0762 90.5375 95.494 88.7761 95.0059C86.9907 94.5036 85.1813 94.0805 83.3684 93.6918C81.5555 93.3031 79.7426 93.0038 77.9263 92.6598L77.0697 92.5015C78.0054 92.13 78.9342 91.7379 79.8699 91.3526C79.8792 91.3471 79.8863 91.3386 79.8902 91.3285C79.8941 91.3184 79.8944 91.3074 79.8913 91.2971C79.8881 91.2868 79.8815 91.2778 79.8727 91.2716C79.8638 91.2655 79.8532 91.2625 79.8424 91.2631C77.9516 91.6233 76.1475 92.3426 74.5276 93.3822C74.5035 93.3822 74.5276 93.4407 74.5482 93.4304C75.3601 93.1655 76.1581 92.8628 76.9562 92.5497C78.604 92.8937 80.2414 93.2618 81.8823 93.6264C83.6573 94.022 85.4255 94.4417 87.173 94.9371C90.6405 95.9209 94.0874 97.0768 97.2935 98.7417C98.7452 99.4951 100.118 100.438 100.933 101.896C101.69 103.248 101.917 104.831 101.965 106.368C101.966 108.092 101.868 109.815 101.673 111.528C101.498 113.468 101.294 115.405 101.06 117.338C100.823 119.272 99.4641 129.406 99.3093 129.839C99.2887 129.898 99.3885 129.939 99.416 129.881C99.6155 129.468 101.965 114.827 102.14 112.859C102.302 111.047 102.484 109.223 102.505 107.404C102.581 105.801 102.35 104.199 101.824 102.684Z" fill="#263238"/>
<path d="M86.578 108.728C86.0729 108.593 85.5574 108.501 85.0368 108.453L83.3168 108.181L79.894 107.638C77.7028 107.294 75.5046 106.97 73.3202 106.585C69.5947 105.924 65.5458 104.724 63.4027 101.335C62.9073 100.555 62.5674 99.6858 62.4016 98.7761C62.2336 97.6605 62.1565 96.5331 62.1712 95.4049C62.1359 93.1323 62.282 90.8604 62.608 88.6109C62.6872 88.0571 62.7869 87.5101 62.8936 86.9632C62.8936 86.9288 62.8488 86.915 62.842 86.9632C62.4111 89.1571 62.1409 91.3795 62.0336 93.6127C61.9854 94.7273 61.9854 95.8418 62.0336 96.9564C62.0331 97.9818 62.1886 99.0014 62.4945 99.9801C63.7192 103.513 67.3105 105.422 70.7196 106.296C72.8214 106.836 74.9852 107.111 77.1283 107.445L83.881 108.504L85.5666 108.769C86.0207 108.842 86.8428 108.824 86.9426 109.409C86.9645 109.648 86.9411 109.888 86.8738 110.118C86.8084 110.414 86.7465 110.706 86.6812 111.002L86.3096 112.722C85.8234 114.958 85.3453 117.195 84.8752 119.433C83.9154 123.94 83.0141 128.46 82.0819 132.973L81.7379 134.652C81.7379 134.679 81.7757 134.693 81.7826 134.652C82.7699 130.156 83.7778 125.66 84.7548 121.16C85.2501 118.894 85.734 116.626 86.2064 114.356C86.4438 113.234 86.6777 112.116 86.8944 110.995C87.037 110.514 87.1258 110.019 87.1593 109.519C87.161 109.342 87.1052 109.169 87.0004 109.027C86.8956 108.884 86.7474 108.779 86.578 108.728Z" fill="#263238"/>
<path d="M96.7397 137.387C95.6286 137.153 94.5209 136.895 93.3995 136.699C92.278 136.503 91.1497 136.331 90.0214 136.165C87.7831 135.833 85.5368 135.538 83.2824 135.281C82.0131 135.133 80.7368 135.017 79.4675 134.858C79.4331 134.858 79.4331 134.906 79.4675 134.91C81.7482 135.199 84.0186 135.598 86.289 135.959C88.5594 136.32 90.7334 136.675 92.9626 136.991C94.2147 137.177 95.4703 137.308 96.7259 137.466C96.781 137.49 96.7913 137.4 96.7397 137.387Z" fill="#263238"/>
<path d="M80.699 89.2577C79.6973 89.456 78.6856 89.5996 77.6683 89.6877C76.0687 89.8459 73.8362 89.9904 70.9535 89.987H70.7195H69.6015C66.9355 89.9422 63.7811 89.7806 60.1312 89.4125C60.1312 89.4125 64.3555 73.8465 68.6693 68.7725C68.7656 68.6555 68.8654 68.5454 68.9651 68.4285L69.0236 68.3666C69.3581 68.0103 69.7471 67.7096 70.176 67.4756C70.2517 67.4343 70.3274 67.3965 70.4065 67.3621C72.068 66.5984 73.8224 67.2314 75.0883 68.315C75.4908 68.659 80.0385 74.5758 80.441 76.8324C80.785 78.8242 79.4434 80.9604 79.4434 80.9604L80.699 89.2577Z" fill="#7F80A4"/>
<path d="M70.9535 89.9869H70.7195H69.6015C66.9355 89.9422 63.7811 89.7805 60.1312 89.4125C60.1312 89.4125 64.3555 73.8465 68.6693 68.7725C68.7656 68.6555 68.8654 68.5454 68.9651 68.4285L69.0236 68.3665C69.3581 68.0103 69.7471 67.7096 70.176 67.4756C70.2517 67.4343 70.3274 67.3965 70.4065 67.3621L70.9535 89.9869Z" fill="#263238"/>
<path d="M67.4516 70.207C63.64 76.024 59.1474 86 61.92 87.72C66.4574 90.5374 78.6694 90.8951 81.4558 90.8642C82.6598 90.8642 84.0117 82.7974 83.0863 81.8995C82.161 81.0017 69.4296 81.9649 69.2369 81.2115C69.1303 80.7781 70.1382 76.7774 70.7539 71.9235C71.4523 66.2923 68.5317 68.5627 67.4516 70.207Z" fill="#EB9481"/>
<path d="M80.9226 81.528C80.9226 81.528 84.5449 81.0223 86.9323 80.8022C88.2635 80.6818 90.5649 80.6749 91.5832 81.0292C93.1071 81.5658 99.1511 84.7719 98.3943 86.2546C97.7063 87.5927 92.8903 84.1906 92.8903 84.1906C92.8903 84.1906 98.071 87.2074 96.9599 88.6626C95.8487 90.1177 90.902 85.5425 90.902 85.5425C90.902 85.5425 96.1583 88.7589 94.7755 90.0867C93.7435 91.0878 89.0135 87.1902 89.0135 87.1902C89.0135 87.1902 93.5095 89.987 92.481 91.0637C91.3423 92.2574 86.7637 88.9309 86.7637 88.9309C83.6677 91.2288 81.2597 91.0637 79.5741 90.7438C79.1579 90.6543 80.9226 81.528 80.9226 81.528Z" fill="#EB9481"/>
<path d="M91.16 83.0175C91.7827 83.3615 92.4122 83.6814 93.0039 84.0495C93.5955 84.4176 94.17 84.8442 94.7239 85.281C95.456 85.8412 96.1209 86.4842 96.7053 87.1971C95.5735 86.0103 93.4855 84.593 92.8938 84.2078C92.3021 83.8225 91.7379 83.4062 91.1463 83.021C91.1291 83.0278 91.16 83.0106 91.16 83.0175Z" fill="#263238"/>
<path d="M89.7255 85.1228C90.503 85.5803 91.2873 86.0069 92.0441 86.4988C92.8009 86.9907 93.826 87.7131 94.5415 88.2532C94.5966 88.2945 94.5587 88.3908 94.5037 88.353C93.7675 87.8404 92.6805 87.1524 91.9374 86.6502C91.1944 86.1479 90.472 85.6182 89.7152 85.14C89.7014 85.1331 89.7152 85.1159 89.7255 85.1228Z" fill="#263238"/>
<path d="M88.1707 86.7087C89.3772 87.3834 90.5114 88.1799 91.5556 89.0857C91.6072 89.127 91.5556 89.1442 91.4971 89.0857C90.386 88.2739 89.5226 87.6271 88.15 86.7327C88.1294 86.7362 88.1466 86.688 88.1707 86.7087Z" fill="#263238"/>
<path d="M80.8985 81.4799C82.5497 81.2494 86.9116 80.5958 88.5766 80.5029C89.9703 80.3752 91.3727 80.626 92.6358 81.2287C94.6098 82.1749 96.41 83.4472 97.9609 84.9921C98.2636 85.3361 98.7143 85.8624 98.4287 86.3165C98.0847 86.8703 96.4886 86.5848 94.6895 85.343C94.6241 85.2982 94.6551 85.2604 94.7204 85.2983C97.2213 86.8325 98.0951 86.5023 98.2877 86.1583C98.415 85.9347 98.2223 85.6044 98.0503 85.3533C97.7782 84.9946 97.4615 84.6721 97.1078 84.3935C95.9252 83.4186 94.647 82.5657 93.2928 81.8479C91.8306 81.031 90.1665 80.6457 88.494 80.7368C86.774 80.8194 82.6082 81.4833 80.8985 81.5418C80.8641 81.5452 80.8607 81.4833 80.8985 81.4799Z" fill="#263238"/>
<path d="M97.1319 87.8886C96.9286 87.4562 96.6435 87.0672 96.2925 86.743C95.9175 86.3147 95.5003 85.9251 95.0472 85.5803C95.0266 85.5803 94.9991 85.5803 95.0197 85.6113C95.4134 85.9648 95.7856 86.3416 96.1343 86.7396C96.3199 86.9584 96.4922 87.1882 96.6503 87.4276C96.8356 87.6497 96.9431 87.9264 96.9564 88.2154C96.9083 88.7692 96.2237 88.8449 95.8006 88.7554C95.526 88.6899 95.2578 88.6001 94.9991 88.4871C94.641 88.3221 94.296 88.1301 93.9671 87.9126C93.9395 87.892 93.8776 87.9126 93.9051 87.9298C94.5931 88.4252 95.8831 89.4675 96.7569 88.9068C96.9283 88.8074 97.0596 88.6513 97.1281 88.4653C97.1966 88.2794 97.1979 88.0754 97.1319 87.8886Z" fill="#263238"/>
<path d="M62.2296 76.5571L70.2689 76.4711L71.0842 70.4959C71.4557 67.7439 71.2459 66.0067 68.0157 69.0373C65.7763 71.1391 62.2296 76.5571 62.2296 76.5571Z" fill="#7F80A4"/>
<path d="M71.7206 67.0319C70.145 67.4825 70.3033 69.2541 70.8915 70.4994C71.4798 71.7447 72.6356 73.186 73.4784 73.1447C74.3212 73.1035 74.4794 70.9844 74.4794 70.9844C74.4794 70.9844 75.68 72.2985 76.3095 71.841C76.939 71.3835 75.6766 68.9651 74.7787 68.2152C73.4784 67.1247 72.553 66.7911 71.7206 67.0319Z" fill="white"/>
<path d="M70.864 68.0329C70.9328 68.4113 72.615 70.9225 74.3281 70.9191C74.8888 70.9191 75.0161 67.8644 75.0161 67.8644L75.0746 67.6408L75.9208 64.5173L72.3226 61.9751L71.7997 61.6311C71.7997 61.6311 71.6243 62.5014 71.4179 63.5885L71.3869 63.7433C71.3869 63.8052 71.3628 63.8602 71.3525 63.9187C71.3181 64.0804 71.2871 64.2627 71.2562 64.4106C71.2252 64.5585 71.2115 64.6583 71.1908 64.7925C71.1702 64.9266 71.1495 65.0539 71.1255 65.1881C70.9731 66.1292 70.8858 67.0798 70.864 68.0329Z" fill="#EB9481"/>
<path d="M71.4075 63.5919C71.6863 64.4919 72.1578 65.3204 72.7894 66.0196C73.4209 66.7189 74.1972 67.2721 75.0643 67.6408L75.9105 64.5173L72.3123 61.9751L71.7894 61.6311C71.7894 61.6311 71.6139 62.5049 71.4075 63.5919Z" fill="#263238"/>
<path d="M80.4341 59.6668C80.6955 65.3394 77.3381 66.1409 76.1031 66.2028C74.992 66.251 71.2046 66.2819 70.3549 60.6644C69.5052 55.0469 72.0749 53.1308 74.5964 52.8831C77.1179 52.6355 80.1692 54.008 80.4341 59.6668Z" fill="#EB9481"/>
<path d="M79.5878 58.7243C79.4582 58.7072 79.3296 58.683 79.2025 58.652C79.0625 58.6456 78.9285 58.5937 78.8207 58.5041C78.7939 58.4684 78.7794 58.4249 78.7794 58.3803C78.7794 58.3356 78.7939 58.2921 78.8207 58.2564C78.8836 58.194 78.962 58.1493 79.0478 58.1269C79.1336 58.1046 79.2238 58.1053 79.3092 58.1291C79.4912 58.1516 79.6587 58.2396 79.7805 58.3768C79.8061 58.4103 79.8214 58.4505 79.8245 58.4926C79.8276 58.5347 79.8183 58.5767 79.7979 58.6136C79.7774 58.6505 79.7467 58.6806 79.7094 58.7003C79.672 58.7199 79.6298 58.7283 79.5878 58.7243Z" fill="#263238"/>
<path d="M75.9517 58.824C76.0805 58.8012 76.208 58.7713 76.3336 58.7346C76.4725 58.7205 76.603 58.6613 76.7051 58.566C76.7327 58.5313 76.7478 58.4883 76.7478 58.4439C76.7478 58.3996 76.7327 58.3565 76.7051 58.3218C76.6394 58.2617 76.5589 58.2202 76.4719 58.2014C76.3848 58.1827 76.2944 58.1874 76.2097 58.2152C76.0295 58.2477 75.867 58.3442 75.7522 58.4869C75.7293 58.5209 75.7164 58.5608 75.7152 58.6018C75.714 58.6428 75.7244 58.6833 75.7453 58.7186C75.7662 58.7539 75.7967 58.7826 75.8332 58.8013C75.8698 58.8199 75.9109 58.8278 75.9517 58.824Z" fill="#263238"/>
<path d="M76.6639 60.1794C76.6639 60.1622 76.6329 60.1966 76.6364 60.2138C76.6673 60.599 76.6364 61.0463 76.2924 61.1907C76.2924 61.1907 76.2924 61.2148 76.2924 61.2114C76.712 61.1323 76.7533 60.544 76.6639 60.1794Z" fill="#263238"/>
<path d="M76.2992 59.7906C75.6765 59.7734 75.6869 61.0221 76.2648 61.0393C76.8427 61.0565 76.8221 59.8043 76.2992 59.7906Z" fill="#263238"/>
<path d="M76.055 59.856C75.9449 59.9283 75.8417 60.0521 75.711 60.0659C75.5803 60.0796 75.4427 59.9523 75.3429 59.8285H75.3223C75.3223 60.0693 75.4151 60.3135 75.6663 60.3479C75.9174 60.3823 76.0653 60.1656 76.1238 59.9248C76.1375 59.8973 76.0963 59.8319 76.055 59.856Z" fill="#263238"/>
<path d="M78.776 60.0796C78.776 60.0624 78.807 60.0796 78.807 60.114C78.807 60.4993 78.8448 60.9431 79.1957 61.0738V61.0944C78.776 61.0359 78.7038 60.4443 78.776 60.0796Z" fill="#263238"/>
<path d="M79.12 59.6737C79.7427 59.6256 79.7908 60.8743 79.2163 60.919C78.6419 60.9637 78.6006 59.715 79.12 59.6737Z" fill="#263238"/>
<path d="M79.3849 59.7459C79.4846 59.8078 79.5878 59.9248 79.7048 59.9282C79.8218 59.9317 79.9387 59.7906 80.0213 59.6599C80.0385 59.9007 79.9697 60.1518 79.7426 60.2069C79.5156 60.2619 79.3746 60.059 79.3092 59.8216C79.3126 59.7906 79.3436 59.7218 79.3849 59.7459Z" fill="#263238"/>
<path d="M78.1981 61.92C78.1981 61.92 78.2875 62.4944 78.2944 62.7662C78.2944 62.7937 77.3071 63.0173 76.8599 62.3568C76.8567 62.3516 76.8554 62.3454 76.8561 62.3392C76.8568 62.3331 76.8596 62.3274 76.864 62.323C76.8683 62.3186 76.874 62.3159 76.8802 62.3151C76.8863 62.3144 76.8925 62.3158 76.8978 62.319C77.2504 62.5488 77.6679 62.6586 78.088 62.632C78.1052 62.5564 77.8988 61.6516 77.9401 61.6482C78.1526 61.6614 78.3622 61.7042 78.5627 61.7755C78.4079 60.5715 78.0605 59.3984 77.9229 58.1979C77.9231 58.1899 77.9259 58.1823 77.9307 58.1759C77.9355 58.1696 77.9422 58.165 77.9499 58.1627C77.9575 58.1604 77.9656 58.1606 77.9731 58.1632C77.9806 58.1658 77.9871 58.1707 77.9917 58.1772C78.4054 59.4202 78.6924 60.7018 78.8483 62.0025C78.8723 62.1608 78.3082 61.9681 78.1981 61.92Z" fill="#263238"/>
<path d="M78.4974 60.317C78.4733 59.426 78.9308 58.6899 79.5294 58.6727C80.1279 58.6555 80.6198 59.3607 80.6439 60.2551C80.668 61.1495 80.2105 61.8822 79.6119 61.8994C79.0134 61.9166 78.5249 61.2045 78.4974 60.317ZM78.7141 60.317C78.7382 61.0876 79.1372 61.693 79.605 61.693C80.0729 61.693 80.441 61.0428 80.4169 60.2723C80.3928 59.5017 79.9972 58.8963 79.5259 58.8963C79.0546 58.8963 78.6935 59.5396 78.7141 60.3101V60.317Z" fill="#37474F"/>
<path d="M74.4416 60.4304C74.4538 60.1366 74.5515 59.8528 74.7227 59.6137C74.8939 59.3747 75.1312 59.1908 75.4055 59.0847C75.6797 58.9786 75.979 58.9548 76.2665 59.0164C76.5541 59.0779 76.8174 59.2221 77.0242 59.4311C77.231 59.6402 77.3722 59.9051 77.4306 60.1933C77.4889 60.4815 77.4619 60.7805 77.3528 61.0535C77.2437 61.3266 77.0572 61.5618 76.8162 61.7304C76.5753 61.899 76.2904 61.9936 75.9965 62.0025C75.582 61.9998 75.1855 61.8327 74.894 61.538C74.6025 61.2433 74.4398 60.845 74.4416 60.4304ZM74.6583 60.4304C74.6858 60.6802 74.7854 60.9165 74.945 61.1105C75.1045 61.3045 75.3171 61.4479 75.5568 61.5231C75.7965 61.5983 76.0529 61.6021 76.2947 61.534C76.5365 61.4659 76.7532 61.3288 76.9184 61.1396C77.0836 60.9503 77.1901 60.717 77.225 60.4683C77.2598 60.2195 77.2214 59.9659 77.1145 59.7386C77.0076 59.5113 76.8368 59.32 76.623 59.1881C76.4092 59.0562 76.1616 58.9895 75.9105 58.996C75.7336 59.0069 75.5606 59.0526 75.4014 59.1305C75.2421 59.2084 75.0998 59.3169 74.9826 59.4498C74.8653 59.5827 74.7754 59.7374 74.718 59.9051C74.6606 60.0728 74.6368 60.2501 74.648 60.427L74.6583 60.4304Z" fill="#37474F"/>
<path d="M77.3794 60.2C78.1809 59.8939 78.5524 60.145 78.5559 60.1484L78.6831 59.9764C78.6831 59.9764 78.2256 59.6324 77.3071 59.9971L77.3794 60.2Z" fill="#37474F"/>
<path d="M74.5482 60.2894L74.5792 60.0727C74.4381 60.0521 71.1392 59.5395 70.7711 59.5292C70.403 59.5189 69.5258 60.0349 69.4295 60.0968L69.5396 60.2791C69.9112 60.0384 70.3188 59.8584 70.747 59.7459H70.7642C71.0394 59.7528 73.358 60.1037 74.5482 60.2894Z" fill="#37474F"/>
<path d="M70.7849 60.8467C72.1609 60.8467 72.7285 56.5777 72.7904 56.0514C72.7664 56.3954 72.6597 58.1463 72.7904 58.222C72.94 58.2231 73.0887 58.1999 73.2308 58.1532C73.2386 57.9418 73.2627 57.7314 73.303 57.5237C73.303 57.4274 73.334 57.737 73.3752 58.1188L73.6332 58.0569C73.6335 57.606 73.6936 57.1572 73.8121 56.7222C73.8568 56.557 73.8775 57.307 74.0151 57.9674C75.2154 57.6582 76.4465 57.484 77.6856 57.448C77.9898 57.4441 78.2941 57.4556 78.5972 57.4824C78.6178 56.9595 78.5765 56.4057 78.5972 56.5261C78.6905 56.8438 78.7527 57.1698 78.7829 57.4996L79.1751 57.5409C79.237 56.8082 78.9274 55.6248 79.0375 55.8209C79.368 56.3856 79.5886 57.0077 79.6876 57.6544C80.1864 57.7679 80.3206 57.8711 80.3378 57.7404C80.2365 56.2881 79.6206 54.9195 78.6006 53.8807C76.915 52.1814 73.4578 51.655 71.4144 54.1146C71.4144 54.1146 69.7667 55.1122 69.4571 56.7978C69.1475 58.4834 69.98 60.8502 70.7849 60.8467Z" fill="#263238"/>
<path d="M71.2768 60.6265C71.2768 60.6265 70.1107 58.8068 69.2885 59.2161C68.4663 59.6255 69.2885 62.2296 70.2242 62.6183C70.34 62.6766 70.4664 62.7108 70.5958 62.7189C70.7252 62.727 70.8549 62.7088 70.977 62.6654C71.0992 62.622 71.2113 62.5543 71.3066 62.4664C71.4018 62.3785 71.4783 62.2722 71.5314 62.1539L71.2768 60.6265Z" fill="#EB9481"/>
<path d="M69.5465 59.9558C69.5465 59.9558 69.5258 59.9765 69.5465 59.9799C70.1966 60.2757 70.52 60.9053 70.7401 61.5485C70.7039 61.4811 70.6535 61.4222 70.5925 61.376C70.5314 61.3297 70.4612 61.2972 70.3864 61.2805C70.3117 61.2639 70.2342 61.2636 70.1593 61.2795C70.0844 61.2955 70.0138 61.3274 69.9524 61.3731C69.9352 61.3731 69.9524 61.4109 69.9524 61.4075C70.0702 61.3763 70.1947 61.382 70.3091 61.4238C70.4235 61.4657 70.5223 61.5416 70.5922 61.6414C70.7073 61.8096 70.8041 61.9895 70.8812 62.1781C70.9121 62.24 71.0188 62.2125 70.9981 62.1437V62.1265C71.0566 61.2837 70.4477 60.0762 69.5465 59.9558Z" fill="#263238"/>
<path d="M82.4981 88.6694H62.4635V89.5673H82.4981V88.6694Z" fill="#455A64"/>
<path d="M82.4981 88.6694H72.4155V89.5673H82.4981V88.6694Z" fill="#263238"/>
<path d="M72.6494 89.5672H53.1239L50.3651 76.3094H69.8905L72.6494 89.5672Z" fill="#37474F"/>
<path d="M63.0208 83.2479C63.0427 83.4124 63.0287 83.5798 62.9798 83.7384C62.9308 83.897 62.8481 84.0431 62.7373 84.1667C62.6264 84.2903 62.4902 84.3884 62.3378 84.4542C62.1854 84.5201 62.0206 84.5522 61.8547 84.5482C61.4988 84.5402 61.1577 84.4044 60.8937 84.1656C60.6297 83.9269 60.4604 83.6012 60.4167 83.2479C60.3948 83.0834 60.4088 82.916 60.4578 82.7574C60.5067 82.5988 60.5894 82.4527 60.7003 82.3291C60.8111 82.2055 60.9474 82.1074 61.0998 82.0416C61.2521 81.9757 61.4169 81.9437 61.5829 81.9476C61.939 81.9549 62.2804 82.0905 62.5446 82.3293C62.8087 82.5682 62.9778 82.8944 63.0208 83.2479Z" fill="white"/>
<path d="M110.713 89.5707H94.4418V88.3048L110.713 87.7784V89.5707Z" fill="#37474F"/>
<path d="M127.394 84.0288H98.8965L103.427 62.8109H131.927L127.394 84.0288Z" fill="#455A64"/>
<path d="M128.45 84.0288H99.9492L104.483 62.8109H132.984L128.45 84.0288Z" fill="#37474F"/>
<path d="M113.076 76.4195H112.409L113.424 71.6586H114.094L113.076 76.4195Z" fill="#263238"/>
<path d="M114.397 76.4195H113.73L114.745 71.6586H115.412L114.397 76.4195Z" fill="#263238"/>
<path d="M115.715 76.4195H115.047L116.062 71.6586H116.73L115.715 76.4195Z" fill="#263238"/>
<path d="M117.036 76.4195H116.365L117.38 71.6586H118.05L117.036 76.4195Z" fill="#263238"/>
<path d="M118.353 76.4195H117.686L118.701 71.6586H119.368L118.353 76.4195Z" fill="#263238"/>
<path d="M119.671 76.4195H119.003L120.018 71.6586H120.686L119.671 76.4195Z" fill="#263238"/>
<path d="M120.992 76.4195H120.321L121.339 71.6586H122.006L120.992 76.4195Z" fill="#263238"/>
<path d="M120.39 89.5707H106.372V88.4802L120.39 88.0261V89.5707Z" fill="#455A64"/>
<path d="M124.201 89.5672H116.674L112.141 77.6786H119.667L124.201 89.5672Z" fill="#455A64"/>
<path d="M125.44 89.5672H117.913L113.379 77.6786H120.906L125.44 89.5672Z" fill="#263238"/>
<path d="M42.2673 84.0288H51.0634L46.5295 62.8109H37.7334L42.2673 84.0288Z" fill="#455A64"/>
<path d="M41.2112 84.0288H50.0073L45.4768 62.8109H36.6807L41.2112 84.0288Z" fill="#37474F"/>
<path d="M42.4118 76.4195H42.5356L41.5208 71.6586H41.397L42.4118 76.4195Z" fill="#263238"/>
<path d="M42.6767 76.4195H42.8005L41.7857 71.6586H41.6619L42.6767 76.4195Z" fill="#263238"/>
<path d="M42.9415 76.4195H43.0688L42.054 71.6586H41.9302L42.9415 76.4195Z" fill="#263238"/>
<path d="M43.2099 76.4195H43.3337L42.3189 71.6586H42.1951L43.2099 76.4195Z" fill="#263238"/>
<path d="M43.4747 76.4195H43.602L42.5872 71.6586H42.4599L43.4747 76.4195Z" fill="#263238"/>
<path d="M43.7431 76.4195H43.8669L42.8521 71.6586H42.7283L43.7431 76.4195Z" fill="#263238"/>
<path d="M44.0079 76.4195H44.1317L43.1169 71.6586H42.9931L44.0079 76.4195Z" fill="#263238"/>
<path d="M44.2728 76.4195H44.4001L43.3853 71.6586H43.258L44.2728 76.4195Z" fill="#263238"/>
<path d="M41.0427 89.5707H51.5656V88.4802L41.0427 88.0261V89.5707Z" fill="#455A64"/>
<path d="M37.2311 89.5672H41.2628L45.7967 77.6786H41.7651L37.2311 89.5672Z" fill="#455A64"/>
<path d="M37.2311 89.5672H40.0244L44.5549 77.6786H41.7651L37.2311 89.5672Z" fill="#263238"/>
<path d="M92.88 89.581H82.1472C81.2287 89.581 82.5565 86.97 85.9002 85.9724C89.2439 84.9748 93.912 88.6006 92.88 89.581Z" fill="#37474F"/>
<path d="M88.6557 89.581C88.6275 89.2784 88.6531 88.9733 88.7314 88.6797C88.8055 88.385 88.9214 88.1023 89.0754 87.8403C89.2346 87.5788 89.437 87.3462 89.6739 87.1523C89.9087 86.9565 90.1834 86.8144 90.4789 86.7361C90.26 86.9259 90.0532 87.1293 89.8597 87.345C89.6767 87.5593 89.5132 87.7895 89.3712 88.033C89.0865 88.5264 88.8471 89.0445 88.6557 89.581Z" fill="#263238"/>
<path d="M89.925 87.0973C90.2569 87.1651 90.58 87.2701 90.8882 87.4103C91.1964 87.5507 91.4912 87.7188 91.7689 87.9126C92.0531 88.1084 92.305 88.3475 92.5154 88.6212C92.7429 88.8887 92.8651 89.2299 92.8594 89.581C92.7366 89.2818 92.5486 89.0138 92.309 88.7967C92.0764 88.5766 91.8268 88.3753 91.5625 88.1947C91.0431 87.8163 90.472 87.4826 89.925 87.0973Z" fill="#263238"/>
<path d="M42.3877 131.993H33.2751V133.596H42.3877V131.993Z" fill="#455A64"/>
<path d="M47.3275 155.436H46.3437L38.3181 117.971L37.8606 115.835L36.4193 109.11L35.8826 106.602L33.8633 97.1903L33.1581 93.8948H36.6635L37.2345 97.1903L37.6095 99.3541L37.8606 100.795L39.2985 109.11L39.7629 111.786L47.3275 155.436Z" fill="#455A64"/>
<path d="M36.6635 93.8948L37.2345 97.1903H33.8633L33.1581 93.8948H36.6635Z" fill="#263238"/>
<path d="M39.7629 111.786L38.3182 117.971L37.8606 115.835L36.4193 109.11L35.8826 106.602L37.6095 99.354L37.8606 100.795L39.2985 109.11L39.7629 111.786Z" fill="#263238"/>
<path d="M42.5597 93.8948L41.8545 97.1903L39.2985 109.11L37.8606 115.835L29.3741 155.436H28.3937L36.4193 109.11L37.8606 100.795L38.4833 97.1903L39.0543 93.8948H42.5597Z" fill="#455A64"/>
<path d="M42.5597 93.8948L41.8545 97.1903H38.4833L39.0543 93.8948H42.5597Z" fill="#263238"/>
<path d="M138.842 93.8948L125.656 155.436H124.676L135.336 93.8948H138.842Z" fill="#455A64"/>
<path d="M129.44 93.8948L142.626 155.436H143.606L132.946 93.8948H129.44Z" fill="#455A64"/>
<path d="M138.67 131.993H129.557V133.596H138.67V131.993Z" fill="#455A64"/>
<path d="M144.229 89.5707H27.7711V93.8948H144.229V89.5707Z" fill="#455A64"/>
<path d="M26.9214 127.848C24.4034 122.688 20.0002 120.015 15.0328 121.484C10.0654 122.952 9.288 129.877 13.0066 131.625C16.7253 133.372 20.4198 128.267 22.3772 127.218C24.3346 126.169 26.9214 127.848 26.9214 127.848Z" fill="#7F80A4"/>
<path d="M29.3604 141.625C29.3604 140.999 29.3225 140.376 29.2985 139.753C29.2572 138.508 29.2136 137.263 29.1677 136.018C29.0817 133.737 28.8237 131.501 27.8949 129.402C27.0612 127.499 25.6683 125.893 23.9011 124.8C23.2448 124.403 22.5377 124.098 21.7993 123.892C21.1301 123.216 20.2793 122.748 19.35 122.547C18.2 122.314 17.0181 122.287 15.8584 122.464C15.8171 122.464 15.8171 122.533 15.8584 122.529C16.965 122.388 18.0885 122.468 19.1642 122.763C19.6248 122.89 20.071 123.064 20.4955 123.283C20.7645 123.426 21.0221 123.589 21.2661 123.771C20.2643 123.564 19.2298 123.573 18.232 123.799C17.8725 123.885 17.5206 124 17.1793 124.143C16.9073 124.083 16.6285 124.059 16.3503 124.074C15.9881 124.085 15.6281 124.135 15.277 124.225C14.5578 124.427 13.8701 124.728 13.2337 125.12C13.1958 125.14 13.2337 125.195 13.2681 125.175C13.8938 124.833 14.5642 124.581 15.2598 124.425C15.5992 124.347 15.9443 124.296 16.2918 124.273C16.482 124.263 16.6726 124.263 16.8629 124.273C15.4489 124.927 14.3119 126.061 13.6533 127.473C13.6361 127.51 13.6912 127.545 13.7084 127.504C14.1002 126.684 14.6718 125.964 15.3806 125.397C16.0894 124.829 16.917 124.429 17.802 124.225C17.9086 124.198 18.0221 124.184 18.146 124.16C18.1081 124.322 18.115 124.504 18.0944 124.662C18.06 124.913 18.0187 125.164 17.9671 125.412C17.8576 125.928 17.7163 126.437 17.544 126.936C17.3757 127.438 17.1746 127.929 16.942 128.405C16.7169 128.908 16.4353 129.383 16.1026 129.822C16.0717 129.857 16.1301 129.901 16.1542 129.86C16.4535 129.392 16.8009 128.962 17.0727 128.484C17.3323 128.02 17.5565 127.537 17.7435 127.039C17.9341 126.535 18.0825 126.016 18.1873 125.488C18.2423 125.209 18.287 124.927 18.318 124.645C18.3523 124.476 18.3628 124.304 18.3489 124.132C18.933 124.042 19.5263 124.03 20.1137 124.095C19.8935 125.329 19.6561 126.616 18.9647 127.689C18.9406 127.724 19.0025 127.758 19.0232 127.72C19.3454 127.151 19.6303 126.562 19.8763 125.956C20.1026 125.361 20.2439 124.738 20.296 124.105C21.3213 124.243 22.3111 124.575 23.2131 125.082C24.9125 126.073 26.2679 127.56 27.0969 129.344C27.9775 131.252 28.4721 133.316 28.552 135.416C28.7171 138.061 28.7515 140.72 29.0164 143.359C29.0164 143.531 29.3053 143.589 29.3397 143.393C29.4017 142.805 29.4086 142.213 29.3604 141.625Z" fill="#263238"/>
<path d="M23.5399 124.384C23.3752 124.182 23.183 124.005 22.9689 123.857C22.7625 123.685 22.5526 123.513 22.329 123.369C21.8923 123.069 21.4086 122.845 20.898 122.705C20.8567 122.705 20.843 122.76 20.898 122.77C21.411 122.898 21.8915 123.133 22.3084 123.458C22.5182 123.613 22.7212 123.778 22.9173 123.95C23.0928 124.132 23.2864 124.296 23.4952 124.439C23.5193 124.466 23.5674 124.421 23.5399 124.384Z" fill="#263238"/>
<path d="M15.5041 126.248C15.0879 126.733 14.703 127.245 14.3517 127.779C14.0067 128.315 13.7185 128.886 13.4917 129.482C13.4917 129.499 13.5123 129.509 13.5227 129.482C14.0983 128.356 14.7778 127.286 15.5523 126.286C15.5798 126.272 15.5316 126.227 15.5041 126.248Z" fill="#263238"/>
<path d="M20.9221 125.749C20.8678 126.072 20.7718 126.387 20.6366 126.685C20.4994 126.973 20.3395 127.251 20.1584 127.514C20.1557 127.518 20.1545 127.522 20.1551 127.527C20.1558 127.531 20.1582 127.535 20.1618 127.538C20.1655 127.541 20.1701 127.542 20.1746 127.541C20.1791 127.541 20.1832 127.538 20.1859 127.535C20.6208 127.036 20.8984 126.419 20.984 125.763C20.984 125.722 20.929 125.704 20.9221 125.749Z" fill="#263238"/>
<path d="M29.0095 127.968C29.0095 127.968 32.5734 123.496 39.4534 125.075C45.9894 126.585 49.0097 138.577 42.4014 140.011C35.7932 141.446 36.9594 130.348 34.5514 128.467C32.7832 127.091 30.2445 127.39 29.0095 127.968Z" fill="#7F80A4"/>
<path d="M44.7681 131.632C44.3201 131.239 43.8467 130.875 43.3509 130.545C42.883 130.226 42.3737 129.972 41.8373 129.791C41.5677 129.389 41.2663 129.01 40.936 128.656C40.3346 128.003 39.6389 127.445 38.872 126.998H39.0784C39.4428 126.979 39.8079 126.979 40.1723 126.998C40.9059 127.043 41.6252 127.221 42.2948 127.524C42.3025 127.528 42.3114 127.528 42.3195 127.525C42.3276 127.523 42.3341 127.517 42.3378 127.509C42.3414 127.501 42.3419 127.492 42.339 127.484C42.3361 127.476 42.3301 127.469 42.3223 127.466C41.6426 127.173 40.9317 126.958 40.2033 126.826C39.8479 126.762 39.4875 126.731 39.1265 126.733C38.9339 126.733 38.7413 126.75 38.5486 126.768H38.4385C37.8089 126.448 37.1439 126.203 36.4571 126.038L36.6463 125.987C36.9869 125.911 37.3314 125.855 37.6783 125.818C38.3647 125.738 39.0586 125.749 39.7423 125.849C39.7836 125.849 39.7973 125.791 39.7423 125.784C39.0575 125.702 38.3674 125.674 37.6783 125.701C37.099 125.718 36.5228 125.793 35.9583 125.925C35.5434 125.849 35.124 125.801 34.7027 125.78C32.2947 125.68 29.6872 126.578 28.2114 128.549C26.7357 130.521 26.4054 133.149 26.144 135.536C25.7413 138.854 25.6526 142.202 25.8791 145.536C25.8791 145.736 26.1715 145.698 26.1784 145.512C26.2678 142.684 26.3676 139.857 26.6393 137.039C26.7632 135.732 26.9008 134.425 27.1175 133.132C27.2752 132.018 27.5951 130.933 28.0669 129.912C28.5781 128.87 29.386 128.002 30.3889 127.418C31.3974 126.839 32.522 126.493 33.681 126.403C34.722 126.318 35.7698 126.415 36.777 126.692C36.746 126.894 36.746 127.099 36.777 127.301C36.7979 127.557 36.8487 127.81 36.9284 128.054C37.0028 128.285 37.0984 128.508 37.2139 128.721C37.3412 128.959 37.5029 129.169 37.6439 129.409C37.668 129.444 37.723 129.409 37.6989 129.372C37.4147 128.968 37.2319 128.502 37.1657 128.013C37.1216 127.786 37.094 127.556 37.0832 127.325C37.0832 127.146 37.0832 126.981 37.0832 126.792C38.1748 127.127 39.1936 127.665 40.0863 128.377C40.2549 128.512 40.4303 128.653 40.5748 128.797C40.3469 129.008 40.15 129.25 39.99 129.516C39.7547 129.86 39.5498 130.224 39.3777 130.603C39.06 131.374 38.846 132.184 38.7413 133.011C38.7413 133.052 38.8032 133.066 38.8066 133.011C38.9235 132.21 39.1784 131.434 39.56 130.72C39.7423 130.372 39.9456 130.035 40.1689 129.712C40.2858 129.547 40.4062 129.368 40.5129 129.224C40.5817 129.141 40.6539 129.052 40.7193 128.962C41.5292 129.755 42.1899 130.687 42.6697 131.714C42.3434 132.057 42.0719 132.448 41.8648 132.874C41.6179 133.316 41.403 133.776 41.2215 134.25C40.8877 135.167 40.613 136.104 40.3993 137.057C40.3993 137.098 40.4544 137.112 40.4647 137.057C40.6741 136.102 41.0011 135.178 41.4382 134.305C41.6446 133.875 41.8613 133.451 42.0918 133.032C42.3296 132.643 42.5455 132.241 42.7385 131.828C43.1966 132.831 43.4626 133.912 43.5229 135.013C43.5229 135.058 43.5917 135.051 43.5882 135.013C43.4616 133.285 42.9327 131.609 42.0437 130.122C42.4633 130.3 42.8865 130.466 43.2924 130.693C43.807 130.963 44.2865 131.296 44.72 131.683C44.7578 131.711 44.7991 131.659 44.7681 131.632Z" fill="#263238"/>
<path d="M39.7217 131.886C39.5153 132.574 39.2539 133.224 39.0681 133.912C38.8784 134.57 38.7766 135.25 38.7654 135.935C38.7654 135.935 38.7963 135.956 38.7963 135.935C38.9835 134.561 39.3144 133.211 39.7836 131.907C39.7869 131.902 39.7891 131.897 39.79 131.892C39.7909 131.887 39.7906 131.881 39.7889 131.876C39.7873 131.871 39.7845 131.866 39.7807 131.862C39.7768 131.858 39.7721 131.855 39.767 131.854C39.7618 131.852 39.7563 131.851 39.7509 131.852C39.7455 131.853 39.7404 131.855 39.736 131.858C39.7316 131.861 39.728 131.866 39.7255 131.871C39.723 131.875 39.7217 131.881 39.7217 131.886Z" fill="#263238"/>
<path d="M44.0802 130.201C43.8095 129.941 43.5024 129.722 43.1686 129.55C42.8282 129.395 42.4748 129.271 42.1125 129.179C42.0746 129.179 42.0609 129.234 42.1125 129.241C42.4735 129.334 42.8206 129.475 43.1445 129.66C43.4697 129.829 43.7824 130.021 44.0802 130.235C44.0733 130.252 44.1008 130.221 44.0802 130.201Z" fill="#263238"/>
<path d="M32.3945 121.993C32.3945 121.993 33.055 113.943 39.0371 111.329C44.0354 109.148 46.8941 114.769 43.3646 118.209C40.506 120.988 35.9239 119.733 32.3945 121.993Z" fill="#7F80A4"/>
<path d="M42.257 112.894C41.3456 113.261 40.4565 113.681 39.5944 114.153C38.878 114.567 38.1886 115.027 37.5304 115.529C37.6267 115.326 37.7162 115.113 37.8159 114.913C37.9707 114.6 38.1393 114.297 38.3216 114.002C38.6912 113.393 39.1349 112.832 39.6426 112.333C39.6735 112.306 39.6219 112.258 39.5944 112.288C39.0932 112.79 38.6331 113.33 38.2184 113.905C38.0136 114.198 37.8241 114.501 37.6508 114.813C37.4748 115.103 37.3394 115.416 37.2483 115.742L37.183 115.79C36.1373 116.623 35.1794 117.56 34.3243 118.587C34.3415 118.508 34.3587 118.429 34.3794 118.357C34.4895 117.961 34.6133 117.572 34.7234 117.187C34.9811 116.36 35.3453 115.57 35.807 114.837C35.8276 114.803 35.7691 114.769 35.7485 114.807C35.277 115.539 34.8585 116.305 34.4963 117.098C34.3296 117.482 34.1917 117.879 34.0835 118.284C33.9965 118.548 33.931 118.818 33.8875 119.093C33.626 119.437 33.3715 119.757 33.1272 120.101C30.561 123.757 29.271 128.181 28.9614 132.609C28.8728 133.926 28.8509 135.248 28.896 136.568C28.9038 137.901 29.0188 139.23 29.24 140.545C29.24 140.627 29.3879 140.603 29.3845 140.524C29.357 139.361 29.2366 138.202 29.2125 137.039C29.1884 135.877 29.2331 134.703 29.326 133.544C29.5131 131.221 29.9502 128.925 30.6298 126.695C31.3261 124.412 32.3517 122.243 33.6742 120.255C33.9253 120.204 34.1764 120.139 34.4241 120.073C34.6718 120.008 35.0227 119.918 35.3185 119.836C35.894 119.689 36.453 119.484 36.9869 119.223C37.0247 119.223 36.9869 119.148 36.9525 119.168C36.4252 119.457 35.853 119.655 35.26 119.753C34.7922 119.846 34.3071 119.908 33.8359 120.015C34.2687 119.381 34.7338 118.77 35.2291 118.185C36.3694 118.29 37.5192 118.204 38.6312 117.93C39.2237 117.788 39.8063 117.608 40.3753 117.39C40.9739 117.159 41.5415 116.86 42.1331 116.613C42.1409 116.609 42.1469 116.602 42.1498 116.594C42.1527 116.586 42.1523 116.577 42.1486 116.57C42.145 116.562 42.1384 116.556 42.1303 116.553C42.1223 116.55 42.1134 116.55 42.1056 116.554C41.0369 117.136 39.8713 117.52 38.6656 117.686C37.5982 117.855 36.5196 117.943 35.4389 117.951C35.862 117.462 36.3023 116.987 36.7702 116.54C38.3423 115.044 40.2102 113.668 42.2742 112.952C42.312 112.942 42.312 112.877 42.257 112.894Z" fill="#263238"/>
<path d="M37.3859 112.918C37.1175 113.259 36.8727 113.617 36.6532 113.991C36.4257 114.384 36.2466 114.804 36.12 115.24C36.12 115.24 36.12 115.261 36.1441 115.24C36.3436 114.848 36.5122 114.438 36.7117 114.043C36.9113 113.656 37.1512 113.292 37.4272 112.956C37.4616 112.932 37.4134 112.884 37.3859 112.918Z" fill="#263238"/>
<path d="M42.9519 115.584C42.5617 115.798 42.1501 115.97 41.7238 116.097C41.3146 116.235 40.8976 116.35 40.4751 116.441C40.4544 116.441 40.4751 116.478 40.4751 116.475C40.9154 116.429 41.3492 116.335 41.7685 116.193C42.19 116.039 42.6014 115.859 43 115.653C43.0241 115.636 43 115.584 42.9519 115.584Z" fill="#263238"/>
<path d="M27.7436 120.544C27.7058 120.888 26.8389 117.62 21.7787 114.717C17.2 112.082 11.696 105.226 16.2059 100.892C19.842 97.3967 29.4224 105.02 27.7436 120.544Z" fill="#7F80A4"/>
<path d="M31.2283 139.292C31.153 135.888 30.8842 132.491 30.4233 129.117C30.0242 126.017 29.3084 122.966 28.2871 120.011C27.9087 118.948 27.4787 117.899 27.0143 116.871C27.0402 116.469 27.0333 116.067 26.9937 115.667C26.9661 115.151 26.9214 114.635 26.8733 114.122C26.8251 113.609 26.7735 113.09 26.7116 112.584C26.6497 112.079 26.543 111.552 26.5224 111.05C26.5241 111.045 26.5245 111.039 26.5237 111.034C26.5229 111.029 26.5208 111.024 26.5176 111.019C26.5144 111.015 26.5102 111.011 26.5053 111.009C26.5005 111.006 26.4951 111.005 26.4897 111.005C26.4843 111.005 26.4789 111.006 26.4741 111.009C26.4692 111.011 26.465 111.015 26.4618 111.019C26.4586 111.024 26.4566 111.029 26.4557 111.034C26.4549 111.039 26.4553 111.045 26.457 111.05C26.5592 111.587 26.6202 112.131 26.6393 112.677C26.6772 113.173 26.7047 113.671 26.7219 114.167C26.7391 114.662 26.7219 115.164 26.7219 115.663C26.7219 115.842 26.7219 116.031 26.7219 116.224C26.2472 115.219 25.7346 114.229 25.1842 113.265C25.5282 111.167 25.081 108.976 24.6545 106.922C24.6545 106.881 24.5822 106.901 24.5891 106.943C24.8035 108.013 24.9187 109.102 24.9331 110.194C24.9537 111.054 24.9125 111.914 24.909 112.777C24.7886 112.571 24.6682 112.364 24.5444 112.161C23.8793 111.095 23.1741 110.057 22.4288 109.048C22.4873 108.551 22.4699 108.047 22.3772 107.555C22.2976 106.997 22.1769 106.445 22.016 105.904C21.8555 105.367 21.6685 104.84 21.4553 104.321C21.2351 103.792 20.9427 103.289 20.7329 102.753C20.7311 102.749 20.7285 102.746 20.7254 102.743C20.7222 102.74 20.7186 102.738 20.7146 102.736C20.7106 102.735 20.7063 102.734 20.7021 102.734C20.6979 102.734 20.6937 102.736 20.6899 102.737C20.686 102.739 20.6826 102.742 20.6797 102.745C20.6769 102.748 20.6747 102.752 20.6732 102.756C20.6718 102.76 20.6711 102.764 20.6713 102.768C20.6715 102.772 20.6726 102.776 20.6744 102.78C20.9426 103.284 21.1548 103.816 21.3073 104.366C21.4739 104.883 21.6117 105.409 21.7201 105.942C21.8268 106.475 21.9162 107.008 21.9885 107.545C22.0401 107.889 22.071 108.271 22.1329 108.632C21.0494 107.175 19.8655 105.796 18.5897 104.504C18.5588 104.473 18.5175 104.521 18.545 104.552C20.4726 106.72 22.1943 109.062 23.6878 111.549L23.8495 111.831C23.5709 111.656 23.2509 111.518 22.9895 111.373C22.501 111.103 22.0091 110.832 21.5137 110.562C21.0184 110.291 20.5414 110.03 20.0827 109.777C19.835 109.643 19.5942 109.499 19.3431 109.371C19.0447 109.238 18.7581 109.079 18.4865 108.897C18.4487 108.869 18.4074 108.928 18.4487 108.948C18.9337 109.217 19.3672 109.616 19.8247 109.915C20.2822 110.214 20.7776 110.507 21.2695 110.782C22.1708 111.284 23.1477 111.645 24.0215 112.158C24.6373 113.231 25.2014 114.335 25.7415 115.457C25.2049 115.113 24.6545 114.769 24.0972 114.473C23.7532 114.273 23.3817 114.077 23.017 113.885C22.6514 113.718 22.3053 113.511 21.985 113.269C21.9784 113.264 21.9702 113.262 21.9619 113.262C21.9537 113.263 21.9459 113.266 21.9401 113.272C21.9342 113.278 21.9307 113.286 21.9301 113.294C21.9295 113.302 21.9319 113.31 21.9369 113.317C22.5273 113.845 23.18 114.299 23.8805 114.669C24.5306 115.047 25.1877 115.415 25.8653 115.746C26.4043 116.931 26.8916 118.139 27.3273 119.368C29.4601 125.398 30.241 131.8 30.616 138.157C30.7261 140.053 30.7845 141.941 30.8086 143.844C30.8327 145.746 30.7295 147.628 30.7364 149.53C30.7364 149.585 30.8258 149.599 30.8361 149.53C31.0632 147.848 31.101 146.138 31.1801 144.446C31.2593 142.753 31.2661 141.012 31.2283 139.292Z" fill="#263238"/>
<path d="M22.0332 111.993C21.1095 111.585 20.2122 111.119 19.3466 110.599C18.4665 110.107 17.6144 109.566 16.7941 108.979C16.7941 108.979 16.7631 108.979 16.7941 109.003C17.5697 109.633 18.3881 110.207 19.2434 110.723C20.1396 111.221 21.0656 111.663 22.016 112.048C22.0401 112.065 22.0745 112.006 22.0332 111.993Z" fill="#263238"/>
<path d="M23.5021 105.175C23.4264 104.882 23.3335 104.593 23.2338 104.304C23.2372 104.299 23.239 104.293 23.239 104.287C23.239 104.281 23.2372 104.275 23.2338 104.27L23.048 103.785C23.0427 103.764 23.0346 103.745 23.0239 103.726C23.0239 103.695 22.9999 103.664 22.9861 103.633C22.9723 103.602 22.9861 103.633 22.9861 103.633C22.9861 103.633 23.0171 103.747 23.0343 103.802C23.0362 103.831 23.0408 103.86 23.048 103.888C23.3806 105.015 23.6312 106.165 23.7979 107.328C23.7979 107.362 23.8599 107.366 23.8564 107.328C23.8053 106.601 23.6867 105.88 23.5021 105.175Z" fill="#263238"/>
<path d="M36.5741 140.514L36.2129 144.793L35.1087 157.844H23.2682L22.1639 144.793L21.8027 140.514H36.5741Z" fill="#37474F"/>
<path d="M36.5741 140.514L36.2129 144.793H22.1639L21.8027 140.514H36.5741Z" fill="#263238"/>
<path d="M37.7334 138.797H20.64V142.901H37.7334V138.797Z" fill="#37474F"/>
</svg>
