<svg width="172" height="172" viewBox="0 0 172 172" fill="none" xmlns="http://www.w3.org/2000/svg">
<path d="M172 131.546H0V131.632H172V131.546Z" fill="#EBEBEB"/>
<path d="M81.528 116.203H15.105C14.5847 116.202 14.0859 115.995 13.7183 115.627C13.3507 115.258 13.1442 114.759 13.1442 114.239V20.8671C13.1488 20.3497 13.3572 19.855 13.7244 19.4905C14.0915 19.1259 14.5876 18.9209 15.105 18.92H81.528C82.0489 18.92 82.5486 19.127 82.9169 19.4954C83.2853 19.8637 83.4922 20.3633 83.4922 20.8843V114.239C83.4922 114.76 83.2853 115.26 82.9169 115.628C82.5486 115.996 82.0489 116.203 81.528 116.203ZM15.105 18.9888C14.6075 18.9898 14.1306 19.188 13.7791 19.5402C13.4276 19.8923 13.2302 20.3695 13.2302 20.8671V114.239C13.2302 114.737 13.4276 115.214 13.7791 115.566C14.1306 115.918 14.6075 116.116 15.105 116.117H81.528C82.0259 116.116 82.5031 115.918 82.8551 115.566C83.2071 115.214 83.4053 114.737 83.4062 114.239V20.8671C83.4053 20.3692 83.2071 19.892 82.8551 19.54C82.5031 19.1879 82.0259 18.9898 81.528 18.9888H15.105Z" fill="#EBEBEB"/>
<path d="M155.939 116.203H89.5122C88.9915 116.202 88.4925 115.995 88.1243 115.627C87.7561 115.259 87.5489 114.76 87.548 114.239V20.8671C87.5534 20.3494 87.7626 19.8547 88.1303 19.4903C88.498 19.1258 88.9945 18.9209 89.5122 18.92H155.939C156.455 18.9218 156.951 19.1272 157.317 19.4917C157.683 19.8561 157.891 20.3503 157.896 20.8671V114.239C157.896 114.759 157.69 115.257 157.323 115.626C156.956 115.994 156.458 116.201 155.939 116.203ZM89.5122 18.9888C89.0143 18.9898 88.5371 19.1879 88.1851 19.54C87.8331 19.892 87.6349 20.3692 87.634 20.8671V114.239C87.6349 114.737 87.8331 115.214 88.1851 115.566C88.5371 115.918 89.0143 116.116 89.5122 116.117H155.939C156.436 116.116 156.914 115.918 157.266 115.566C157.618 115.214 157.816 114.737 157.817 114.239V20.8671C157.816 20.3692 157.618 19.892 157.266 19.54C156.914 19.1879 156.436 18.9898 155.939 18.9888H89.5122Z" fill="#EBEBEB"/>
<path d="M68.9514 134.821H60.0074V134.907H68.9514V134.821Z" fill="#EBEBEB"/>
<path d="M36.6566 133.888H18.0462V133.974H36.6566V133.888Z" fill="#EBEBEB"/>
<path d="M59.6633 138.016H50.6093V138.102H59.6633V138.016Z" fill="#EBEBEB"/>
<path d="M102.189 137.438H88.8311V137.524H102.189V137.438Z" fill="#EBEBEB"/>
<path d="M108.928 137.438H105.25V137.524H108.928V137.438Z" fill="#EBEBEB"/>
<path d="M154.769 135.987H136V136.073H154.769V135.987Z" fill="#EBEBEB"/>
<path d="M131.085 128.494H146.788V85.3327H131.085V128.494Z" fill="#F0F0F0"/>
<path d="M62.5151 131.542H143.771V128.491H62.5151V131.542Z" fill="#F0F0F0"/>
<path d="M131.085 85.3292H59.5017V128.491H131.085V85.3292Z" fill="#F5F5F5"/>
<path d="M131.36 88.2533H59.5017V104.053H131.36V88.2533Z" fill="#F0F0F0"/>
<path d="M131.36 106.932H59.5017V122.732H131.36V106.932Z" fill="#F0F0F0"/>
<path d="M131.085 104.05H133.802V88.2498H131.085V104.05Z" fill="#E6E6E6"/>
<path d="M131.085 122.729H133.802V106.929H131.085V122.729Z" fill="#E6E6E6"/>
<path d="M57.4102 85.3292L131.085 85.3292V82.6735L57.4102 82.6735V85.3292Z" fill="#F0F0F0"/>
<path d="M148.983 82.6736H131.085V85.3293H148.983V82.6736Z" fill="#E6E6E6"/>
<path d="M112.884 74.5552H149.839V28.1014L112.884 28.1014V74.5552Z" fill="#F0F0F0"/>
<path d="M104.724 74.5552H148.422V28.1014L104.724 28.1014V74.5552Z" fill="#F5F5F5"/>
<path d="M108.384 31.7616V70.895H144.762V31.7616H108.384Z" fill="white"/>
<path d="M130.6 55.563L137.552 52.3397V50.3135L130.6 47.0834V49.512L134.824 51.3318L130.6 53.1515V55.563Z" fill="#E6E6E6"/>
<path d="M126.066 46.1476H124.796L127.046 56.5054H128.312L126.066 46.1476Z" fill="#E6E6E6"/>
<path d="M122.543 53.1515L118.336 51.3318L122.56 49.512V47.0834L115.584 50.3135V52.3397L122.536 55.563L122.543 53.1515Z" fill="#E6E6E6"/>
<path d="M40.3237 131.546H42.7454L42.7454 52.7077H40.3237L40.3237 131.546Z" fill="#F0F0F0"/>
<path d="M39.818 130.995L39.7526 130.651C40.0017 130.571 40.2318 130.441 40.4288 130.269C40.6258 130.097 40.7855 129.886 40.8981 129.65C41.5277 128.536 41.9095 126.159 40.1585 121.177C37.4616 113.499 39.0715 107.307 42.281 94.9647C42.8383 92.8147 43.4713 90.3792 44.1283 87.7407C46.5948 77.8782 44.3141 71.7619 42.4805 66.8461C41.0598 63.0312 39.9349 60.0177 41.3729 56.5261L41.6928 56.6568C40.3168 60.0212 41.4073 62.9796 42.8039 66.7257C44.6546 71.6828 46.956 77.8576 44.462 87.8198C43.8049 90.4548 43.172 92.8904 42.6147 95.0438C39.4224 107.328 37.8193 113.493 40.4853 121.088C42.2845 126.21 41.8613 128.687 41.1733 129.86C41.0368 130.132 40.8461 130.373 40.613 130.568C40.3799 130.763 40.1094 130.908 39.818 130.995Z" fill="#F0F0F0"/>
<path d="M37.1486 131.546H45.9171L43.4782 130.108H39.5875L37.1486 131.546Z" fill="#F0F0F0"/>
<path d="M24.1866 62.7491H58.879L55.0606 33.5985H28.005L24.1866 62.7491Z" fill="#F5F5F5"/>
<path d="M75.6387 67.5548H94.1597L91.7207 82.6736H78.0777L75.6387 67.5548Z" fill="#F0F0F0"/>
<path d="M83.0794 72.474C88.1293 70.6473 91.9959 67.9022 87.6684 62.3466C83.3409 56.791 76.6363 56.8186 72.1161 59.2782C66.3576 62.4086 67.5134 71.473 67.5134 71.473C67.5134 71.473 78.0295 74.3041 83.0794 72.474Z" fill="#E0E0E0"/>
<path d="M87.9883 67.424C84.1252 64.7924 81.387 61.748 85.8693 58.5351C90.3516 55.3221 95.8797 56.9699 99.2027 59.9523C103.437 63.757 100.992 70.434 100.992 70.434C100.992 70.434 91.848 70.0419 87.9883 67.424Z" fill="#E6E6E6"/>
<path d="M81.184 60.7471C85.7042 60.4753 89.495 59.2954 87.3554 54.4003C85.2157 49.5051 79.7874 48.1326 75.5527 48.9719C70.1416 50.0418 68.8654 56.8117 68.8654 56.8117C68.8654 56.8117 76.6673 61.0223 81.184 60.7471Z" fill="#F0F0F0"/>
<path d="M86.86 57.8608C83.1001 56.65 80.152 54.8371 83.0175 51.1597C85.883 47.4824 90.7575 47.503 94.1631 49.1267C98.5044 51.1907 98.1191 57.1969 98.1191 57.1969C98.1191 57.1969 90.6199 59.0683 86.86 57.8608Z" fill="#EBEBEB"/>
<path d="M79.808 51.6001C83.5611 52.8385 87.0114 53.1068 86.8566 48.449C86.7018 43.7913 82.7595 40.9361 79.0512 40.2274C74.3212 39.3468 71.1014 44.4208 71.1014 44.4208C71.1014 44.4208 76.0619 50.3513 79.808 51.6001Z" fill="#F5F5F5"/>
<path d="M89.3334 49.5876C86.6467 49.7734 84.3247 49.3675 85.2054 46.3162C86.086 43.2649 89.182 42.0506 91.7414 42.2192C95.0094 42.4359 96.2787 46.3472 96.2787 46.3472C96.2787 46.3472 92.0166 49.4053 89.3334 49.5876Z" fill="#FAFAFA"/>
<path d="M86 147.081C122.836 147.081 152.698 145.337 152.698 143.187C152.698 141.036 122.836 139.292 86 139.292C49.1636 139.292 19.3018 141.036 19.3018 143.187C19.3018 145.337 49.1636 147.081 86 147.081Z" fill="#F5F5F5"/>
<path d="M144.225 86.3749H27.3514V90.5682H144.225V86.3749Z" fill="#407BFF"/>
<path opacity="0.3" d="M58.6314 86.3749H27.3514V90.5682H58.6314V86.3749Z" fill="white"/>
<path d="M59.1302 90.5682H56.4091L57.8333 143.125H59.1302H60.427L61.8546 90.5682H59.1302Z" fill="#407BFF"/>
<path opacity="0.3" d="M57.8333 143.125H59.1302V91.6967L56.4539 92.1851L57.8333 143.125Z" fill="white"/>
<path d="M33.3405 90.5682H30.6194L32.0436 143.125H33.3405H34.6374L36.0615 90.5682H33.3405Z" fill="#407BFF"/>
<path opacity="0.3" d="M32.0436 143.125H33.3405V91.6967L30.6607 92.1851L32.0436 143.125Z" fill="white"/>
<path d="M138.236 90.5682H135.515L136.94 143.125H138.236H139.533L140.961 90.5682H138.236Z" fill="#407BFF"/>
<path opacity="0.3" d="M136.939 143.125H138.236V91.6967L135.56 92.1851L136.939 143.125Z" fill="white"/>
<path d="M112.447 90.5682H109.726L111.15 143.125H112.447H113.744L115.168 90.5682H112.447Z" fill="#407BFF"/>
<path opacity="0.3" d="M111.15 143.125H112.447V91.6967L109.77 92.1851L111.15 143.125Z" fill="white"/>
<path d="M82.8283 63.9254H55.04C54.8145 63.9165 54.5901 63.9611 54.385 64.0554C54.18 64.1498 54.0003 64.2913 53.8604 64.4684C53.7205 64.6455 53.6245 64.8532 53.5802 65.0745C53.5359 65.2958 53.5446 65.5244 53.6055 65.7418L57.307 83.4062C57.4261 83.9058 57.7047 84.353 58.1007 84.6801C58.4968 85.0072 58.9885 85.1964 59.5017 85.219H87.3106C87.5358 85.2278 87.7598 85.1833 87.9645 85.0891C88.1691 84.9949 88.3487 84.8537 88.4885 84.6771C88.6283 84.5004 88.7244 84.2932 88.769 84.0723C88.8136 83.8515 88.8054 83.6232 88.7451 83.4062L85.0402 65.7418C84.921 65.2388 84.64 64.7887 84.2405 64.4607C83.841 64.1326 83.3449 63.9446 82.8283 63.9254Z" fill="#263238"/>
<path d="M59.7424 84.2112C59.3958 84.1878 59.0655 84.0554 58.7986 83.833C58.5317 83.6106 58.3419 83.3095 58.2564 82.9728L54.5549 65.3084C54.5233 65.1915 54.5183 65.069 54.5403 64.9499C54.5623 64.8308 54.6108 64.7182 54.6822 64.6204C54.7563 64.5366 54.8482 64.4706 54.9512 64.4271C55.0542 64.3837 55.1657 64.3639 55.2773 64.3693H83.0863C83.4329 64.3927 83.7633 64.525 84.0302 64.7474C84.2971 64.9699 84.4868 65.2709 84.5724 65.6077L88.2738 83.2721C88.3055 83.389 88.3105 83.5115 88.2885 83.6306C88.2664 83.7496 88.2179 83.8623 88.1465 83.9601C88.0729 84.0444 87.9811 84.1109 87.878 84.1544C87.7749 84.1979 87.6632 84.2173 87.5514 84.2112H59.7424Z" fill="white"/>
<path opacity="0.4" d="M80.7231 82.7974L77.2143 66.048C77.1945 65.9488 77.1969 65.8465 77.2212 65.7484C77.2455 65.6503 77.2912 65.5587 77.3549 65.4802C77.4186 65.4017 77.4988 65.3382 77.5899 65.2942C77.6809 65.2503 77.7805 65.2269 77.8816 65.2258H82.3949C82.5514 65.227 82.7027 65.2815 82.8241 65.3803C82.9454 65.4792 83.0294 65.6164 83.0623 65.7694L86.5711 82.5049C86.5908 82.6041 86.5884 82.7064 86.5641 82.8045C86.5398 82.9027 86.4942 82.9942 86.4304 83.0727C86.3667 83.1512 86.2865 83.2147 86.1955 83.2587C86.1044 83.3027 86.0048 83.326 85.9037 83.3271H81.3904C81.2358 83.3266 81.0859 83.2741 80.9649 83.178C80.8438 83.0819 80.7586 82.9478 80.7231 82.7974Z" fill="#407BFF"/>
<path d="M56.8701 66.6913L56.7188 65.9655H62.2915L62.4429 66.6913H56.8701Z" fill="#407BFF"/>
<path d="M59.4432 68.4938L59.2919 67.7679H69.058L69.2128 68.4938H59.4432Z" fill="#EBEBEB"/>
<path d="M59.9592 70.293L59.8044 69.5671H70.7539L70.9053 70.293H59.9592Z" fill="#EBEBEB"/>
<path d="M60.4717 72.0955L60.3204 71.3696H69.1337L69.2885 72.0955H60.4717Z" fill="#EBEBEB"/>
<path d="M58.566 75.016L58.4112 74.2902H61.9372L62.0886 75.016H58.566Z" fill="#407BFF"/>
<path d="M61.1357 76.8152L60.9843 76.0894H65.2774L65.4322 76.8152H61.1357Z" fill="#EBEBEB"/>
<path d="M66.4608 76.8152L66.306 76.0894H70.6026L70.7539 76.8152H66.4608Z" fill="#EBEBEB"/>
<path d="M61.6517 78.6177L61.5003 77.8918H76.0171L76.1685 78.6177H61.6517Z" fill="#EBEBEB"/>
<path d="M62.1642 80.4169L62.0129 79.691H73.0828L73.2342 80.4169H62.1642Z" fill="#EBEBEB"/>
<path d="M95.8109 85.1124H59.223C58.2254 85.1124 57.5787 85.68 57.7886 86.3749H98.0056C97.7992 85.68 96.8085 85.1124 95.8109 85.1124Z" fill="#263238"/>
<path opacity="0.1" d="M47.2003 59.4604L43.688 42.7213C43.6689 42.6224 43.6717 42.5205 43.6962 42.4228C43.7208 42.3251 43.7665 42.2339 43.8302 42.1559C43.8939 42.0778 43.9739 42.0146 44.0646 41.9708C44.1554 41.9271 44.2546 41.9038 44.3554 41.9026H72.7698C72.9258 41.9036 73.0768 41.9576 73.198 42.0558C73.3193 42.1539 73.4036 42.2903 73.4371 42.4427L76.9494 59.1679C76.9691 59.2671 76.9667 59.3694 76.9424 59.4675C76.9181 59.5657 76.8725 59.6572 76.8088 59.7357C76.745 59.8142 76.6648 59.8777 76.5738 59.9217C76.4827 59.9657 76.3831 59.989 76.282 59.9901H47.8676C47.713 59.9896 47.5631 59.9371 47.4421 59.841C47.321 59.7449 47.2358 59.6108 47.2003 59.4604Z" fill="#407BFF"/>
<path d="M57.3001 42.453H51.3351L51.2009 41.8097H57.1659L57.3001 42.453Z" fill="#407BFF"/>
<path opacity="0.4" d="M56.33 43.4781H53.9357L53.8016 42.8348H56.1958L56.33 43.4781Z" fill="#407BFF"/>
<path opacity="0.4" d="M60.3135 43.4781H56.6259L56.4917 42.8348H60.1794L60.3135 43.4781Z" fill="#407BFF"/>
<path opacity="0.4" d="M61.92 44.4998H54.1491L54.0149 43.8566H61.7893L61.92 44.4998Z" fill="#407BFF"/>
<path opacity="0.4" d="M60.9327 45.525H54.3623L54.2281 44.8817H60.7986L60.9327 45.525Z" fill="#407BFF"/>
<path opacity="0.4" d="M65.2912 56.3988H61.1082L61.2423 57.0386H65.4254L65.2912 56.3988Z" fill="#407BFF"/>
<path d="M60.0762 54.9952H53.9495L53.8154 54.3519H59.942L60.0762 54.9952Z" fill="#407BFF"/>
<path opacity="0.4" d="M62.5392 57.4204H56.8426L56.9768 58.0637H62.6734L62.5392 57.4204Z" fill="#407BFF"/>
<path opacity="0.4" d="M60.8123 56.3988H56.6293L56.7634 57.0386H60.9465L60.8123 56.3988Z" fill="#407BFF"/>
<path opacity="0.4" d="M64.7821 55.3737H56.416L56.5502 56.0169H64.9163L64.7821 55.3737Z" fill="#407BFF"/>
<path d="M57.0902 37.6783H50.3409L50.2068 37.0385H56.9561L57.0902 37.6783Z" fill="#407BFF"/>
<path opacity="0.4" d="M60.4236 40.1069H52.9794L53.1136 40.7502H60.5543L60.4236 40.1069Z" fill="#407BFF"/>
<path opacity="0.4" d="M58.9341 39.0852H52.7662L52.9003 39.725H59.0683L58.9341 39.0852Z" fill="#407BFF"/>
<path opacity="0.4" d="M59.3434 38.0602H52.5529L52.687 38.7035H59.4776L59.3434 38.0602Z" fill="#407BFF"/>
<path d="M57.0146 47.1899H52.3224L52.1882 46.5466H56.8804L57.0146 47.1899Z" fill="#407BFF"/>
<path opacity="0.4" d="M64.3831 49.6151H55.2155L55.3496 50.2584H64.5138L64.3831 49.6151Z" fill="#407BFF"/>
<path opacity="0.4" d="M58.7999 48.5934H55.0021L55.1363 49.2367H58.9341L58.7999 48.5934Z" fill="#407BFF"/>
<path opacity="0.4" d="M62.9211 48.5934H59.1233L59.2575 49.2367H63.0552L62.9211 48.5934Z" fill="#407BFF"/>
<path opacity="0.4" d="M63.155 47.5682H54.7889L54.923 48.2115H63.2857L63.155 47.5682Z" fill="#407BFF"/>
<path opacity="0.4" d="M63.1378 52.687H55.8553L55.9894 53.3269H63.2719L63.1378 52.687Z" fill="#407BFF"/>
<path opacity="0.4" d="M57.7611 51.6619H55.642L55.7762 52.3051H57.8918L57.7611 51.6619Z" fill="#407BFF"/>
<path opacity="0.4" d="M61.0737 51.6619H58.05L58.1841 52.3051H61.2079L61.0737 51.6619Z" fill="#407BFF"/>
<path opacity="0.4" d="M63.7948 50.6403H55.4287L55.5629 51.2801H63.9289L63.7948 50.6403Z" fill="#407BFF"/>
<path opacity="0.4" d="M70.3824 50.4682H67.3862L67.252 49.825H70.2517L70.3824 50.4682Z" fill="#407BFF"/>
<path opacity="0.4" d="M75.3704 50.4682H70.7539L70.6198 49.825H75.2362L75.3704 50.4682Z" fill="#407BFF"/>
<path opacity="0.4" d="M77.3312 51.4934H67.5994L67.4653 50.8501H77.197L77.3312 51.4934Z" fill="#407BFF"/>
<path opacity="0.4" d="M76.0378 52.515H67.8127L67.6786 51.8717H75.9036L76.0378 52.515Z" fill="#407BFF"/>
<path opacity="0.4" d="M79.722 46.3987H70.403L70.5372 47.0385H79.8561L79.722 46.3987Z" fill="#407BFF"/>
<path opacity="0.4" d="M77.9126 45.3735H70.1898L70.3239 46.0168H78.0433L77.9126 45.3735Z" fill="#407BFF"/>
<path d="M76.5159 44.3519H68.0123L68.1464 44.9918H76.6501L76.5159 44.3519Z" fill="#407BFF"/>
<path opacity="0.4" d="M80.1417 56.6086H68.6658L68.8 57.2519H80.2758L80.1417 56.6086Z" fill="#407BFF"/>
<path opacity="0.4" d="M73.2067 55.5869H68.4526L68.5867 56.2268H73.3408L73.2067 55.5869Z" fill="#407BFF"/>
<path opacity="0.4" d="M78.3666 55.5869H73.6125L73.7467 56.2268H78.5008L78.3666 55.5869Z" fill="#407BFF"/>
<path opacity="0.4" d="M78.7106 54.5618H68.2393L68.3734 55.205H78.8448L78.7106 54.5618Z" fill="#407BFF"/>
<path opacity="0.4" d="M78.4217 59.6771H69.3057L69.4398 60.3204H78.5558L78.4217 59.6771Z" fill="#407BFF"/>
<path opacity="0.4" d="M71.7446 58.6554H69.0924L69.2266 59.2987H71.8788L71.7446 58.6554Z" fill="#407BFF"/>
<path opacity="0.4" d="M75.8933 58.6554H72.1093L72.2434 59.2987H76.0274L75.8933 58.6554Z" fill="#407BFF"/>
<path opacity="0.4" d="M79.3539 57.6302H68.8792L69.0133 58.2735H79.4847L79.3539 57.6302Z" fill="#407BFF"/>
<path opacity="0.4" d="M51.4624 60.4717H44.3278L44.462 61.115H51.5965L51.4624 60.4717Z" fill="#407BFF"/>
<path opacity="0.4" d="M49.3537 59.4501H44.1146L44.2487 60.0899H49.4844L49.3537 59.4501Z" fill="#407BFF"/>
<path opacity="0.4" d="M54.9574 59.4501H49.7217L49.8559 60.0899H55.095L54.9574 59.4501Z" fill="#407BFF"/>
<path opacity="0.4" d="M54.3761 58.4249H43.9013L44.0355 59.0682H54.5068L54.3761 58.4249Z" fill="#407BFF"/>
<path d="M134.487 79.691H130.07L130.586 86.375H133.971L134.487 79.691Z" fill="#407BFF"/>
<path opacity="0.4" d="M134.487 79.691H130.07L130.586 86.375H133.971L134.487 79.691Z" fill="white"/>
<path d="M38.2287 75.0504H44.579L42.4118 86.3749H36.0615L38.2287 75.0504Z" fill="#263238"/>
<path d="M46.3162 72.0164H37.3481L39.8593 86.3749H48.8274L46.3162 72.0164Z" fill="#407BFF"/>
<path d="M36.8183 72.0164H37.3481L39.8593 86.3749H39.3295L36.8183 72.0164Z" fill="#407BFF"/>
<path opacity="0.3" d="M36.8183 72.0164H37.3481L39.8593 86.3749H39.3295L36.8183 72.0164Z" fill="black"/>
<path d="M41.1493 84.8373L39.1747 73.5507H45.0296L47.0007 84.8373H41.1493Z" fill="white"/>
<path opacity="0.6" d="M46.7221 84.8373L44.751 73.5507H45.0296L47.0007 84.8373H46.7221Z" fill="#407BFF"/>
<path d="M90.7368 53.6641C90.8641 53.9393 90.8228 54.2317 90.6405 54.3142C90.4582 54.3968 90.2105 54.242 90.0832 53.9702C89.956 53.6985 90.0007 53.4026 90.1796 53.3201C90.3584 53.2375 90.6096 53.3751 90.7368 53.6641Z" fill="#263238"/>
<path d="M90.847 54.2075C90.847 54.2075 90.9571 56.0858 90.6199 57.1728C91.3079 57.4033 92.051 56.8288 92.051 56.8288L90.847 54.2075Z" fill="#FF5652"/>
<path d="M90.7713 51.3902C90.742 51.4144 90.7059 51.4288 90.6681 51.4315C90.4442 51.4374 90.2249 51.4963 90.0282 51.6034C89.8314 51.7104 89.6629 51.8625 89.5363 52.0473C89.525 52.0684 89.5096 52.0871 89.4909 52.1022C89.4722 52.1173 89.4507 52.1284 89.4276 52.135C89.4046 52.1416 89.3804 52.1435 89.3566 52.1405C89.3328 52.1376 89.3098 52.1299 89.289 52.1179C89.2683 52.1059 89.2501 52.0898 89.2357 52.0707C89.2212 52.0515 89.2108 52.0296 89.205 52.0064C89.1992 51.9831 89.1981 51.9589 89.2018 51.9352C89.2056 51.9115 89.214 51.8888 89.2267 51.8684C89.3825 51.6318 89.5929 51.4361 89.8402 51.2979C90.0874 51.1596 90.3643 51.0827 90.6474 51.0738C90.685 51.0717 90.7223 51.0815 90.754 51.1019C90.7857 51.1223 90.8102 51.1521 90.8239 51.1872C90.8376 51.2223 90.8399 51.2608 90.8305 51.2972C90.821 51.3337 90.8003 51.3662 90.7713 51.3902Z" fill="#263238"/>
<path d="M100.868 53.2375C101.931 56.9183 103.117 59.7736 104.566 61.4041C104.566 61.4041 104.593 64.2972 99.6637 65.6732C94.2423 67.1868 96.32 63.7055 96.32 63.7055C99.072 62.1747 98.8106 59.863 96.7397 58.9824L100.868 53.2375Z" fill="#FF8B7B"/>
<path d="M105.715 60.6988C105.618 59.3538 105.491 57.8195 104.662 57.7782C103.747 57.737 98.4493 60.1037 97.3176 61.7721C96.1858 63.4405 98.3978 65.0745 98.3978 65.0745L105.715 60.6988Z" fill="#263238"/>
<path d="M94.8718 81.5281L90.2966 81.3767L90.3791 85.2089C90.3791 85.2089 94.3695 84.7961 94.545 83.7469L94.8718 81.5281Z" fill="#FF8B7B"/>
<path d="M87.8782 83.2584L87.3966 85.2192L90.3791 85.2123L90.2965 81.3801L87.8782 83.2584Z" fill="#FF8B7B"/>
<path d="M113.234 65.6043L113.138 66.5881C113.107 66.9046 113.066 67.2142 113.025 67.5272C112.946 68.1499 112.846 68.7725 112.739 69.3917C112.533 70.6335 112.264 71.8685 111.955 73.1103C111.64 74.376 111.259 75.6241 110.813 76.8496C110.575 77.4791 110.328 78.1087 110.032 78.7485C109.734 79.4197 109.389 80.0691 109 80.6921C108.907 80.8538 108.79 81.0361 108.676 81.1875C108.563 81.3388 108.453 81.5315 108.332 81.6897C108.212 81.8479 108.085 82.0337 107.927 82.1954L107.703 82.4499C107.623 82.5438 107.538 82.6334 107.448 82.7183C106.759 83.3935 105.951 83.9358 105.064 84.3179C103.705 84.9011 102.262 85.2668 100.789 85.4015C100.118 85.4806 99.4538 85.5115 98.8037 85.5287C98.1535 85.5459 97.5034 85.5287 96.8635 85.4943C96.2237 85.4599 95.5907 85.4049 94.9612 85.3292C94.3317 85.2535 93.7194 85.1538 93.052 85.0196L93.1621 81.4248C95.3586 81.0407 97.5298 80.5238 99.6637 79.8768C100.138 79.7225 100.604 79.5434 101.06 79.3402C101.448 79.1764 101.819 78.9748 102.168 78.7382C102.371 78.6161 102.543 78.4489 102.67 78.2497L102.77 78.0915C102.816 78.0239 102.859 77.9538 102.897 77.8816C102.946 77.8027 102.991 77.7211 103.031 77.6374C103.076 77.5479 103.124 77.4654 103.169 77.3656C103.573 76.4833 103.906 75.5699 104.163 74.6343C104.445 73.6229 104.71 72.5703 104.923 71.4798C105.137 70.3893 105.343 69.2885 105.532 68.1774L105.794 66.5055L106.031 64.8784L113.234 65.6043Z" fill="#407BFF"/>
<path opacity="0.2" d="M113.234 65.6043L113.138 66.5881C113.107 66.9046 113.066 67.2142 113.025 67.5272C112.946 68.1499 112.846 68.7725 112.739 69.3917C112.533 70.6335 112.264 71.8685 111.955 73.1103C111.64 74.376 111.259 75.6241 110.813 76.8496C110.575 77.4791 110.328 78.1087 110.032 78.7485C109.734 79.4197 109.389 80.0691 109 80.6921C108.907 80.8538 108.79 81.0361 108.676 81.1875C108.563 81.3388 108.453 81.5315 108.332 81.6897C108.212 81.8479 108.085 82.0337 107.927 82.1954L107.703 82.4499C107.623 82.5438 107.538 82.6334 107.448 82.7183C106.759 83.3935 105.951 83.9358 105.064 84.3179C103.705 84.9011 102.262 85.2668 100.789 85.4015C100.118 85.4806 99.4538 85.5115 98.8037 85.5287C98.1535 85.5459 97.5034 85.5287 96.8635 85.4943C96.2237 85.4599 95.5907 85.4049 94.9612 85.3292C94.3317 85.2535 93.7194 85.1538 93.052 85.0196L93.1621 81.4248C95.3586 81.0407 97.5298 80.5238 99.6637 79.8768C100.138 79.7225 100.604 79.5434 101.06 79.3402C101.448 79.1764 101.819 78.9748 102.168 78.7382C102.371 78.6161 102.543 78.4489 102.67 78.2497L102.77 78.0915C102.816 78.0239 102.859 77.9538 102.897 77.8816C102.946 77.8027 102.991 77.7211 103.031 77.6374C103.076 77.5479 103.124 77.4654 103.169 77.3656C103.573 76.4833 103.906 75.5699 104.163 74.6343C104.445 73.6229 104.71 72.5703 104.923 71.4798C105.137 70.3893 105.343 69.2885 105.532 68.1774L105.794 66.5055L106.031 64.8784L113.234 65.6043Z" fill="black"/>
<path d="M92.9213 70.1761C94.627 77.5302 95.587 85.0375 95.7868 92.5842H115.928C116.038 90.0971 115.618 76.0722 113.592 65.9414C113.412 65.0238 113.051 64.1514 112.529 63.3754C112.007 62.5995 111.336 61.9356 110.554 61.4229C109.772 60.9101 108.895 60.5588 107.976 60.3896C107.056 60.2203 106.112 60.2366 105.199 60.4374L105.102 60.4615C102.588 61.0325 98.9791 61.9545 96.8463 62.7629L96.7603 62.7973C95.334 63.3518 94.158 64.4062 93.4516 65.7639C92.7453 67.1215 92.5568 68.6897 92.9213 70.1761Z" fill="#407BFF"/>
<path opacity="0.2" d="M94.2319 76.6089C94.3902 77.5755 94.5519 78.6006 94.6998 79.6739C96.3475 77.9539 96.8704 72.6838 96.8704 72.6838L94.2319 76.6089Z" fill="black"/>
<path d="M77.4997 81.7792L72.928 81.3527L72.7766 85.1814C73.5322 85.3899 74.3304 85.3877 75.0848 85.1748C75.8392 84.962 76.5209 84.5467 77.056 83.9739L77.4997 81.7792Z" fill="#FF8B7B"/>
<path d="M70.7539 82.481L69.2885 85.1126L72.7904 85.1814L72.9417 81.3527L70.7539 82.481Z" fill="#FF8B7B"/>
<path d="M100.479 68.4113C100.162 69.0133 99.8804 69.5465 99.5639 70.0969C99.2474 70.6473 98.9447 71.184 98.6179 71.7172C97.9712 72.7904 97.3004 73.8431 96.5917 74.8854C95.169 77.0199 93.5927 79.048 91.8755 80.9536C90.9559 81.9794 89.9563 82.9307 88.8861 83.7984C88.752 83.912 88.5937 84.022 88.4458 84.1424C88.2979 84.2628 88.1672 84.3592 87.947 84.4864C87.7269 84.6137 87.5411 84.741 87.3416 84.8511C87.142 84.9612 86.9357 85.0609 86.7327 85.1504C85.9739 85.4798 85.1798 85.721 84.366 85.8693C82.9425 86.1093 81.4918 86.1417 80.0591 85.9656C79.3881 85.8887 78.7219 85.7739 78.0639 85.6216C77.7359 85.546 77.4126 85.46 77.0938 85.3636C76.7498 85.2673 76.4712 85.1607 76.1031 85.0196L76.6707 81.4696C78.831 81.1772 81.1668 80.8022 82.7767 80.0729C83.1341 79.9261 83.4706 79.7329 83.7777 79.4984C83.9014 79.4134 84.0166 79.3166 84.1217 79.2095C84.1458 79.1785 84.2524 79.0856 84.3316 79.01C84.4107 78.9343 84.5036 78.862 84.5896 78.7726C85.3259 78.0429 86.0153 77.2674 86.6536 76.4506C88.0385 74.6639 89.3324 72.8086 90.5305 70.8916C91.1497 69.918 91.7517 68.9273 92.3537 67.9332L93.2412 66.4402L94.0977 64.9713L100.479 68.4113Z" fill="#407BFF"/>
<path d="M94.9508 140.214H91.1875L89.2921 131.494H93.0588L94.9508 140.214Z" fill="#FF8B7B"/>
<path d="M90.9777 139.409H95.2089C95.2824 139.412 95.3532 139.438 95.4108 139.484C95.4684 139.53 95.5097 139.593 95.5288 139.664L96.2719 143.015C96.2896 143.096 96.2886 143.18 96.269 143.261C96.2494 143.342 96.2117 143.418 96.1587 143.482C96.1057 143.546 96.0388 143.598 95.9631 143.632C95.8873 143.667 95.8047 143.684 95.7215 143.682C94.2457 143.658 93.5267 143.572 91.6657 143.572C90.5202 143.572 89.0513 143.689 87.4723 143.689C85.8934 143.689 85.6835 142.127 86.3303 141.986C89.2336 141.35 89.4263 140.476 90.3654 139.64C90.5338 139.49 90.7521 139.408 90.9777 139.409Z" fill="#263238"/>
<g opacity="0.2">
<path d="M93.0623 131.498H89.2921L90.3447 136.327L94.0392 135.994L93.0623 131.498Z" fill="black"/>
</g>
<path d="M99.6602 48.8136C101.036 52.2949 101.993 54.266 101.084 56.7944C99.7084 60.5956 94.8271 60.9809 92.4535 57.9743C90.3207 55.2671 88.4562 50.0279 91.1497 47.1487C91.7395 46.5103 92.4829 46.0335 93.309 45.7636C94.1351 45.4936 95.0166 45.4395 95.8695 45.6064C96.7225 45.7732 97.5186 46.1555 98.1821 46.7169C98.8456 47.2783 99.3544 48.0001 99.6602 48.8136Z" fill="#FF8B7B"/>
<path d="M93.0486 54.0287C92.4844 54.7855 92.051 55.36 92.051 55.36C92.051 55.36 90.8917 52.4807 91.3355 51.1597C90.7713 50.0417 89.6327 51.6895 89.2027 49.512C88.7727 47.3345 90.6337 44.9953 91.3355 44.5102C91.4078 44.764 91.4403 45.0274 91.4318 45.2911C93.328 43.7522 95.738 42.9911 98.1742 43.1617C97.9705 43.4646 97.8409 43.811 97.7958 44.1731C97.7958 44.1731 101.879 44.8611 102.808 47.1728C102.479 47.016 102.133 46.9004 101.776 46.8288C102.524 47.902 102.821 49.2265 102.601 50.5165C102.305 52.3976 102.151 54.2984 102.14 56.2028C102.178 57.1797 99.4986 59.0477 97.8646 57.0525C96.2306 55.0573 93.0486 54.0287 93.0486 54.0287Z" fill="#263238"/>
<path d="M94.7514 53.2787C94.9645 54.0896 94.904 54.9481 94.5794 55.7211C94.1425 56.7531 93.2446 56.5054 92.8009 55.6042C92.3984 54.7958 92.1404 53.2959 92.8525 52.577C93.5646 51.858 94.483 52.3052 94.7514 53.2787Z" fill="#FF8B7B"/>
<path d="M101.824 92.5704C101.824 92.5704 84.335 98.9138 83.8225 107.304C82.873 122.76 89.1923 134.996 89.1923 134.996L94.9853 134.377C94.9853 134.377 93.9533 129.403 93.1862 115.402C92.2195 97.8061 122.082 115.815 115.931 92.5704H101.824Z" fill="#407BFF"/>
<path opacity="0.5" d="M101.824 92.5704C101.824 92.5704 84.335 98.9138 83.8225 107.304C82.873 122.76 89.1923 134.996 89.1923 134.996L94.9853 134.377C94.9853 134.377 93.9533 129.403 93.1862 115.402C92.2195 97.8061 122.082 115.815 115.931 92.5704H101.824Z" fill="white"/>
<path d="M87.5893 132.863C87.5618 132.863 88.5112 135.436 88.5112 135.436L95.7352 134.728L95.374 132.388L87.5893 132.863Z" fill="#407BFF"/>
<path d="M78.6831 140.644H74.9163L73.8155 131.921H77.5823L78.6831 140.644Z" fill="#FF8B7B"/>
<path d="M74.8888 139.406H79.0168C79.0913 139.405 79.1638 139.43 79.2221 139.476C79.2804 139.523 79.3209 139.588 79.3367 139.661L80.0866 143.008C80.1085 143.09 80.1111 143.176 80.094 143.259C80.077 143.342 80.0408 143.42 79.9884 143.487C79.936 143.553 79.8688 143.607 79.7922 143.643C79.7155 143.68 79.6314 143.698 79.5466 143.696C78.0639 143.672 75.9174 143.589 74.0426 143.593C71.8616 143.593 71.4454 143.713 68.8826 143.716C67.3346 143.716 66.9046 142.158 67.5513 141.996C70.4959 141.35 71.4385 141.277 73.9806 139.705C74.249 139.522 74.5639 139.418 74.8888 139.406Z" fill="#263238"/>
<path opacity="0.2" d="M73.819 131.924L74.4175 136.675L78.1534 136.42L77.5858 131.924H73.819Z" fill="black"/>
<path d="M95.7868 92.5704C95.7868 92.5704 67.1316 95.1126 67.4412 109.506C67.7611 124.476 73.3546 134.573 73.3546 134.573H78.948C78.948 134.573 77.8885 126.805 78.0777 112.068C78.1327 107.655 87.0561 106.196 95.7662 105.68C103.293 105.233 110.338 100.943 113.262 93.9843L113.864 92.5704H95.7868Z" fill="#407BFF"/>
<path opacity="0.5" d="M95.7868 92.5704C95.7868 92.5704 67.1316 95.1126 67.4412 109.506C67.7611 124.476 73.3546 134.573 73.3546 134.573H78.948C78.948 134.573 77.8885 126.805 78.0777 112.068C78.1327 107.655 87.0561 106.196 95.7662 105.68C103.293 105.233 110.338 100.943 113.262 93.9843L113.864 92.5704H95.7868Z" fill="white"/>
<path d="M72.0439 133.07C72.0198 133.07 73.0037 135.657 73.0037 135.657L79.7598 135.171L79.3642 132.832L72.0439 133.07Z" fill="#407BFF"/>
<path d="M103.31 76.3955L99.674 90.4066C98.7443 93.9962 98.275 97.6894 98.2774 101.397V107.909C98.2774 109.554 99.4882 110.888 100.985 110.888H119.623C121.119 110.888 122.33 109.554 122.33 107.909V101.397C122.329 97.6893 122.799 93.9961 123.73 90.4066L126.939 78.0226C127.435 76.1203 126.134 74.2386 124.335 74.2386H105.911C105.299 74.2579 104.711 74.4804 104.24 74.871C103.769 75.2616 103.442 75.7981 103.31 76.3955Z" fill="#263238"/>
<path d="M80.1279 104.105L80.7368 107.579C81.0602 109.406 82.6667 110.888 84.3282 110.888H105.047C106.709 110.888 107.799 109.406 107.476 107.579L106.867 104.105C106.499 102.024 104.672 100.338 102.78 100.338H82.904C80.9983 100.338 79.7633 102.024 80.1279 104.105Z" fill="#263238"/>
<path d="M107.042 114.377H96.1893L95.1298 110.888H108.102L107.042 114.377Z" fill="#407BFF"/>
<path d="M103.554 114.377H99.6774V140.318H103.554V114.377Z" fill="#407BFF"/>
<path opacity="0.7" d="M103.554 140.318H99.6774V114.999L103.554 115.395V140.318Z" fill="white"/>
<path opacity="0.7" d="M102.608 140.318H101.683V115.202L102.608 115.299V140.318Z" fill="white"/>
<path d="M110.531 144.329H92.6977C92.5937 144.328 92.4927 144.294 92.4089 144.233C92.3251 144.171 92.2628 144.085 92.2308 143.986C92.1989 143.887 92.1988 143.78 92.2308 143.681C92.2627 143.582 92.325 143.496 92.4087 143.434L95.2364 141.37C96.5958 140.375 98.2367 139.837 99.9217 139.836H103.31C104.994 139.838 106.634 140.375 107.992 141.37L110.823 143.434C110.907 143.496 110.969 143.583 111.001 143.682C111.033 143.781 111.033 143.888 111 143.987C110.968 144.086 110.905 144.173 110.821 144.234C110.736 144.295 110.635 144.328 110.531 144.329Z" fill="#407BFF"/>
</svg>
